<?xml version="1.0" standalone="no"?>
<!DOCTYPE svg PUBLIC "-//W3C//DTD SVG 20010904//EN"
 "http://www.w3.org/TR/2001/REC-SVG-20010904/DTD/svg10.dtd">
<svg version="1.0" xmlns="http://www.w3.org/2000/svg"
 width="600.000000pt" height="600.000000pt" viewBox="0 0 600.000000 600.000000"
 preserveAspectRatio="xMidYMid meet">

<g transform="translate(0.000000,600.000000) scale(0.100000,-0.100000)"
fill="#000000" stroke="none">
<path d="M3085 5830 c-3 -5 -2 -10 4 -10 5 0 13 5 16 10 3 6 2 10 -4 10 -5 0
-13 -4 -16 -10z"/>
<path d="M3050 5809 c0 -5 5 -7 10 -4 6 3 10 8 10 11 0 2 -4 4 -10 4 -5 0 -10
-5 -10 -11z"/>
<path d="M3753 5790 c7 -25 -7 -34 -23 -15 -7 8 -17 15 -23 15 -7 0 -7 -4 1
-12 7 -7 12 -15 12 -19 0 -11 -39 -18 -46 -8 -3 5 -10 9 -16 9 -6 0 -5 -6 3
-16 7 -8 21 -13 31 -11 10 3 16 2 13 -2 -2 -4 29 -32 70 -61 43 -31 70 -57 64
-61 -8 -4 -6 -19 7 -45 20 -44 36 -59 78 -74 l30 -10 -22 23 c-27 29 -28 41
-2 27 11 -6 20 -9 20 -7 0 3 17 -11 37 -29 38 -35 53 -42 53 -24 0 6 7 10 15
10 8 0 15 -4 15 -8 0 -4 9 -8 20 -9 27 -2 25 11 -2 26 -14 7 -15 9 -5 6 15 -4
17 -1 12 15 -4 11 -2 20 4 20 6 0 11 -4 11 -9 0 -5 8 -12 18 -16 9 -3 2 10
-18 31 -19 21 -40 44 -47 51 -6 7 -23 14 -37 15 -13 1 -23 5 -20 9 8 14 -35
49 -64 51 -17 1 -29 4 -26 7 2 2 -8 13 -23 23 -16 10 -28 23 -28 30 -1 7 -6
12 -13 11 -7 -2 -12 1 -12 6 0 5 -18 7 -40 4 -33 -5 -40 -3 -40 11 0 9 6 16
13 16 9 0 8 3 -2 9 -7 5 -10 14 -7 20 4 6 2 11 -5 11 -6 0 -9 -8 -6 -20z m227
-178 c-7 -3 -19 3 -28 13 -16 15 -15 16 12 4 15 -7 23 -15 16 -17z"/>
<path d="M3163 5790 c-13 -5 -23 -12 -23 -15 0 -9 16 -5 36 10 22 16 19 18
-13 5z"/>
<path d="M3593 5784 c-3 -8 -2 -19 4 -25 5 -5 9 1 11 16 2 28 -6 33 -15 9z"/>
<path d="M3008 5783 c7 -3 16 -2 19 1 4 3 -2 6 -13 5 -11 0 -14 -3 -6 -6z"/>
<path d="M3296 5779 c5 -8 2 -10 -9 -6 -9 3 -18 -1 -21 -10 -4 -9 -14 -13 -26
-10 -10 3 -20 1 -22 -4 -2 -5 -21 -12 -43 -14 -22 -3 -41 -10 -43 -15 -2 -6
-15 -10 -29 -10 -23 0 -52 -23 -53 -42 0 -5 9 -8 21 -8 15 0 19 5 15 15 -4 11
1 15 17 15 12 1 33 7 47 15 29 16 74 20 65 5 -10 -16 25 -12 41 5 8 8 20 12
27 10 12 -5 74 42 66 49 -2 2 -17 6 -32 10 -21 5 -27 4 -21 -5z"/>
<path d="M3666 5766 c21 -15 30 -14 19 3 -3 6 -14 11 -23 11 -13 0 -13 -2 4
-14z"/>
<path d="M2923 5761 c3 -11 -69 -79 -89 -84 -10 -3 -2 -4 20 -3 46 1 111 51
101 77 -5 14 -36 24 -32 10z"/>
<path d="M3514 5740 c0 -13 4 -16 10 -10 7 7 7 13 0 20 -6 6 -10 3 -10 -10z"/>
<path d="M3555 5711 c3 -5 1 -12 -5 -16 -6 -4 -8 -10 -6 -14 3 -4 7 -20 10
-35 7 -38 9 -39 61 -42 46 -3 54 3 33 24 -6 6 -8 15 -4 19 4 5 13 1 19 -8 12
-16 56 -41 103 -59 20 -8 25 -7 21 2 -2 7 0 22 5 33 9 19 8 19 -5 2 -10 -12
-17 -14 -22 -8 -3 6 -16 16 -27 22 -18 10 -20 9 -14 -7 6 -16 4 -16 -16 3 -21
20 -75 48 -89 45 -3 0 -6 6 -6 13 0 21 41 9 99 -28 51 -32 60 -35 67 -16 2 7
-1 9 -8 5 -10 -7 -16 6 -12 27 1 5 -2 6 -7 3 -5 -3 -24 4 -42 16 -27 16 -44
19 -82 15 -26 -3 -50 -2 -53 4 -4 5 -11 9 -16 9 -6 0 -8 -4 -4 -9z"/>
<path d="M2768 5683 c7 -3 16 -2 19 1 4 3 -2 6 -13 5 -11 0 -14 -3 -6 -6z"/>
<path d="M3466 5682 c-4 -7 -11 -10 -16 -7 -4 3 -11 -2 -14 -11 -8 -22 -8 -24
8 -24 18 0 39 26 34 42 -3 9 -6 9 -12 0z"/>
<path d="M2907 5673 c-15 -14 -5 -18 36 -16 27 1 17 -2 -28 -10 -54 -10 -65
-14 -46 -19 33 -9 113 2 129 19 11 11 9 15 -13 23 -30 11 -69 13 -78 3z"/>
<path d="M2725 5657 c-3 -7 -29 -13 -67 -15 -34 -2 -71 -10 -82 -18 -20 -14
-20 -14 4 -14 14 0 32 -5 40 -10 12 -8 11 -10 -7 -10 -12 0 -25 -5 -28 -11
-10 -15 101 1 183 27 15 5 15 4 2 -5 -10 -7 -11 -11 -2 -11 6 0 20 -8 31 -19
18 -18 18 -19 -13 -34 -19 -10 -23 -15 -11 -13 45 7 127 46 128 62 0 5 -19 19
-43 30 -39 19 -41 22 -24 32 24 14 9 16 -17 2 -15 -9 -21 -7 -25 5 -7 18 -63
20 -69 2z m82 -33 c-3 -3 -12 -4 -19 -1 -8 3 -5 6 6 6 11 1 17 -2 13 -5z"/>
<path d="M3355 5621 c-10 -17 12 -21 25 -6 10 12 10 15 -3 15 -9 0 -18 -4 -22
-9z"/>
<path d="M3550 5601 c0 -5 -9 -11 -20 -14 -20 -5 -28 -27 -10 -27 18 0 11 -18
-10 -25 -22 -7 -28 -35 -7 -35 6 0 4 -5 -6 -11 -10 -6 -25 -8 -34 -5 -12 5
-13 9 -3 21 7 8 9 15 4 15 -4 0 1 7 12 16 18 15 18 15 -3 5 -12 -6 -23 -16
-25 -22 -4 -13 -73 -41 -105 -43 -11 0 -19 -4 -16 -9 10 -16 -29 -18 -60 -4
-29 15 -34 15 -57 0 -37 -23 -70 -60 -70 -78 0 -9 5 -13 10 -10 6 3 10 2 10
-4 0 -13 -17 -23 -23 -14 -11 21 -17 64 -7 58 5 -3 10 -1 10 5 0 7 -6 10 -12
7 -7 -2 -21 0 -30 5 -12 6 -18 5 -18 -2 0 -6 -4 -9 -8 -6 -13 8 -72 -25 -72
-40 0 -18 -14 -18 -29 0 -14 17 -3 25 62 45 41 14 49 31 15 31 -23 1 -23 1 -3
16 18 13 20 13 23 0 4 -18 60 -19 82 -1 8 7 29 20 45 28 20 11 24 16 13 17
-10 0 -32 -9 -50 -20 -50 -30 -88 -24 -56 8 10 10 5 11 -22 5 -19 -4 -69 -7
-110 -7 -57 1 -74 4 -72 14 2 10 0 11 -10 2 -8 -6 -23 -9 -35 -6 -13 4 -30 -3
-48 -20 -23 -22 -34 -25 -63 -20 -21 4 -37 2 -41 -5 -4 -6 -51 -13 -117 -15
-60 -3 -98 -2 -84 1 13 3 34 12 45 20 17 13 17 15 2 9 -10 -3 -37 -6 -59 -6
-35 0 -40 -3 -35 -19 3 -12 -1 -22 -10 -25 -22 -9 -33 -7 -33 5 0 6 7 9 14 6
10 -4 13 -1 9 9 -6 17 1 16 -143 4 -149 -13 -248 -32 -223 -41 16 -7 16 -8 1
-8 -10 -1 -18 -6 -18 -12 0 -6 7 -8 17 -5 22 9 123 -4 123 -15 0 -5 -21 -6
-47 -2 -34 4 -44 3 -39 -5 8 -13 -6 -16 -18 -4 -13 12 -94 8 -89 -4 2 -6 -6
-14 -19 -18 -22 -6 -22 -7 -3 -18 19 -11 19 -11 0 -19 -11 -4 -40 -8 -65 -8
-57 -2 -81 -14 -54 -29 23 -12 116 -3 108 10 -9 14 59 -2 68 -16 6 -8 8 -8 8
1 0 6 -4 15 -10 18 -5 3 -9 16 -9 28 1 17 2 18 6 5 3 -11 14 -18 30 -18 17 0
23 -4 20 -14 -4 -10 11 -15 61 -20 37 -3 87 -9 111 -12 31 -4 46 -2 52 7 8 12
11 12 18 -1 6 -8 8 -16 6 -18 -2 -3 -41 -6 -87 -8 -56 -2 -78 0 -68 6 9 6 10
10 3 10 -7 0 -17 -9 -23 -20 -11 -21 -46 -27 -52 -10 -2 6 -12 12 -23 14 -11
2 -27 7 -36 11 -10 3 -20 2 -23 -4 -4 -5 2 -12 13 -16 11 -3 22 -12 25 -20 3
-8 11 -15 18 -15 9 0 8 3 -2 10 -10 7 -11 10 -2 10 7 0 15 -7 18 -15 4 -8 16
-16 28 -16 15 -1 17 -2 4 -6 -32 -8 -98 17 -110 42 -10 23 -14 24 -77 18 -36
-3 -81 -6 -98 -7 -18 -1 -33 -6 -33 -13 0 -6 -14 -16 -30 -22 -17 -5 -33 -17
-36 -26 -3 -8 -13 -15 -21 -15 -29 0 -133 -74 -133 -94 0 -3 19 -5 43 -4 23 0
63 -3 90 -7 32 -5 47 -4 47 3 0 6 15 14 34 17 26 5 35 13 39 31 5 29 -8 32
-23 4 -7 -13 -21 -20 -40 -20 -16 0 -32 -4 -35 -10 -3 -5 -23 -10 -43 -10
l-37 1 38 20 c21 11 46 19 56 17 19 -3 91 32 91 44 0 5 -24 8 -52 9 -37 0 -47
3 -33 8 11 4 39 6 62 3 28 -3 43 -1 43 7 0 6 -9 11 -20 11 -11 0 -20 6 -20 14
0 11 10 13 41 10 28 -4 45 -1 52 9 8 10 20 12 37 7 l25 -8 -28 -1 c-17 -1 -26
-5 -22 -12 4 -6 14 -8 24 -4 10 4 13 3 6 -4 -5 -5 -23 -11 -40 -13 -21 -2 -29
-8 -26 -18 2 -8 4 -25 4 -37 1 -14 7 -23 17 -24 9 0 7 -4 -7 -9 -20 -8 -22
-14 -18 -74 3 -53 1 -66 -10 -66 -8 0 -15 -9 -15 -19 0 -23 -17 -30 -50 -20
-23 6 -23 7 -3 8 21 1 44 21 25 21 -5 0 -12 8 -16 18 -3 9 -9 23 -12 30 -3 7
2 12 15 12 11 0 23 5 26 10 3 6 2 10 -3 10 -6 0 -8 10 -4 22 4 18 2 20 -19 15
-13 -4 -30 -7 -36 -7 -7 0 -13 -7 -13 -15 0 -8 -3 -14 -7 -14 -5 1 -10 1 -13
0 -3 -2 -20 -4 -38 -7 -18 -2 -48 -15 -67 -29 -21 -16 -36 -22 -40 -16 -3 6
-14 11 -23 10 -14 0 -13 -2 3 -9 17 -7 15 -9 -12 -9 -18 -1 -33 -5 -33 -10 0
-17 67 -21 116 -6 58 18 54 17 54 6 0 -10 -61 -37 -74 -33 -4 1 -14 -2 -21 -8
-8 -6 -39 -14 -70 -17 -30 -3 -57 -9 -60 -12 -2 -4 12 -5 31 -3 21 3 34 0 34
-7 0 -6 8 -11 18 -12 10 0 6 -5 -11 -11 -21 -7 -32 -7 -40 1 -16 16 -32 14
-18 -2 6 -8 7 -17 3 -21 -4 -4 7 -5 23 -1 l30 6 -32 -15 c-18 -8 -33 -18 -33
-21 0 -3 5 -3 10 0 6 3 10 -3 10 -14 0 -18 3 -19 26 -11 45 17 50 11 9 -11
-22 -12 -44 -26 -50 -31 -7 -8 -6 -8 4 -3 9 5 12 4 8 -2 -8 -12 -57 -5 -57 8
0 5 12 14 28 20 15 7 22 13 14 16 -7 3 -27 -5 -45 -16 -17 -11 -26 -21 -19
-21 6 0 12 -4 12 -9 0 -5 -10 -7 -22 -4 -19 4 -20 3 -8 -6 11 -8 12 -11 2 -11
-7 0 -11 -4 -8 -9 3 -5 -1 -11 -9 -15 -17 -6 -21 -36 -5 -36 6 0 10 5 10 11 0
17 40 49 62 49 26 0 22 -15 -7 -28 -16 -8 -28 -23 -31 -42 -4 -16 -13 -30 -20
-30 -8 0 -14 -6 -14 -13 0 -8 -10 -13 -22 -13 -17 1 -24 -5 -26 -23 -4 -22 -3
-23 19 -7 17 11 26 13 36 4 18 -15 16 -37 -4 -45 -15 -6 -15 -7 1 -13 16 -5
16 -9 -9 -38 l-27 -32 27 10 c52 20 62 12 25 -21 -28 -25 -34 -36 -32 -67 3
-36 17 -62 33 -62 5 0 6 6 3 14 -5 14 10 29 34 32 17 3 15 -13 -3 -20 -19 -7
-16 -53 4 -69 12 -9 13 -9 7 1 -4 7 -1 12 9 12 9 0 14 -4 10 -9 -3 -6 3 -10
12 -10 39 -1 50 -5 50 -18 0 -7 -5 -13 -10 -13 -10 0 48 -42 74 -54 8 -3 -2
-3 -21 0 -35 5 -35 5 18 -30 29 -18 48 -36 42 -38 -6 -2 12 -48 44 -110 36
-69 53 -113 49 -127 -3 -12 -1 -21 5 -21 13 0 13 43 1 108 -10 48 -9 56 9 75
11 12 24 32 31 43 8 17 26 25 77 33 75 14 104 8 104 -20 0 -14 7 -19 24 -19
14 0 31 -8 38 -18 13 -17 86 -26 98 -11 3 3 19 9 35 13 23 5 26 4 15 -4 -12
-8 -7 -10 20 -8 19 1 42 -2 49 -6 10 -7 12 -5 6 4 -6 9 0 11 24 5 18 -4 31 -3
31 3 0 13 39 22 46 11 9 -15 24 -10 24 7 0 9 7 14 18 13 17 -2 44 5 73 21 10
5 21 4 27 -2 6 -6 22 -8 39 -3 57 15 176 21 213 12 50 -13 76 -21 96 -32 13
-6 45 -10 71 -9 87 6 138 12 153 18 8 3 29 7 45 10 93 15 195 61 195 88 0 5
14 14 30 19 17 6 30 14 30 18 0 5 54 34 70 36 3 1 25 5 50 10 99 18 123 15
156 -21 32 -34 46 -80 37 -127 -4 -21 -12 -28 -40 -33 -19 -4 -30 -10 -24 -13
11 -7 -42 -35 -91 -46 -16 -4 -25 -11 -22 -16 6 -10 -6 -11 -127 -14 -66 -1
-136 -13 -189 -32 -16 -6 -65 -14 -90 -16 -8 0 -23 -11 -34 -25 -17 -21 -25
-24 -63 -19 -43 5 -73 -9 -73 -34 0 -5 -7 -9 -16 -9 -8 0 -22 -7 -30 -15 -19
-18 -38 -19 -56 -2 -7 7 -37 13 -68 14 -64 0 -82 4 -103 21 -12 10 -16 10 -21
0 -5 -11 -7 -11 -12 0 -5 10 -9 10 -20 1 -10 -8 -14 -8 -14 0 0 6 -11 11 -25
11 -16 0 -25 -6 -25 -15 0 -20 -9 -19 -32 2 -15 13 -35 16 -95 14 -53 -1 -79
2 -85 11 -8 10 -11 10 -15 1 -7 -19 -84 -16 -176 8 -69 17 -87 19 -124 9 -46
-13 -107 -53 -96 -63 3 -4 2 -7 -3 -7 -6 0 -19 -7 -30 -15 -18 -14 -18 -15 6
-12 16 1 25 -3 25 -13 0 -12 19 -15 100 -16 55 -1 112 -7 126 -12 15 -6 36 -8
48 -5 12 3 21 3 21 0 0 -3 -37 -17 -83 -31 -78 -24 -126 -54 -110 -69 3 -4 21
3 40 14 18 11 33 18 33 14 0 -13 -45 -44 -64 -45 -11 0 -16 -3 -13 -7 4 -3 2
-12 -4 -19 -16 -20 3 -23 46 -8 22 7 42 10 45 5 6 -10 94 -61 104 -61 4 0 -9
15 -28 34 -48 45 -46 61 11 80 60 20 63 20 63 -5 0 -27 18 -59 33 -59 7 -1 25
-12 42 -25 l29 -24 -27 -10 c-33 -13 -36 -33 -4 -29 16 2 22 -2 21 -14 -1 -11
5 -18 16 -18 10 0 21 -9 25 -19 3 -11 11 -18 18 -16 7 2 32 6 57 9 25 2 65 12
90 20 24 9 50 14 57 12 7 -3 13 1 13 8 0 7 12 13 29 14 16 0 44 9 63 18 18 10
37 18 41 19 16 0 27 32 27 78 0 39 -5 53 -22 67 -23 19 -23 19 -3 34 26 20 36
20 29 1 -5 -12 2 -15 30 -15 20 0 36 -4 36 -9 0 -4 11 -7 25 -6 14 2 23 -1 19
-6 -3 -5 4 -9 15 -9 12 0 21 4 21 9 0 5 15 16 34 25 37 18 126 22 126 6 0 -5
6 -10 14 -10 7 0 36 -23 63 -50 46 -45 54 -50 87 -46 21 3 51 -2 73 -11 21 -9
49 -18 63 -19 14 -2 48 -8 75 -13 28 -5 51 -6 53 -2 1 4 16 5 32 3 19 -3 30 0
30 7 0 8 15 10 45 6 55 -6 61 11 8 20 -65 11 -61 13 25 14 57 1 88 5 97 15 12
12 12 15 -2 20 -19 8 -8 21 22 30 11 3 -2 3 -30 0 -27 -3 -54 -9 -60 -14 -5
-4 -30 -4 -55 -1 l-45 7 39 8 c57 11 106 63 106 111 l0 38 51 -5 c28 -3 57
-12 65 -20 13 -13 12 -18 -11 -42 -36 -39 -31 -41 20 -6 25 17 43 36 39 42 -4
7 4 8 25 3 45 -10 100 11 94 34 -3 13 2 21 18 26 l23 8 -26 13 c-14 7 -41 14
-59 15 -47 3 -119 20 -119 29 0 4 -12 5 -27 3 l-28 -5 32 20 c17 12 50 26 72
33 29 8 41 18 41 31 0 10 5 18 10 18 6 0 10 6 10 14 0 8 -16 16 -40 20 -22 3
-40 12 -40 19 0 13 -12 13 -110 1 -54 -6 -67 8 -71 82 -1 27 -5 54 -8 59 -3 6
-7 21 -9 35 -3 24 -3 24 17 6 11 -10 17 -24 14 -34 -5 -11 -3 -13 6 -7 8 4 17
2 22 -6 7 -11 9 -10 9 4 0 13 5 16 24 11 16 -4 25 -1 29 10 4 9 11 16 17 16 8
0 8 -6 0 -20 -12 -23 -1 -26 32 -9 19 10 20 9 16 -29 -3 -32 -1 -38 9 -30 7 6
13 23 13 39 0 19 5 29 15 29 10 0 15 10 15 30 0 32 17 46 64 51 19 3 31 -1 34
-10 3 -9 0 -11 -9 -6 -8 5 -11 5 -7 0 4 -4 3 -14 -3 -22 -9 -9 -8 -13 0 -13 6
0 11 3 11 8 0 24 76 33 105 12 17 -13 55 -4 69 16 14 18 15 18 24 -5 8 -22 9
-22 16 -6 6 17 8 17 26 -3 11 -12 20 -25 20 -30 0 -5 6 -15 14 -21 8 -7 17
-27 20 -46 4 -19 13 -47 21 -62 13 -25 15 -26 15 -6 0 12 4 24 9 27 10 6 9 30
-3 84 -5 21 -4 32 3 32 6 0 11 9 11 21 0 13 4 18 13 13 9 -5 9 -4 0 6 -6 7 -9
19 -6 26 3 8 0 14 -6 14 -6 0 -11 7 -11 15 0 8 4 15 9 15 5 0 8 10 8 23 -1 12
2 54 7 93 6 64 5 72 -10 70 -13 -1 -16 8 -16 44 0 25 3 52 6 61 4 8 2 28 -3
42 -6 15 -7 36 -2 48 10 28 3 65 -15 80 -8 6 -14 17 -14 25 0 7 -6 19 -12 26
-7 7 -22 30 -32 51 -11 20 -23 37 -28 37 -11 0 -10 -27 2 -35 5 -3 7 -12 4
-19 -3 -7 3 -16 13 -20 13 -5 14 -9 5 -15 -10 -6 -10 -17 3 -52 18 -50 31
-173 16 -150 -7 12 -13 7 -25 -20 -9 -19 -14 -26 -11 -16 3 11 2 24 -2 30 -3
6 -14 -14 -23 -43 -11 -36 -19 -48 -23 -37 -3 9 -2 19 3 22 6 4 10 11 10 16 0
6 -4 8 -9 5 -4 -3 -6 6 -3 19 2 14 8 25 12 25 5 0 12 9 15 20 4 12 15 20 28
20 15 0 18 3 9 8 -7 5 -15 32 -19 60 -3 29 -10 52 -16 52 -5 0 -4 6 2 14 7 9
8 17 2 20 -5 3 -11 1 -13 -6 -6 -17 -28 0 -28 23 0 11 -7 19 -16 19 -8 0 -12
5 -9 10 3 6 2 10 -4 10 -5 0 -9 14 -9 31 1 20 -6 37 -17 45 -11 8 -14 14 -9
14 6 0 14 -4 20 -9 5 -4 21 -11 37 -15 l27 -7 -15 37 c-11 28 -12 34 -2 25 8
-6 18 -7 22 -3 5 4 5 1 1 -6 -7 -11 -4 -11 15 0 63 36 84 99 49 148 -27 38
-11 39 32 2 18 -16 68 -54 111 -85 75 -56 98 -63 57 -19 -14 15 -16 22 -8 22
23 0 18 42 -9 74 -14 17 -30 30 -35 28 -5 -1 -7 2 -3 7 3 6 12 8 20 4 8 -3 15
0 15 7 0 8 -10 11 -27 7 -16 -2 -37 -1 -48 3 -19 8 -19 9 0 9 23 1 9 17 -20
23 -11 2 -19 9 -18 15 1 6 -5 9 -15 8 -66 -13 -72 -16 -72 -35 0 -10 -5 -22
-11 -26 -6 -3 -9 -15 -6 -25 3 -12 0 -19 -9 -19 -8 0 -14 -10 -14 -22 -1 -22
-1 -22 -15 -4 -13 17 -14 15 -20 -20 -14 -86 -16 -93 -29 -88 -8 3 -24 -7 -36
-23 -13 -15 -21 -23 -18 -18 2 6 14 32 27 59 23 48 23 49 6 105 -9 31 -17 62
-18 69 0 6 -5 12 -10 12 -5 0 -7 7 -3 15 4 12 2 13 -13 6 -19 -11 -35 -66 -24
-84 3 -6 1 -7 -5 -3 -7 4 -12 1 -12 -8 0 -30 -62 -126 -82 -126 -4 0 -8 11 -8
25 0 14 5 25 11 25 8 0 8 4 0 14 -8 10 -9 21 0 42 14 39 19 148 7 165 -7 10
-9 8 -5 -8 6 -27 -19 -20 -28 8 -9 27 -25 23 -25 -6 0 -14 4 -25 8 -25 5 0 8
-22 8 -49 -1 -27 -4 -47 -8 -45 -4 2 -9 0 -13 -5 -3 -6 -13 -7 -23 -4 -9 3
-14 3 -10 -1 6 -8 -54 -68 -61 -61 -2 3 10 20 28 40 21 24 31 46 31 68 0 52
-16 65 -24 18 -3 -24 -18 -53 -36 -72 -34 -38 -47 -34 -26 7 38 76 40 84 28
96 -7 7 -12 19 -12 28 0 13 1 13 10 0 7 -11 10 -5 10 23 0 35 -26 77 -49 77
-6 0 -8 9 -6 20 2 11 1 20 -3 20 -4 0 -20 12 -37 26 -21 18 -24 24 -11 19 19
-6 19 -5 1 15 -10 11 -24 20 -32 20 -7 0 -13 4 -13 10 0 5 -7 7 -16 3 -9 -3
-19 -2 -23 4 -10 14 -91 54 -91 44z m14 -70 c3 -5 0 -11 -7 -14 -8 -3 -14 1
-14 9 0 16 13 19 21 5z m-683 -31 c5 0 9 -5 9 -10 0 -7 -8 -7 -22 1 -16 9 -23
9 -26 0 -2 -6 -11 -11 -20 -11 -15 1 -14 3 3 16 11 8 26 12 33 9 8 -3 18 -5
23 -5z m546 -36 c-16 -9 -32 -13 -35 -9 -9 9 19 25 43 24 16 0 15 -2 -8 -15z
m170 -11 c-7 -6 -46 10 -41 18 3 5 14 3 24 -3 11 -7 18 -13 17 -15z m123 -2
c0 -5 9 -13 21 -16 11 -4 18 -9 16 -12 -6 -5 -67 25 -67 32 0 3 7 5 15 5 8 0
15 -4 15 -9z m-200 -18 c2 -2 -12 -3 -32 -1 -20 1 -34 6 -32 10 5 7 53 1 64
-9z m-860 -1 c0 -4 -10 -9 -22 -9 -18 -2 -20 0 -8 7 18 12 30 13 30 2z m63 1
c-7 -2 -21 -2 -30 0 -10 3 -4 5 12 5 17 0 24 -2 18 -5z m716 3 c-2 -2 -21 -6
-42 -10 -27 -5 -37 -4 -32 3 3 6 22 11 42 11 20 0 34 -2 32 -4z m226 -54 c-3
-17 -13 -37 -22 -44 -14 -11 -15 -10 -8 11 5 17 4 21 -5 16 -6 -4 -10 -15 -7
-26 3 -10 -3 -25 -14 -35 -20 -18 -27 -50 -9 -39 6 4 8 11 5 16 -3 5 0 6 8 3
9 -3 22 8 35 30 12 20 27 36 34 35 10 0 10 -2 1 -6 -7 -2 -13 -11 -13 -19 0
-9 5 -12 10 -9 17 11 11 -14 -9 -34 -33 -33 -174 -51 -155 -20 3 5 10 6 16 3
7 -5 8 -2 3 6 -6 10 -3 12 13 8 12 -4 22 -2 22 3 0 5 -8 9 -17 9 -13 1 -10 5
10 16 15 8 27 23 27 34 0 11 5 20 10 20 6 0 9 6 8 12 -2 7 8 14 21 16 19 3 22
8 18 29 -4 22 -3 23 10 10 10 -10 13 -24 8 -45z m-754 18 c10 0 19 -6 19 -12
0 -9 4 -8 11 2 9 12 10 11 6 -7 -3 -12 0 -21 5 -20 6 1 12 -2 14 -8 2 -6 -13
-10 -33 -10 -31 0 -38 4 -44 25 -4 14 -7 34 -7 45 0 16 1 17 5 3 2 -10 13 -18
24 -18z m439 20 c0 -5 -2 -10 -4 -10 -3 0 -8 5 -11 10 -3 6 -1 10 4 10 6 0 11
-4 11 -10z m258 -15 c-3 -3 -9 2 -12 12 -6 14 -5 15 5 6 7 -7 10 -15 7 -18z
m-215 -2 c-7 -2 -19 -2 -25 0 -7 3 -2 5 12 5 14 0 19 -2 13 -5z m-546 -19 c-3
-3 -12 -4 -19 -1 -8 3 -5 6 6 6 11 1 17 -2 13 -5z m213 -25 c0 -18 -18 -9 -23
12 -4 16 -3 18 9 8 8 -6 14 -15 14 -20z m-983 -4 c0 -8 -7 -15 -15 -15 -12 0
-12 3 -2 15 7 8 13 15 15 15 1 0 2 -7 2 -15z m718 5 c3 -6 -1 -7 -9 -4 -18 7
-21 14 -7 14 6 0 13 -4 16 -10z m-519 -20 c58 0 75 -14 22 -18 -46 -4 -108 8
-108 20 0 6 7 7 16 4 9 -3 40 -6 70 -6z m-266 -10 c0 -5 -7 -7 -15 -4 -8 4
-15 8 -15 10 0 2 7 4 15 4 8 0 15 -4 15 -10z m620 0 c0 -5 -6 -10 -14 -10 -8
0 -23 -3 -33 -6 -16 -5 -16 -4 1 10 22 18 46 21 46 6z m417 4 c-3 -3 -12 -4
-19 -1 -8 3 -5 6 6 6 11 1 17 -2 13 -5z m-493 -14 c-15 -15 -74 -24 -74 -12 0
9 21 15 70 21 9 0 11 -2 4 -9z m353 4 c-3 -3 -12 -4 -19 -1 -8 3 -5 6 6 6 11
1 17 -2 13 -5z m-141 -26 c-9 -47 -12 -54 -36 -76 -22 -21 -23 -23 -5 -20 12
2 21 -4 23 -14 2 -10 -1 -18 -7 -18 -6 0 -11 4 -11 9 0 5 -9 13 -20 16 -22 7
-27 30 -7 39 6 3 -10 4 -36 2 -35 -3 -46 -1 -38 7 6 6 30 10 54 8 40 -2 44 0
62 33 23 42 27 45 21 14z m-316 -12 c-11 -11 -50 -16 -63 -9 -16 9 2 18 37 18
22 0 31 -4 26 -9z m1264 -2 c3 -8 2 -12 -4 -9 -6 3 -10 10 -10 16 0 14 7 11
14 -7z m63 -43 c-4 -28 -33 -53 -85 -74 -50 -20 -52 -20 -52 -7 0 6 5 10 11
10 6 0 33 16 60 36 37 27 49 42 49 62 1 22 2 24 10 10 6 -9 9 -26 7 -37z
m-1150 33 c-3 -3 -12 -4 -19 -1 -8 3 -5 6 6 6 11 1 17 -2 13 -5z m1687 -10 c3
-8 2 -12 -4 -9 -6 3 -10 10 -10 16 0 14 7 11 14 -7z m-1597 0 c-3 -3 -12 -4
-19 -1 -8 3 -5 6 6 6 11 1 17 -2 13 -5z m127 -10 c12 -31 6 -55 -16 -64 -18
-7 -27 -4 -41 13 -14 16 -16 22 -6 26 7 2 15 -1 17 -8 6 -19 22 -2 22 25 0 27
15 32 24 8z m608 0 c-13 -9 -26 -13 -30 -9 -8 8 17 25 38 25 9 0 6 -6 -8 -16z
m-995 -53 c5 -33 6 -58 1 -55 -10 7 -6 -42 5 -52 4 -4 7 -18 7 -31 0 -20 -3
-22 -19 -13 -11 5 -22 19 -26 29 -3 11 -12 22 -20 25 -10 3 -12 0 -8 -11 11
-28 -16 -4 -34 30 -17 32 -24 97 -10 97 4 0 7 -5 7 -11 0 -5 5 -7 10 -4 6 3
10 15 10 25 0 20 13 28 46 29 18 1 23 -7 31 -58z m1233 49 c0 -5 -5 -10 -11
-10 -5 0 -7 5 -4 10 3 6 8 10 11 10 2 0 4 -4 4 -10z m-1170 -10 c0 -5 -12 -10
-27 -9 -25 0 -26 1 -8 9 27 12 35 12 35 0z m1011 -43 c-10 -9 -11 -8 -5 6 3
10 9 15 12 12 3 -3 0 -11 -7 -18z m-1311 9 c0 -2 -7 -7 -16 -10 -8 -3 -12 -2
-9 4 6 10 25 14 25 6z m407 -39 c1 -15 -2 -27 -7 -27 -13 0 -32 39 -25 51 11
18 30 4 32 -24z m868 -6 c-3 -6 -11 -11 -17 -11 -6 0 -6 6 2 15 14 17 26 13
15 -4z m459 0 c-4 -9 -9 -26 -11 -39 -8 -35 -23 -37 -23 -2 0 20 4 29 11 24 7
-4 9 0 5 13 -4 14 -2 20 9 20 11 0 14 -6 9 -16z m-1883 -22 l22 -31 -23 7
c-15 5 -20 4 -16 -4 4 -6 14 -11 23 -11 9 0 13 -3 10 -7 -10 -9 -90 18 -100
34 -4 7 -17 13 -27 13 -10 0 -21 4 -24 8 -8 14 73 5 91 -9 14 -12 16 -12 11 3
-6 14 -1 28 8 28 1 0 13 -14 25 -31z m1559 21 c0 -5 -5 -10 -11 -10 -5 0 -7 5
-4 10 3 6 8 10 11 10 2 0 4 -4 4 -10z m-1313 -31 c23 1 26 -5 36 -72 7 -44
-11 -42 -24 3 -12 40 -42 59 -32 20 4 -16 2 -19 -11 -14 -9 3 -16 14 -16 24 0
10 -3 26 -7 36 -5 14 -3 16 13 9 10 -4 29 -7 41 -6z m-662 -49 c-3 -5 -15 -10
-26 -10 -10 0 -19 5 -19 10 0 6 12 10 26 10 14 0 23 -4 19 -10z m295 -36 c0
-32 -29 -30 -41 4 -7 19 -5 22 16 22 20 0 25 -5 25 -26z m447 4 c-3 -8 -6 -5
-6 6 -1 11 2 17 5 13 3 -3 4 -12 1 -19z m-365 -99 c-12 -5 -32 -4 -44 1 -19 7
-20 9 -5 9 17 1 17 2 3 17 -26 25 -19 26 26 3 40 -20 41 -22 20 -30z m2098 16
c9 5 19 -38 16 -75 -1 -18 -8 -26 -24 -28 -23 -3 -23 -3 -8 27 12 22 13 36 6
56 -6 15 -9 32 -9 38 1 7 3 4 6 -6 2 -9 8 -15 13 -12z m-37 1 c3 -8 0 -19 -7
-25 -10 -9 -12 -6 -8 14 5 29 8 31 15 11z m-2159 -20 c-21 -15 -30 -14 -19 3
3 6 14 11 23 11 13 0 13 -2 -4 -14z m2163 -38 c-3 -8 -6 -5 -6 6 -1 11 2 17 5
13 3 -3 4 -12 1 -19z m-2336 -7 c-21 -13 19 -31 68 -31 56 0 52 -17 -4 -18
-26 -1 -45 3 -45 10 0 5 -9 8 -20 5 -11 -3 -23 -1 -26 4 -3 5 -14 9 -25 9 -37
0 -21 29 19 32 43 3 52 0 33 -11z m-114 -7 c-3 -3 -12 -4 -19 -1 -8 3 -5 6 6
6 11 1 17 -2 13 -5z m2429 -32 c-17 -16 -18 -16 -5 5 7 12 15 20 18 17 3 -2
-3 -12 -13 -22z m-2441 8 c-3 -5 -16 -10 -28 -9 -20 1 -20 2 3 9 14 4 26 8 28
9 2 1 0 -3 -3 -9z m73 -46 c13 -9 12 -12 -3 -18 -10 -3 -26 -4 -36 -1 -11 4
-19 2 -19 -4 0 -5 -13 -9 -28 -9 -34 1 -40 28 -6 28 12 0 32 9 45 19 16 13 25
16 28 8 2 -7 11 -17 19 -23z m2422 22 c0 -2 -8 -10 -17 -17 -16 -13 -17 -12
-4 4 13 16 21 21 21 13z m35 -88 c-2 -21 -9 -34 -23 -39 -15 -6 -22 -20 -27
-51 -5 -28 -15 -49 -30 -60 l-24 -18 11 33 c5 17 10 39 11 47 1 8 12 24 25 35
12 11 22 24 22 28 0 7 32 56 36 57 1 0 1 -14 -1 -32z m-2548 16 c-3 -3 -12 -4
-19 -1 -8 3 -5 6 6 6 11 1 17 -2 13 -5z m-37 -23 c0 -5 -9 -11 -21 -14 -16 -4
-18 -3 -8 9 13 16 29 19 29 5z m-10 -47 c0 -3 -12 -18 -28 -33 -36 -37 -58
-29 -23 8 24 26 51 39 51 25z m2600 -3 c0 -5 -7 -12 -16 -15 -24 -9 -28 -7
-14 9 14 17 30 20 30 6z m146 -37 c-1 -19 1 -37 6 -40 4 -3 8 -13 8 -22 0 -15
-2 -15 -10 -2 -8 12 -10 10 -11 -10 -1 -14 -1 -31 0 -39 2 -7 -2 -10 -8 -7
-10 7 -8 127 4 145 11 19 14 12 11 -25z m-136 0 c0 -8 -5 -12 -10 -9 -6 4 -8
11 -5 16 9 14 15 11 15 -7z m-10 -54 c0 -11 -4 -20 -9 -20 -5 0 -7 9 -4 20 3
11 7 20 9 20 2 0 4 -9 4 -20z m-28 -24 c4 -17 1 -23 -9 -19 -14 6 -18 43 -4
43 5 0 11 -11 13 -24z m64 -44 c0 -10 -5 -19 -12 -19 -6 0 -9 9 -6 19 2 10 7
18 11 18 4 0 7 -8 7 -18z m-28 -23 c16 -26 10 -35 -11 -15 -8 8 -18 12 -21 8
-4 -3 -4 1 0 11 8 22 16 21 32 -4z m45 -35 c-1 -10 2 -34 8 -51 12 -39 4 -60
-17 -42 -8 6 -17 9 -21 6 -11 -12 -33 15 -33 40 0 22 2 24 15 13 8 -7 15 -19
15 -26 0 -8 4 -14 9 -14 20 0 -3 51 -25 56 -13 3 -21 10 -18 16 3 5 12 7 20 4
8 -3 17 1 21 10 8 21 28 11 26 -12z m-2816 -156 c-3 -8 -6 -5 -6 6 -1 11 2 17
5 13 3 -3 4 -12 1 -19z m87 -37 c-19 -19 -31 -25 -36 -18 -9 15 -1 26 26 37
37 15 40 11 10 -19z m2416 -281 c-12 -8 -12 -10 -1 -10 8 0 12 -3 8 -6 -9 -9
-28 6 -22 17 4 5 12 9 18 9 7 0 6 -4 -3 -10z m43 -160 c37 -11 51 -30 22 -30
-8 0 -15 4 -15 8 0 4 -19 9 -42 11 -23 1 -46 5 -52 8 -5 4 -37 10 -70 14 -52
7 -47 7 29 4 50 -2 107 -9 128 -15z m-473 -101 c0 -7 11 -22 26 -35 28 -27 25
-28 -28 -13 -49 13 -53 53 -5 58 4 1 7 -4 7 -10z m-1103 -215 c-3 -3 -12 -4
-19 -1 -8 3 -5 6 6 6 11 1 17 -2 13 -5z"/>
<path d="M2475 5540 c-13 -5 -14 -9 -5 -9 8 0 24 4 35 9 13 5 14 9 5 9 -8 0
-24 -4 -35 -9z"/>
<path d="M2428 5523 c7 -3 16 -2 19 1 4 3 -2 6 -13 5 -11 0 -14 -3 -6 -6z"/>
<path d="M1908 5513 c7 -3 16 -2 19 1 4 3 -2 6 -13 5 -11 0 -14 -3 -6 -6z"/>
<path d="M2315 5510 c3 -5 19 -10 35 -10 16 0 32 5 35 10 4 6 -10 10 -35 10
-25 0 -39 -4 -35 -10z"/>
<path d="M2108 5503 c7 -3 16 -2 19 1 4 3 -2 6 -13 5 -11 0 -14 -3 -6 -6z"/>
<path d="M2036 5485 c-11 -8 -15 -15 -9 -15 6 0 16 7 23 15 16 19 11 19 -14 0z"/>
<path d="M2580 5490 c8 -5 22 -10 30 -10 13 0 13 1 0 10 -8 5 -22 10 -30 10
-13 0 -13 -1 0 -10z"/>
<path d="M3255 5490 c-3 -5 1 -10 9 -10 8 0 18 5 21 10 3 6 -1 10 -9 10 -8 0
-18 -4 -21 -10z"/>
<path d="M3288 5463 c7 -3 16 -2 19 1 4 3 -2 6 -13 5 -11 0 -14 -3 -6 -6z"/>
<path d="M4125 5460 c-3 -5 2 -10 12 -10 15 0 16 -2 3 -10 -9 -6 -10 -10 -3
-10 19 0 24 17 9 29 -10 8 -16 9 -21 1z"/>
<path d="M3930 5429 c11 -20 37 -36 45 -27 7 6 -34 48 -46 48 -6 0 -6 -8 1
-21z"/>
<path d="M3905 5415 c3 -16 13 -36 22 -42 27 -21 26 -7 -2 34 -27 38 -27 38
-20 8z"/>
<path d="M4150 5416 c0 -12 44 -85 49 -81 2 3 -1 11 -7 17 -7 7 -12 22 -12 34
0 12 -7 24 -15 28 -8 3 -15 4 -15 2z"/>
<path d="M1993 5403 c9 -2 25 -2 35 0 9 3 1 5 -18 5 -19 0 -27 -2 -17 -5z"/>
<path d="M3990 5392 c0 -6 5 -14 11 -17 6 -4 8 -13 5 -21 -3 -9 2 -14 14 -14
27 0 25 12 -5 40 -14 13 -25 18 -25 12z"/>
<path d="M1848 5363 c6 -2 18 -2 25 0 6 3 1 5 -13 5 -14 0 -19 -2 -12 -5z"/>
<path d="M1765 5341 c-16 -4 -25 -9 -20 -12 6 -3 24 -3 40 0 17 4 26 9 20 12
-5 3 -23 3 -40 0z"/>
<path d="M1680 5285 c-10 -12 -9 -15 4 -15 10 0 15 4 11 9 -3 5 3 12 12 14 15
4 15 5 2 6 -9 0 -22 -6 -29 -14z"/>
<path d="M1753 5263 c4 -7 0 -13 -10 -16 -11 -3 -8 -5 10 -6 15 0 27 -7 27
-13 0 -10 2 -10 8 -1 4 7 19 17 32 23 23 9 22 10 -8 4 -21 -4 -39 -1 -49 8
-10 8 -14 8 -10 1z"/>
<path d="M2105 5240 c3 -5 13 -10 21 -10 8 0 14 5 14 10 0 6 -9 10 -21 10 -11
0 -17 -4 -14 -10z"/>
<path d="M1638 5233 c7 -3 16 -2 19 1 4 3 -2 6 -13 5 -11 0 -14 -3 -6 -6z"/>
<path d="M1680 5230 c0 -13 11 -13 30 0 12 8 11 10 -7 10 -13 0 -23 -4 -23
-10z"/>
<path d="M1738 5223 c7 -3 16 -2 19 1 4 3 -2 6 -13 5 -11 0 -14 -3 -6 -6z"/>
<path d="M1680 5187 c-14 -6 -31 -17 -38 -24 -7 -7 -20 -13 -28 -13 -8 0 -14
-4 -14 -10 0 -5 2 -10 4 -10 2 0 13 -3 23 -7 10 -3 15 -3 11 2 -10 10 17 35
39 35 10 0 29 9 43 20 23 18 23 20 5 19 -11 0 -31 -6 -45 -12z"/>
<path d="M1545 5150 c-3 -5 -1 -10 4 -10 6 0 11 5 11 10 0 6 -2 10 -4 10 -3 0
-8 -4 -11 -10z"/>
<path d="M4310 5141 c0 -5 9 -11 20 -14 11 -3 20 -12 20 -21 0 -20 7 -20 26
-1 10 9 11 15 4 15 -6 0 -18 7 -26 15 -17 16 -44 20 -44 6z"/>
<path d="M1524 5076 c-55 -56 -42 -70 14 -16 23 22 46 40 51 40 5 0 13 5 16
10 3 6 -4 10 -16 10 -12 0 -40 -19 -65 -44z"/>
<path d="M4314 5105 c3 -9 0 -15 -9 -15 -9 0 -15 -10 -15 -25 0 -14 5 -25 11
-25 5 0 8 -4 4 -9 -7 -13 34 -41 51 -34 9 3 14 -2 14 -12 0 -10 11 -28 24 -40
21 -20 28 -21 42 -10 17 12 17 14 1 38 -12 18 -13 27 -5 29 8 3 4 14 -11 34
l-23 29 7 -26 c6 -23 3 -26 -17 -25 -15 1 -23 7 -22 19 1 9 -1 15 -5 12 -14
-8 -40 33 -34 54 3 13 1 21 -7 21 -7 0 -10 -7 -6 -15z"/>
<path d="M1569 5030 c-49 -16 -125 -70 -99 -70 12 0 170 79 170 85 0 7 -11 5
-71 -15z"/>
<path d="M1644 5025 c-15 -11 -16 -14 -3 -15 8 0 24 7 35 15 15 11 16 14 3 15
-8 0 -24 -7 -35 -15z"/>
<path d="M4262 5029 c2 -6 8 -10 13 -10 5 0 11 4 13 10 2 6 -4 11 -13 11 -9 0
-15 -5 -13 -11z"/>
<path d="M4227 5006 c-3 -8 -2 -18 3 -21 13 -8 24 15 12 27 -6 6 -11 4 -15 -6z"/>
<path d="M4290 4968 c0 -10 0 -21 0 -25 0 -5 6 -8 13 -8 6 0 13 -11 13 -25 2
-34 15 -70 25 -70 5 0 8 8 7 18 -5 60 17 72 28 15 l7 -36 15 38 c15 36 14 38
-9 56 -23 17 -24 17 -31 -2 -11 -28 -21 -24 -46 19 -13 23 -22 30 -22 20z"/>
<path d="M4191 4945 c0 -11 4 -27 9 -35 9 -13 10 -13 9 0 0 8 -4 24 -9 35 l-9
20 0 -20z"/>
<path d="M1408 4873 c7 -3 16 -2 19 1 4 3 -2 6 -13 5 -11 0 -14 -3 -6 -6z"/>
<path d="M4484 4867 c-3 -9 -14 -14 -25 -12 -11 2 -17 0 -14 -6 10 -15 45 -10
52 6 3 9 3 19 -1 22 -3 3 -8 -1 -12 -10z"/>
<path d="M1410 4829 c0 -5 5 -7 10 -4 6 3 10 8 10 11 0 2 -4 4 -10 4 -5 0 -10
-5 -10 -11z"/>
<path d="M1460 4809 c0 -5 -4 -8 -9 -5 -5 3 -11 -4 -14 -16 -4 -15 -3 -18 5
-10 6 6 17 8 24 5 9 -3 14 2 14 16 0 12 -4 21 -10 21 -5 0 -10 -5 -10 -11z"/>
<path d="M4440 4780 c0 -5 5 -10 10 -10 6 0 10 5 10 10 0 6 -4 10 -10 10 -5 0
-10 -4 -10 -10z"/>
<path d="M4366 4703 c10 -40 14 -41 14 -5 0 18 -5 32 -10 32 -6 0 -8 -11 -4
-27z"/>
<path d="M4366 4644 c-9 -24 -7 -28 9 -14 8 6 19 9 24 5 7 -3 8 0 5 9 -8 21
-30 20 -38 0z"/>
<path d="M4380 4604 c0 -8 6 -11 15 -8 8 4 15 9 15 13 0 4 -7 8 -15 8 -8 0
-15 -6 -15 -13z"/>
<path d="M4400 4576 c0 -8 5 -18 10 -21 6 -3 10 3 10 14 0 12 -4 21 -10 21 -5
0 -10 -6 -10 -14z"/>
<path d="M3950 4290 c-9 -6 -10 -10 -3 -10 6 0 15 5 18 10 8 12 4 12 -15 0z"/>
<path d="M4181 4284 c0 -11 3 -14 6 -6 3 7 2 16 -1 19 -3 4 -6 -2 -5 -13z"/>
<path d="M3526 4201 c-4 -7 -5 -15 -2 -18 9 -9 19 4 14 18 -4 11 -6 11 -12 0z"/>
<path d="M3578 4203 c7 -3 16 -2 19 1 4 3 -2 6 -13 5 -11 0 -14 -3 -6 -6z"/>
<path d="M4498 4149 c-21 -11 -38 -22 -38 -24 0 -3 15 -28 33 -57 43 -70 57
-102 58 -141 1 -31 2 -31 11 8 5 22 11 52 14 66 5 20 -30 170 -39 169 -1 -1
-19 -10 -39 -21z"/>
<path d="M4335 4060 c3 -5 11 -10 16 -10 6 0 7 5 4 10 -3 6 -11 10 -16 10 -6
0 -7 -4 -4 -10z"/>
<path d="M4430 3921 c0 -11 11 -37 25 -57 14 -20 25 -31 25 -23 0 11 2 11 10
-1 7 -11 10 -1 9 35 0 37 -3 45 -9 30 -5 -11 -9 -15 -9 -9 -1 7 -12 19 -26 28
-24 16 -25 15 -25 -3z"/>
<path d="M1744 3764 c3 -9 6 -20 6 -25 0 -5 4 -9 9 -9 4 0 6 11 3 25 -2 14 -9
25 -14 25 -6 0 -7 -7 -4 -16z"/>
<path d="M4500 3608 c0 -4 7 -8 15 -8 8 0 15 4 15 8 0 5 -7 9 -15 9 -8 0 -15
-4 -15 -9z"/>
<path d="M4521 3551 c-8 -5 -9 -11 -3 -15 5 -3 12 1 16 9 6 17 6 18 -13 6z"/>
<path d="M2141 3536 c2 -2 18 -6 34 -10 22 -5 26 -4 15 4 -14 9 -59 15 -49 6z"/>
<path d="M2217 3523 c-14 -13 -6 -20 18 -15 14 2 22 8 19 13 -6 11 -28 12 -37
2z"/>
<path d="M4517 3502 c1 -8 3 -18 3 -23 0 -5 5 -9 10 -9 6 0 10 9 10 21 0 11
-4 18 -9 15 -5 -4 -11 -3 -14 1 -2 5 -2 2 0 -5z"/>
<path d="M4500 3417 c12 -35 12 -40 1 -33 -5 3 -11 -4 -15 -17 -9 -34 -7 -44
9 -51 12 -4 13 -2 2 15 -10 17 -9 22 6 30 21 12 22 39 2 65 -14 18 -14 17 -5
-9z"/>
<path d="M4531 3414 c0 -11 3 -14 6 -6 3 7 2 16 -1 19 -3 4 -6 -2 -5 -13z"/>
<path d="M4457 3336 c-5 -13 -1 -24 13 -36 24 -21 15 -33 -14 -19 -19 9 -19 8
2 -7 12 -9 22 -21 22 -27 0 -8 -3 -8 -11 0 -21 21 -69 -11 -69 -44 1 -17 2
-17 15 1 8 11 24 21 35 23 18 3 20 -2 18 -39 -3 -38 -6 -43 -36 -50 -17 -5
-32 -13 -32 -18 0 -5 -13 -16 -30 -25 -16 -9 -30 -22 -30 -30 0 -8 -4 -15 -10
-15 -5 0 -10 -7 -10 -15 0 -9 -11 -28 -25 -43 -20 -21 -24 -33 -19 -56 5 -24
3 -28 -9 -23 -9 3 -18 1 -20 -6 -2 -7 -6 0 -9 15 -3 17 -1 25 5 21 6 -4 8 3 4
17 -3 13 -1 30 5 37 7 9 7 13 0 13 -6 0 -14 -5 -17 -10 -4 -6 -10 -8 -14 -5
-5 2 -13 -7 -19 -20 -7 -14 -18 -25 -27 -25 -8 0 -15 -7 -15 -15 0 -24 -31
-31 -46 -10 -13 18 -14 18 -14 -2 0 -12 5 -23 12 -25 17 -6 0 -28 -22 -28 -11
0 -26 -12 -34 -27 -12 -24 -12 -29 3 -41 15 -13 15 -13 -1 -8 -10 3 -18 0 -18
-6 0 -11 -29 -37 -41 -38 -4 0 -9 10 -13 23 -4 13 -9 18 -13 11 -13 -17 -41
-24 -47 -11 -2 7 -5 4 -5 -5 -1 -10 4 -18 11 -18 6 0 8 -3 5 -6 -4 -4 -13 -1
-21 5 -11 9 -20 10 -35 2 -40 -22 -127 -4 -92 18 7 5 10 14 7 20 -8 12 14 71
26 71 5 0 8 4 8 9 0 5 -8 8 -17 7 -10 0 -17 5 -15 12 1 7 -4 15 -12 18 -9 3
-12 12 -9 22 5 11 2 14 -10 9 -9 -3 -20 -1 -24 6 -10 16 -66 52 -75 49 -5 -1
-8 4 -8 10 0 7 -16 23 -35 36 -19 12 -35 18 -35 12 0 -5 4 -10 10 -10 12 0 1
-62 -12 -71 -6 -3 -9 -10 -8 -15 1 -5 -3 -10 -9 -12 -6 -2 -11 1 -11 7 0 15
-27 14 -32 -1 -5 -15 -49 -19 -65 -6 -8 7 -13 7 -13 1 0 -15 -40 -8 -51 8 -5
8 -9 11 -9 6 0 -4 -13 -1 -30 8 -16 8 -33 14 -37 13 -12 -2 -64 13 -92 28
l-26 14 28 0 c15 0 27 -6 27 -12 0 -9 4 -8 10 2 7 10 10 11 10 2 0 -9 7 -8 25
4 33 22 32 31 -7 40 -65 14 -100 5 -160 -41 -56 -45 -57 -45 -136 -45 -69 0
-86 4 -135 30 -59 31 -91 37 -102 19 -4 -6 1 -16 11 -24 11 -7 21 -9 22 -4 2
5 8 9 12 9 5 0 -1 -16 -13 -34 -12 -19 -26 -34 -32 -34 -16 2 -69 -25 -82 -42
-11 -13 -12 -12 -13 5 -1 15 -3 17 -8 5 -4 -8 -13 -15 -19 -16 -7 -1 -24 -2
-38 -2 -16 -1 -23 -7 -19 -16 5 -14 -22 -15 -63 -2 -14 4 -22 -4 -35 -33 -10
-20 -18 -51 -18 -67 0 -35 20 -84 35 -84 6 0 3 -5 -5 -10 -12 -8 -12 -12 -3
-18 10 -7 10 -12 0 -27 -17 -23 -67 -30 -67 -9 0 16 -16 19 -24 5 -4 -5 -14
-8 -24 -6 -9 1 -22 -2 -29 -7 -8 -6 -13 -2 -18 12 -5 15 -12 19 -25 15 -19 -6
-46 26 -33 39 3 3 -1 6 -10 6 -8 0 -18 8 -20 18 -4 16 -5 16 -6 0 0 -10 -6
-18 -11 -18 -6 0 -8 12 -5 28 3 15 2 21 -1 15 -7 -15 -34 -17 -34 -3 0 6 5 10
12 10 6 0 8 3 5 6 -4 4 -13 1 -22 -6 -13 -11 -15 -9 -15 11 0 18 -3 20 -12 11
-18 -18 -32 -14 -17 4 12 15 11 16 -11 11 -14 -4 -19 -4 -12 -1 21 10 13 26
-10 20 -13 -3 -17 -3 -10 0 22 10 13 25 -13 20 -13 -3 -24 -1 -22 3 3 11 -50
71 -57 64 -3 -4 -6 4 -6 18 0 13 -11 33 -24 44 -13 11 -24 23 -25 27 -1 4 -22
51 -46 103 -25 53 -45 101 -45 106 0 5 -4 9 -9 9 -5 0 -11 14 -15 32 -3 17 -9
29 -12 26 -8 -9 17 -98 28 -98 5 0 6 -9 3 -20 -4 -11 -2 -20 4 -20 6 0 8 -7 5
-15 -4 -9 1 -18 11 -21 12 -5 15 -14 10 -33 -3 -17 -2 -21 3 -13 7 11 10 10
16 -3 3 -9 4 -20 1 -25 -3 -5 11 -37 30 -72 19 -34 43 -78 52 -96 12 -23 19
-29 26 -20 5 9 7 4 4 -14 -2 -15 0 -25 4 -22 5 3 9 -5 9 -18 0 -13 4 -18 8
-13 4 6 16 11 27 13 19 2 19 1 -1 -13 -15 -11 -20 -23 -17 -36 5 -17 11 -20
37 -15 27 6 28 5 13 -7 -18 -13 -14 -53 4 -41 8 5 13 -9 10 -28 0 -5 4 -8 10
-8 5 0 7 -4 4 -10 -3 -6 1 -7 9 -4 12 5 16 -1 16 -22 0 -22 3 -26 10 -14 8 13
12 12 27 -4 17 -19 17 -19 0 -6 -16 12 -17 11 -8 -13 16 -40 35 -67 48 -67 7
0 13 -5 13 -10 0 -6 6 -10 13 -9 20 3 47 -12 47 -27 0 -8 7 -14 15 -14 17 0
96 -76 93 -89 -4 -13 52 -61 84 -73 16 -5 26 -14 23 -18 -3 -4 5 -10 18 -14
13 -3 39 -22 59 -42 20 -20 41 -33 47 -30 5 4 16 -2 23 -13 12 -17 138 -73
156 -69 14 3 62 -14 62 -22 0 -4 7 -11 16 -14 8 -3 12 -2 9 4 -8 13 -1 13 46
-2 24 -7 39 -17 39 -27 0 -11 3 -12 8 -4 9 14 125 3 156 -14 4 -3 29 -7 55 -9
25 -2 100 -8 166 -14 79 -6 156 -7 225 0 58 5 121 10 140 11 l35 1 -30 8 c-28
7 -29 8 -5 10 14 1 34 5 44 9 19 7 19 8 -2 13 -12 4 -20 3 -17 -1 2 -5 -7 -6
-20 -3 -26 5 -41 19 -31 29 3 3 12 0 21 -7 12 -10 18 -10 30 0 13 11 13 15 3
22 -10 6 -10 10 2 18 12 8 13 10 1 10 -20 0 -5 13 32 27 l32 12 -40 -5 c-39
-6 -40 -6 -17 11 12 9 30 15 40 14 29 -3 38 1 23 10 -12 7 -6 14 24 28 21 10
54 33 73 51 20 17 40 32 44 32 4 0 8 7 8 16 0 8 4 13 9 9 5 -3 15 1 23 8 7 7
26 22 41 32 15 10 26 20 23 22 -2 3 9 19 26 36 47 49 88 108 88 127 0 10 10
20 22 23 17 5 19 9 10 20 -10 11 -5 21 23 50 19 20 35 45 35 57 0 11 5 20 10
20 6 0 10 6 10 14 0 8 6 21 13 28 21 22 60 115 53 127 -4 6 0 11 9 11 9 0 13
5 10 10 -3 6 0 10 7 10 10 0 9 3 -2 10 -12 8 -12 10 2 15 20 8 68 125 68 168
0 9 5 17 10 17 15 0 12 21 -7 42 -9 11 -11 18 -5 18 7 0 12 11 12 25 0 14 4
25 9 25 6 0 7 -16 4 -37 -5 -28 -3 -34 7 -28 8 5 11 21 7 46 -4 28 -2 37 6 33
7 -3 3 2 -7 10 -12 10 -15 16 -7 16 8 0 11 6 7 16 -5 14 -4 15 9 4 25 -21 6
20 -21 46 -12 12 -24 30 -26 40 -3 18 -4 18 -11 0z m-57 -266 c-12 -10 -17
-21 -11 -24 6 -4 7 -14 4 -22 -7 -19 -20 -7 -25 23 -3 23 44 73 50 53 2 -6 -6
-19 -18 -30z m65 20 c-3 -5 -10 -10 -16 -10 -5 0 -9 5 -9 10 0 6 7 10 16 10 8
0 12 -4 9 -10z m-1265 -74 c0 -2 -7 -7 -16 -10 -8 -3 -12 -2 -9 4 6 10 25 14
25 6z m1130 -51 c0 -21 -17 -27 -24 -9 -10 25 -7 34 9 28 8 -4 15 -12 15 -19z
m-35 -15 c3 -5 1 -10 -4 -10 -6 0 -11 5 -11 10 0 6 2 10 4 10 3 0 8 -4 11 -10z
m-940 -230 c-8 12 -3 13 29 0 18 -7 26 -6 26 1 0 8 5 7 15 -1 9 -7 27 -10 44
-7 20 4 34 0 50 -14 25 -23 25 -28 6 -52 -7 -11 -11 -26 -7 -35 5 -15 4 -15
-11 -3 -13 10 -23 11 -40 4 -45 -21 -156 -37 -282 -39 -144 -4 -158 -5 -198
-22 -35 -15 -77 -16 -77 -2 0 6 -16 10 -35 10 -22 0 -43 8 -55 20 -26 26 -25
38 5 46 13 3 30 13 36 21 23 27 79 44 115 34 18 -5 35 -6 39 -3 12 12 169 11
184 -1 12 -10 14 -9 8 6 -5 13 -1 17 17 17 14 0 27 -6 29 -12 3 -8 6 -6 6 5 1
10 9 17 20 17 11 0 22 4 26 10 4 6 15 6 31 0 17 -7 23 -7 19 0z m-1195 -20
c-8 -5 -19 -10 -25 -10 -5 0 -3 5 5 10 8 5 20 10 25 10 6 0 3 -5 -5 -10z
m1570 -634 c0 -2 -7 -7 -16 -10 -8 -3 -12 -2 -9 4 6 10 25 14 25 6z"/>
<path d="M4515 3300 c-3 -5 -1 -10 4 -10 6 0 11 5 11 10 0 6 -2 10 -4 10 -3 0
-8 -4 -11 -10z"/>
<path d="M4397 3161 c-4 -17 -3 -21 5 -13 5 5 8 16 6 23 -3 8 -7 3 -11 -10z"/>
<path d="M4120 2960 c-9 -6 -10 -10 -3 -10 6 0 15 5 18 10 8 12 4 12 -15 0z"/>
<path d="M3815 2790 c3 -5 8 -10 11 -10 2 0 4 5 4 10 0 6 -5 10 -11 10 -5 0
-7 -4 -4 -10z"/>
<path d="M2260 2430 c0 -5 5 -10 11 -10 5 0 7 5 4 10 -3 6 -8 10 -11 10 -2 0
-4 -4 -4 -10z"/>
<path d="M4417 2330 c3 -11 7 -20 9 -20 2 0 4 9 4 20 0 11 -4 20 -9 20 -5 0
-7 -9 -4 -20z"/>
<path d="M3818 2013 c7 -3 16 -2 19 1 4 3 -2 6 -13 5 -11 0 -14 -3 -6 -6z"/>
</g>
</svg>
