<?xml version="1.0" standalone="no"?>
<!DOCTYPE svg PUBLIC "-//W3C//DTD SVG 20010904//EN"
 "http://www.w3.org/TR/2001/REC-SVG-20010904/DTD/svg10.dtd">
<svg version="1.0" xmlns="http://www.w3.org/2000/svg"
 width="1476.000000pt" height="1480.000000pt" viewBox="0 0 1476.000000 1480.000000"
 preserveAspectRatio="xMidYMid meet">

<g transform="translate(0.000000,1480.000000) scale(0.100000,-0.100000)"
fill="#000000" stroke="none">
<path d="M6730 12963 c14 -3 29 -8 33 -12 11 -11 -125 -8 -141 3 -9 5 -18 3
-25 -4 -9 -10 -9 -14 1 -17 18 -7 15 -20 -8 -26 -13 -3 -18 -10 -14 -21 7 -17
-11 -22 -21 -6 -3 6 -17 10 -30 10 -13 0 -26 4 -29 9 -9 15 -56 20 -56 6 0
-10 -43 -12 -201 -8 -136 4 -200 2 -195 -5 4 -6 -28 -13 -87 -18 -118 -11
-139 -14 -187 -31 -8 -3 -89 -6 -179 -8 -138 -2 -165 -4 -172 -18 -6 -11 -30
-18 -69 -23 -53 -6 -58 -8 -43 -20 17 -13 17 -13 -3 -14 -11 0 -24 -3 -28 -7
-3 -4 -12 -8 -19 -9 -7 -1 -39 -9 -73 -17 -34 -9 -72 -14 -85 -11 -24 5 -24 5
-1 -5 12 -6 22 -13 22 -16 0 -13 -95 -45 -133 -45 -36 0 -45 -5 -64 -33 -13
-18 -23 -38 -23 -44 0 -6 -26 -14 -57 -17 -32 -3 -65 -6 -73 -7 -16 -2 -60
-29 -47 -29 5 0 1 -10 -7 -21 -8 -12 -12 -28 -9 -36 4 -9 -2 -16 -16 -20 -13
-3 -21 -13 -21 -26 0 -16 -3 -18 -12 -9 -7 7 -19 12 -27 12 -13 0 -13 -2 -2
-9 17 -11 -2 -24 -39 -26 -82 -4 -90 -6 -90 -20 0 -8 -7 -15 -15 -15 -8 0 -15
-4 -15 -8 0 -9 -59 -32 -83 -32 -10 0 -14 -6 -11 -14 3 -8 -7 -18 -26 -26 -17
-7 -35 -21 -41 -31 -5 -11 -16 -19 -24 -19 -8 0 -12 -6 -10 -13 3 -7 -8 -18
-25 -25 -39 -18 -39 -33 0 -25 28 5 30 4 30 -26 0 -20 -4 -30 -11 -26 -6 4
-16 -1 -23 -11 -8 -11 -21 -15 -35 -11 -11 3 -21 1 -21 -5 0 -6 -6 -8 -14 -5
-8 3 -17 0 -20 -8 -3 -9 0 -12 10 -8 7 3 14 1 14 -3 0 -5 -15 -15 -32 -22 -18
-7 -53 -22 -78 -33 l-44 -21 24 -19 c14 -10 19 -19 13 -19 -7 0 -13 -8 -13
-18 0 -21 -59 -82 -79 -82 -8 0 -11 -7 -8 -19 3 -15 -7 -28 -43 -52 -27 -18
-46 -37 -44 -41 3 -5 -2 -11 -10 -14 -9 -3 -14 -10 -11 -14 2 -4 -9 -36 -26
-70 -24 -50 -28 -65 -17 -71 10 -7 9 -9 -3 -9 -10 0 -17 -8 -17 -22 0 -13 -15
-39 -33 -59 -19 -19 -41 -49 -49 -65 -8 -16 -22 -41 -32 -56 -17 -25 -17 -27
-1 -30 15 -3 16 -4 0 -20 -9 -9 -17 -23 -17 -32 0 -8 -12 -28 -26 -45 -21 -25
-24 -34 -14 -46 9 -11 7 -21 -10 -45 -17 -23 -20 -34 -11 -43 16 -16 14 -73
-4 -106 -8 -16 -11 -31 -8 -34 3 -4 1 -12 -4 -19 -10 -12 -19 -45 -27 -95 -3
-13 -12 -30 -21 -39 -9 -9 -12 -20 -7 -23 18 -12 22 -79 5 -92 -11 -10 -14
-25 -10 -59 4 -33 1 -50 -10 -63 -22 -23 -8 -35 16 -13 19 17 20 17 34 -6 27
-43 29 -78 7 -149 -12 -38 -26 -71 -31 -74 -5 -4 -9 -13 -9 -21 0 -11 6 -13
21 -9 21 7 22 5 16 -55 -4 -46 -1 -72 10 -96 14 -29 14 -35 1 -56 -8 -13 -18
-31 -21 -41 -6 -15 -3 -17 13 -12 22 7 26 -6 10 -35 -7 -13 -5 -27 6 -49 17
-34 39 -33 28 1 -4 14 -2 18 5 14 18 -12 14 -66 -6 -66 -15 0 -15 -1 1 -19 13
-14 15 -28 10 -60 -5 -32 -3 -46 11 -61 9 -10 14 -23 11 -29 -9 -14 15 -102
36 -130 10 -13 18 -36 18 -50 0 -15 6 -36 14 -47 8 -11 14 -36 14 -55 -1 -46
46 -213 77 -273 14 -27 25 -56 25 -63 0 -7 14 -40 30 -73 31 -62 37 -94 20
-105 -7 -4 -7 -11 -2 -18 5 -7 13 -38 16 -69 7 -56 7 -58 -16 -58 -13 0 -29
-9 -35 -19 -12 -20 -44 -19 -70 2 -10 7 -13 3 -14 -14 0 -13 -2 -31 -3 -39
-18 -91 -21 -507 -6 -641 6 -52 11 -165 11 -251 0 -140 3 -160 20 -182 20 -26
26 -66 8 -66 -5 0 -7 -5 -3 -11 3 -6 2 -14 -4 -18 -25 -15 -17 -83 14 -120 14
-17 23 -38 20 -46 -3 -9 0 -15 9 -15 8 0 14 -3 14 -7 -5 -29 3 -41 21 -36 18
5 19 3 10 -21 -8 -23 -7 -26 10 -26 18 0 20 -7 20 -65 0 -37 -4 -65 -10 -65
-5 0 -10 -12 -9 -27 0 -25 1 -26 9 -8 8 18 9 17 9 -6 1 -14 13 -39 28 -55 24
-25 28 -38 29 -91 0 -34 6 -68 12 -75 6 -7 10 -42 11 -78 0 -36 5 -66 10 -68
6 -2 11 -21 11 -43 0 -32 3 -37 16 -32 14 5 16 2 10 -20 -3 -14 -2 -28 3 -31
4 -3 12 -38 15 -77 8 -75 14 -95 45 -144 11 -16 20 -40 20 -52 1 -27 41 -115
57 -125 6 -4 17 -28 24 -52 7 -25 21 -54 31 -65 10 -11 19 -24 19 -30 0 -5 3
-11 8 -14 4 -2 1 -2 -5 -1 -18 5 -16 -9 5 -32 10 -10 21 -27 25 -36 3 -10 13
-18 21 -18 7 0 13 -6 12 -12 -2 -24 57 -128 73 -128 17 0 47 -38 43 -55 -1 -5
27 -35 63 -65 35 -30 67 -63 70 -73 4 -9 10 -15 15 -12 5 3 15 -3 22 -15 7
-11 20 -20 29 -20 9 0 28 -11 42 -24 15 -14 37 -28 49 -31 33 -10 87 -65 81
-81 -3 -8 1 -14 11 -14 9 0 16 -6 16 -12 0 -14 -26 -56 -50 -80 -8 -9 -24 -28
-35 -43 -11 -15 -29 -31 -41 -36 -13 -4 -38 -37 -60 -79 -20 -39 -59 -94 -86
-122 -33 -34 -51 -63 -58 -92 -5 -22 -22 -66 -38 -96 -17 -30 -33 -77 -37
-105 -4 -27 -15 -59 -26 -71 -29 -31 -30 -206 -1 -289 11 -33 24 -103 27 -155
9 -120 45 -260 67 -260 5 0 5 -12 2 -26 -5 -20 -3 -25 7 -22 22 7 23 48 2 63
-17 13 -16 14 10 15 21 0 27 -5 27 -21 0 -11 -4 -29 -10 -39 -7 -13 -6 -21 5
-30 8 -7 15 -19 15 -28 0 -8 8 -21 17 -28 16 -11 16 -15 4 -36 -13 -21 -13
-22 3 -9 11 9 16 24 13 38 -3 15 1 23 9 23 8 0 17 0 22 0 4 0 10 -35 13 -77 7
-94 33 -194 56 -210 12 -9 13 -16 5 -26 -9 -10 -8 -19 3 -34 8 -11 12 -23 9
-26 -18 -17 98 -276 206 -462 26 -44 60 -102 75 -130 16 -27 30 -44 33 -37 2
7 0 20 -4 30 -10 22 -11 29 -13 80 0 23 -6 42 -12 42 -6 0 -8 -9 -4 -20 3 -11
2 -20 -3 -20 -5 0 -12 12 -14 27 -3 16 -7 35 -10 43 -3 8 -3 11 0 7 2 -4 15
-1 28 8 22 14 25 14 30 0 8 -19 24 -9 24 15 0 13 5 17 15 14 8 -4 15 -1 15 5
0 14 37 15 45 1 3 -5 10 -10 16 -10 14 0 11 20 -3 20 -7 0 -22 8 -33 17 -19
15 -19 15 8 9 33 -8 71 10 63 29 -3 8 0 17 6 21 6 4 8 3 4 -4 -3 -6 5 -19 19
-30 14 -11 25 -27 25 -36 0 -9 5 -16 11 -16 7 0 9 10 5 25 -5 20 -3 25 14 25
12 0 20 -7 20 -17 0 -22 6 -14 14 20 5 20 3 27 -8 27 -16 0 -31 18 -23 27 3 3
15 -4 27 -15 12 -11 40 -24 61 -27 22 -4 39 -10 39 -15 0 -12 28 -20 46 -13
16 6 16 7 0 18 -15 11 -14 13 7 17 20 4 23 1 19 -24 -3 -20 -10 -28 -25 -28
-11 0 -17 -3 -14 -7 13 -13 82 -3 94 13 6 9 17 13 23 9 6 -4 19 0 28 8 20 18
52 24 70 14 8 -6 12 -2 12 12 0 12 -7 21 -15 21 -8 0 -15 5 -15 10 0 6 7 10
15 10 8 0 15 -4 15 -10 0 -5 7 -10 15 -10 8 0 15 -8 15 -17 0 -15 -2 -16 -10
-3 -10 15 -10 11 -16 -101 0 -19 -7 -46 -14 -59 -7 -14 -14 -50 -16 -80 -2
-35 -12 -73 -27 -104 -14 -26 -23 -55 -20 -63 7 -17 16 1 56 117 30 86 39 125
72 308 25 140 54 242 85 305 l18 37 -30 0 c-23 0 -29 4 -24 16 3 9 6 18 6 20
0 2 15 4 34 4 25 0 53 13 98 45 76 54 399 219 521 266 59 23 107 49 141 79 29
25 63 52 76 60 61 41 199 142 231 169 20 17 41 31 46 31 5 0 27 18 48 41 22
22 61 57 87 77 43 32 46 37 33 52 -8 9 -15 22 -15 28 0 17 21 15 35 -5 12 -17
26 -5 108 91 10 12 48 53 86 91 110 114 290 330 435 522 74 98 147 185 163
193 33 18 56 40 79 77 36 56 110 149 161 203 29 30 53 59 53 64 0 8 49 73 86
113 11 12 31 43 45 70 13 26 38 60 54 76 17 16 24 26 18 22 -7 -3 -14 0 -14 7
-2 24 3 53 11 58 4 3 13 16 20 30 12 23 14 24 21 5 5 -16 7 -13 6 12 0 44 20
88 70 154 36 48 43 65 49 122 5 48 11 67 21 67 10 0 12 6 8 19 -3 11 3 35 15
55 11 20 20 43 20 51 0 8 6 15 13 15 8 0 7 4 -3 10 -10 6 -11 10 -2 10 7 0 12
15 12 39 0 22 5 43 10 46 6 3 10 17 10 30 0 13 5 27 10 30 6 3 10 17 10 31 0
13 5 24 10 24 6 0 10 5 10 12 0 9 -3 9 -12 0 -16 -16 -31 -15 -21 1 4 6 9 21
10 32 2 11 8 22 13 23 6 2 10 21 10 43 0 32 5 43 28 57 21 13 27 24 25 47 l-2
30 11 -32 c6 -18 17 -33 24 -33 16 0 19 16 4 25 -5 3 -10 16 -10 29 0 12 -6
28 -12 35 -11 10 -10 11 4 6 16 -6 17 -2 12 41 -3 27 -7 57 -9 67 -2 10 3 17
12 17 12 0 13 12 7 70 -5 52 -3 74 7 86 11 13 11 17 -3 25 -20 11 -12 56 13
64 15 5 17 13 12 38 -7 40 -12 45 -24 27 -8 -11 -9 -4 -4 25 4 22 11 42 16 45
5 3 9 29 10 58 1 28 6 49 10 46 12 -7 99 55 99 72 0 4 6 12 14 18 8 6 28 38
46 71 24 45 34 81 41 145 10 99 4 151 -17 143 -13 -5 -20 20 -15 50 1 5 -4 5
-11 1 -21 -13 -50 -12 -55 3 -3 7 -11 13 -19 13 -8 0 -14 7 -14 15 0 8 -7 15
-15 15 -9 0 -15 9 -15 25 0 27 -29 45 -73 45 -40 0 -45 12 -51 115 -4 63 -2
91 3 75 7 -20 9 -14 10 33 1 44 6 61 21 75 75 65 203 202 229 245 12 20 26 37
31 37 5 0 6 15 3 34 -3 19 -1 36 6 40 6 4 11 25 11 47 0 26 7 47 20 61 10 11
24 46 30 77 6 31 18 82 26 115 9 32 13 68 10 80 -3 13 3 39 14 61 19 37 21 71
5 107 -8 20 1 38 19 38 10 0 12 12 8 45 -3 35 -1 46 12 51 11 4 16 19 16 50 0
24 4 44 9 44 5 0 9 17 9 38 1 68 9 277 11 277 2 0 4 42 6 94 3 51 9 99 16 107
7 9 9 32 4 66 -7 56 -16 138 -34 303 -6 55 -15 122 -20 149 -4 27 -6 69 -3 95
5 42 4 45 -12 32 -9 -8 -20 -11 -23 -7 -4 4 -2 10 4 14 16 10 0 82 -21 98 -22
16 -20 27 3 15 10 -6 21 -7 25 -4 3 3 6 -1 6 -11 0 -10 7 -24 15 -32 27 -27
16 3 -21 57 -20 30 -47 75 -61 101 -13 26 -31 52 -39 58 -16 14 -44 68 -44 87
0 22 17 15 24 -9 7 -31 35 -46 74 -40 30 4 33 7 27 31 -10 41 -10 43 0 47 15
5 78 -133 80 -175 0 -20 5 -36 10 -36 6 0 16 -4 22 -8 9 -6 11 -3 7 7 -3 9
-11 16 -16 16 -6 0 -8 6 -5 13 9 23 -19 119 -50 177 -40 73 -130 203 -148 213
-8 4 -12 14 -9 21 3 8 -9 25 -30 41 -29 22 -38 24 -55 15 -18 -9 -21 -8 -21 9
0 11 5 23 10 26 6 3 10 -2 10 -12 1 -17 1 -17 11 -1 9 17 -6 58 -22 58 -4 0
-22 14 -40 31 -17 16 -40 34 -51 40 -10 5 -18 19 -18 30 0 11 -7 22 -15 25
-19 8 -19 22 0 26 11 2 12 7 4 18 -8 11 -12 12 -16 3 -7 -19 -18 -16 -53 17
-20 19 -39 28 -50 25 -25 -8 -50 5 -50 25 0 11 -5 22 -10 25 -6 4 -8 11 -4 16
6 10 -102 139 -117 139 -13 0 2 -32 28 -58 27 -27 29 -38 7 -46 -8 -3 -12 -2
-9 4 3 6 -4 15 -17 20 -13 5 -41 22 -63 37 l-40 26 33 -37 c17 -20 32 -43 32
-50 0 -13 34 -30 53 -27 5 1 6 -3 2 -9 -3 -6 1 -17 10 -26 15 -15 15 -18 0
-35 -9 -9 -23 -15 -31 -12 -16 6 -19 23 -4 23 6 0 10 7 10 16 0 11 -8 15 -27
12 -18 -2 -27 2 -25 10 1 6 -2 12 -8 12 -5 0 -10 -4 -10 -10 0 -5 -7 -10 -15
-10 -28 0 -52 95 -32 127 4 6 4 19 0 29 -4 10 -2 15 3 11 6 -3 8 8 6 29 -2 19
-8 36 -12 39 -14 9 -41 -7 -51 -29 -9 -21 -10 -21 -5 1 2 13 -4 29 -14 38 -9
8 -17 29 -18 45 0 16 -4 35 -9 42 -4 7 -8 18 -8 23 0 6 -12 9 -27 7 -24 -3
-28 1 -34 33 -4 24 -2 40 6 48 10 9 11 9 6 0 -5 -9 0 -13 13 -13 11 0 25 -8
30 -19 6 -10 24 -21 41 -24 27 -6 36 -20 31 -51 -1 -5 5 -6 14 -3 9 4 15 1 15
-8 0 -8 9 -15 20 -15 15 0 19 4 13 14 -17 29 -71 84 -89 91 -11 4 -41 33 -69
65 -60 70 -78 81 -69 42 4 -16 3 -23 -2 -19 -5 5 -9 12 -10 15 -4 56 -58 127
-123 161 -11 7 -21 19 -21 28 0 13 -3 13 -15 3 -13 -10 -19 -10 -35 5 -11 10
-20 26 -20 35 0 17 -18 40 -33 40 -11 0 2 -43 17 -52 6 -4 7 -10 3 -14 -4 -4
-17 4 -29 18 -13 14 -48 36 -78 49 -30 13 -60 30 -66 38 -7 9 -16 11 -25 6 -8
-5 -11 -5 -7 0 9 9 -9 35 -24 35 -6 0 -5 -7 2 -15 10 -12 9 -15 -6 -15 -11 0
-36 5 -56 11 -38 10 -49 24 -25 32 6 2 -3 6 -20 9 -18 2 -33 1 -33 -4 0 -4 6
-8 12 -8 7 0 2 -7 -10 -16 -22 -15 -47 -11 -36 7 7 12 -57 39 -95 39 -17 0
-34 6 -38 13 -4 8 -22 19 -40 25 -28 9 -31 8 -26 -5 4 -9 2 -14 -3 -11 -5 3
-31 15 -57 27 -26 12 -51 28 -54 36 -3 8 -10 15 -15 15 -6 0 -4 -7 3 -16 12
-15 10 -16 -18 -10 -19 4 -34 3 -38 -3 -8 -14 -49 -4 -97 23 -30 17 -41 19
-56 9 -15 -9 -25 -9 -44 1 -30 16 -98 27 -98 17 0 -4 12 -13 26 -20 15 -6 24
-14 21 -17 -9 -9 -67 26 -67 41 0 9 -6 12 -15 9 -8 -3 -31 3 -50 15 -20 12
-51 20 -68 20 -27 -2 -28 -2 -7 -6z m-590 -88 c25 -14 24 -14 -17 -15 -40 0
-60 10 -46 24 10 10 36 6 63 -9z m143 8 c-7 -2 -21 -2 -30 0 -10 3 -4 5 12 5
17 0 24 -2 18 -5z m-773 -67 c0 -11 -19 -15 -25 -6 -3 5 1 10 9 10 9 0 16 -2
16 -4z m-70 -16 c0 -5 -5 -10 -11 -10 -5 0 -7 5 -4 10 3 6 8 10 11 10 2 0 4
-4 4 -10z m2187 -56 c-3 -3 -12 -4 -19 -1 -8 3 -5 6 6 6 11 1 17 -2 13 -5z
m510 -250 c-9 -9 -28 6 -21 18 4 6 10 6 17 -1 6 -6 8 -13 4 -17z m-3762 -234
c-3 -5 -12 -10 -18 -10 -7 0 -6 4 3 10 19 12 23 12 15 0z m-65 -94 c0 -3 -4
-8 -10 -11 -5 -3 -10 -1 -10 4 0 6 5 11 10 11 6 0 10 -2 10 -4z m674 -152 c27
-30 47 -56 45 -59 -6 -5 -119 98 -119 108 0 19 30 -1 74 -49z m3361 46 c3 -5
1 -10 -4 -10 -6 0 -11 5 -11 10 0 6 2 10 4 10 3 0 8 -4 11 -10z m39 -36 c16
-43 -5 -100 -28 -77 -9 10 -7 43 3 43 4 0 6 11 3 25 -5 27 12 35 22 9z m556
-409 c10 -12 10 -15 -3 -15 -8 0 -20 7 -27 15 -10 12 -10 15 3 15 8 0 20 -7
27 -15z m-5103 -27 c-3 -8 -6 -5 -6 6 -1 11 2 17 5 13 3 -3 4 -12 1 -19z
m5067 1 c-3 -5 -10 -7 -15 -3 -5 3 -7 10 -3 15 3 5 10 7 15 3 5 -3 7 -10 3
-15z m179 -250 c-8 -8 -16 -2 -31 19 -28 38 -15 50 17 17 18 -18 22 -28 14
-36z m-37 -24 c23 -22 59 -114 48 -124 -4 -3 -8 -1 -11 5 -11 32 -76 120 -93
126 -11 4 -20 14 -20 22 0 13 4 14 28 4 15 -7 37 -21 48 -33z m78 -300 c3 -8
1 -15 -3 -15 -5 0 -11 7 -15 15 -3 8 -1 15 3 15 5 0 11 -7 15 -15z m-1914
-675 c0 -5 -2 -10 -4 -10 -3 0 -8 5 -11 10 -3 6 -1 10 4 10 6 0 11 -4 11 -10z
m148 -82 c1 -22 -4 -51 -9 -66 -7 -17 -6 -29 1 -36 7 -7 10 -6 10 2 0 7 5 12
11 12 6 0 19 10 29 23 22 26 36 18 20 -12 -9 -17 -8 -21 5 -21 8 0 15 -4 15
-10 0 -13 -6 -13 -30 0 -25 14 -41 -8 -44 -65 -3 -39 1 -51 23 -74 14 -15 38
-32 54 -39 43 -18 32 -32 -27 -32 -54 0 -54 0 -43 -25 7 -14 18 -25 25 -25 15
0 16 -12 0 -28 -18 -18 10 -16 46 3 16 9 37 13 48 10 10 -4 18 -1 18 5 0 6 4
9 9 5 5 -3 12 -2 15 3 2 4 32 9 66 10 54 2 62 0 67 -17 3 -10 13 -21 24 -24
11 -3 19 -14 19 -25 0 -17 5 -19 45 -15 24 3 52 2 62 -2 10 -5 21 -7 26 -7 4
1 7 -2 7 -6 0 -4 15 -24 33 -44 45 -50 73 -84 97 -118 12 -16 27 -27 34 -24 8
3 25 -12 43 -38 16 -23 40 -48 53 -55 14 -7 32 -21 41 -32 9 -11 19 -17 23
-14 8 8 55 -45 67 -76 6 -14 15 -21 24 -17 8 3 14 2 14 -2 -3 -19 2 -25 11
-12 8 12 10 11 10 -8 0 -14 9 -27 25 -34 16 -7 25 -19 25 -35 0 -26 12 -30 30
-8 16 19 30 19 30 1 0 -7 7 -37 17 -65 12 -37 19 -48 28 -41 16 14 27 0 14
-17 -9 -10 -8 -18 5 -32 9 -10 17 -34 18 -54 1 -20 4 -35 7 -33 3 2 7 -12 8
-32 2 -21 7 -57 12 -82 6 -25 12 -67 15 -95 3 -27 8 -66 11 -85 3 -19 13 -75
21 -125 8 -49 21 -119 29 -155 8 -36 22 -101 31 -145 27 -135 45 -227 58 -295
20 -105 8 -415 -15 -379 -15 24 -22 -18 -11 -62 9 -35 8 -43 -9 -60 -10 -10
-19 -26 -19 -34 0 -8 -5 -15 -11 -15 -8 0 -10 -12 -6 -36 4 -24 1 -44 -9 -60
-9 -13 -13 -28 -9 -33 4 -7 0 -8 -11 -4 -13 5 -15 2 -9 -17 4 -14 3 -25 -5
-30 -8 -5 -9 -13 -4 -21 12 -20 14 -39 3 -39 -6 0 -7 -4 -4 -10 3 -5 1 -10 -6
-10 -6 0 -9 8 -6 20 3 11 2 22 -3 25 -8 5 -20 -52 -20 -97 0 -20 -4 -26 -15
-22 -12 5 -15 -3 -15 -39 0 -52 -23 -82 -35 -45 -7 21 -8 22 -12 4 -3 -11 2
-25 11 -31 19 -15 21 -31 3 -42 -7 -4 -19 -30 -26 -58 -22 -90 -24 -105 -11
-105 8 0 11 -13 8 -40 -2 -22 0 -40 4 -40 5 0 8 -13 8 -30 0 -21 -5 -30 -16
-30 -8 0 -12 -5 -9 -10 4 -6 11 -8 16 -5 5 4 9 -1 9 -9 0 -9 -5 -16 -11 -16
-6 0 -8 -8 -4 -19 4 -13 0 -23 -11 -29 -14 -8 -17 -22 -16 -63 0 -30 -5 -65
-12 -78 l-13 -24 -13 22 c-9 18 -9 32 4 71 20 61 20 66 0 49 -13 -10 -17 -10
-24 1 -7 11 -13 6 -25 -20 -29 -62 -42 -82 -49 -71 -4 5 -2 18 3 28 11 19 25
74 23 85 -1 4 7 10 18 13 11 4 20 13 20 21 0 16 -16 19 -25 4 -3 -5 -11 -10
-16 -10 -6 0 -7 5 -4 10 3 6 1 10 -6 10 -8 0 -8 4 1 15 10 13 9 15 -9 15 -18
0 -22 -6 -21 -35 0 -3 -12 -17 -27 -30 l-28 -24 32 -1 c17 0 33 6 36 13 2 6 7
9 11 6 8 -7 -25 -89 -36 -89 -5 0 -7 -8 -4 -18 5 -14 -4 -24 -35 -40 -22 -12
-42 -22 -43 -22 -2 0 -1 34 0 75 2 41 0 75 -4 75 -15 0 -32 -24 -32 -44 0 -10
-3 -16 -7 -12 -14 13 -11 40 6 65 34 52 40 76 29 122 -13 52 -50 94 -74 85
-10 -4 -14 -13 -11 -26 3 -11 1 -23 -4 -26 -15 -9 -11 -81 6 -88 9 -3 12 -12
8 -22 -5 -15 -7 -15 -15 0 -5 9 -13 14 -19 11 -5 -4 -9 8 -9 25 0 27 -3 30
-20 25 -11 -4 -20 -2 -20 4 0 6 -6 11 -14 11 -19 0 -30 31 -14 42 10 8 10 11
1 15 -18 7 -16 21 5 26 10 3 6 5 -11 6 -16 1 -30 -5 -33 -13 -3 -8 -12 -12
-20 -9 -9 3 -14 -2 -14 -15 0 -35 11 -52 35 -52 26 0 36 -18 28 -51 l-6 -23
-9 23 c-4 12 -13 19 -18 16 -7 -4 -7 -12 -2 -18 4 -7 8 -18 8 -24 -1 -15 -20
-18 -22 -3 -1 6 -3 13 -4 18 -1 4 -2 10 -2 14 2 12 -30 32 -54 33 -26 1 -32
-10 -10 -18 10 -4 13 -16 11 -34 -2 -15 -4 -34 -4 -41 -2 -25 -21 -1 -21 26 0
15 -7 40 -15 56 -8 15 -15 36 -16 45 0 13 -2 12 -8 -3 -9 -23 -2 -66 10 -66 5
0 9 -10 9 -22 0 -20 -1 -20 -18 -5 -10 10 -22 14 -27 10 -4 -5 -5 1 -1 12 6
17 5 18 -6 7 -11 -11 -9 -16 7 -30 21 -17 31 -62 14 -62 -5 0 -9 7 -9 15 0 8
-4 15 -10 15 -5 0 -10 7 -10 15 0 18 -20 20 -20 3 0 -7 -9 -24 -20 -38 -18
-23 -20 -23 -20 -5 0 18 -2 17 -13 -4 -18 -37 -36 -37 -43 -2 -9 43 -24 49
-24 11 0 -17 -5 -40 -10 -50 -7 -13 -7 -21 0 -25 5 -3 10 -1 10 6 0 7 3 10 6
6 3 -3 3 -10 -1 -16 -7 -13 -65 13 -65 29 0 6 -4 10 -10 10 -5 0 -7 -7 -4 -15
4 -8 1 -15 -6 -15 -7 0 -10 -6 -7 -14 4 -11 -2 -13 -26 -10 -17 2 -34 -1 -38
-7 -5 -8 -12 -8 -27 0 -14 7 -23 8 -27 1 -12 -20 -24 -9 -32 28 -4 20 -6 43
-4 51 1 7 -2 10 -7 7 -12 -7 -23 31 -15 52 6 13 8 13 14 -4 7 -17 8 -17 8 -1
1 10 9 17 22 17 11 0 18 4 15 9 -6 9 52 71 67 71 4 0 17 -5 28 -10 13 -7 19
-7 19 0 0 5 7 10 15 10 14 0 20 17 16 48 -1 6 6 12 15 12 10 0 14 5 10 15 -3
9 0 15 10 15 11 0 14 6 10 16 -3 9 -2 12 5 9 5 -4 17 -4 26 -1 14 6 14 8 -3
21 -18 13 -18 14 -2 20 10 4 16 11 13 15 -3 5 -1 20 5 34 5 14 8 26 6 26 -3 0
-12 3 -20 6 -12 5 -15 2 -10 -10 3 -9 1 -16 -6 -16 -6 0 -11 -10 -10 -22 3
-38 0 -58 -8 -58 -11 0 -9 81 2 99 8 12 2 13 -30 8 -23 -4 -33 -3 -25 2 9 6
10 11 2 15 -6 4 -14 0 -17 -9 -5 -12 -9 -13 -20 -4 -8 6 -14 18 -14 26 0 7 -7
16 -15 19 -8 3 -17 14 -20 24 -5 15 -15 19 -44 17 -46 -1 -76 21 -54 41 13 13
14 12 17 -10 0 -7 9 -14 18 -16 13 -2 16 1 12 12 -4 10 0 18 10 22 22 9 34 -5
16 -16 -9 -6 -10 -10 -3 -10 16 0 24 15 17 34 -4 11 -14 14 -35 9 -16 -3 -35
-1 -41 5 -7 5 -28 9 -45 7 -20 -2 -33 2 -33 9 0 6 -14 23 -30 38 l-30 26 27
11 c25 10 24 11 -14 6 -26 -3 -43 -1 -43 5 0 5 5 10 10 10 6 0 5 6 -2 14 -8 8
-15 10 -19 4 -3 -5 -9 -2 -13 7 -4 11 -12 15 -22 11 -18 -7 -77 51 -101 99 -8
17 -20 40 -26 53 -7 12 -21 22 -33 22 -13 0 -24 8 -27 20 -4 16 -14 20 -50 20
-38 0 -47 -4 -52 -21 -6 -17 -9 -18 -16 -8 -4 7 -10 11 -12 9 -8 -10 -16 -80
-8 -80 4 0 5 -16 3 -37 -4 -29 -2 -35 11 -30 17 6 59 -27 70 -57 4 -11 2 -25
-5 -34 -11 -13 -14 -11 -20 14 -6 25 -7 24 -5 -8 2 -21 -2 -38 -8 -39 -5 0 -4
-3 3 -6 16 -6 15 -24 -4 -51 -16 -23 -16 -23 -30 -4 -8 11 -12 26 -11 34 2 7
2 10 0 6 -8 -14 -23 -8 -23 9 0 13 -3 14 -12 5 -10 -10 -10 -17 0 -32 10 -17
10 -20 -3 -20 -8 0 -15 -4 -15 -10 0 -21 -19 -9 -31 19 -10 23 -17 27 -26 19
-15 -12 -52 26 -53 54 0 17 -37 30 -75 25 -16 -2 -21 5 -23 31 -2 24 1 32 12
32 9 0 16 5 16 11 0 7 11 9 26 6 16 -3 28 0 31 9 3 8 11 14 19 14 8 0 14 9 14
19 0 10 7 21 15 25 8 3 15 17 15 31 0 14 5 25 12 25 6 0 2 9 -10 20 -27 26
-32 25 -32 -2 -1 -54 -70 -99 -155 -102 -35 -2 -62 1 -60 5 6 8 -19 19 -46 19
-10 0 -19 5 -19 10 0 6 -12 10 -27 10 -16 0 -41 7 -57 15 -32 17 -106 20 -106
5 0 -5 6 -10 13 -10 6 0 4 -5 -6 -11 -9 -5 -21 -8 -25 -5 -9 5 -44 -19 -43
-30 1 -5 -5 -9 -12 -10 -33 -3 -38 -5 -32 -15 4 -6 -2 -13 -14 -16 -12 -3 -21
-8 -21 -12 0 -11 -81 -4 -106 10 -18 9 -27 10 -32 2 -10 -16 -26 -20 -31 -8
-6 15 -34 34 -50 35 -11 0 -9 -4 5 -15 18 -13 17 -14 -17 -15 -23 0 -39 5 -42
14 -3 8 -29 30 -56 49 -28 18 -48 37 -43 41 4 4 -2 6 -13 4 -12 -2 -19 2 -17
10 1 8 -13 12 -45 12 -35 0 -44 -3 -33 -10 11 -7 6 -9 -20 -9 -41 0 -60 -3
-78 -15 -24 -15 -82 25 -107 75 -34 66 -40 112 -22 158 9 21 13 41 10 45 -3 3
2 8 11 12 9 3 16 13 16 20 0 11 -4 12 -19 5 -14 -8 -20 -7 -25 4 -7 18 -37 20
-34 3 2 -8 -7 -12 -24 -10 -34 4 -36 -11 -5 -26 l22 -12 -25 1 c-43 2 -50 -1
-50 -18 0 -12 -22 -27 -65 -47 -46 -20 -65 -34 -65 -47 0 -11 -7 -19 -15 -19
-8 0 -15 -9 -15 -20 0 -11 -4 -20 -10 -20 -5 0 -10 7 -10 15 0 8 -7 15 -15 15
-8 0 -15 -9 -15 -19 0 -11 -6 -21 -12 -24 -10 -3 -10 -8 1 -21 12 -15 12 -19
-7 -32 -12 -8 -22 -22 -22 -31 0 -10 -6 -14 -20 -10 -16 4 -20 0 -20 -19 0
-21 -2 -23 -20 -12 -24 15 -37 4 -20 -17 7 -8 8 -15 2 -15 -5 0 -13 -17 -17
-37 -7 -35 -8 -36 -16 -15 -8 22 -33 30 -43 14 -8 -14 11 -35 25 -28 8 4 6 1
-4 -7 -19 -16 -71 -11 -60 6 3 6 1 7 -5 3 -6 -4 -9 -13 -5 -21 3 -8 1 -15 -5
-15 -6 0 -12 6 -15 13 -4 10 -7 10 -18 0 -14 -14 -12 -14 46 -17 14 -1 19 -7
17 -20 -2 -10 2 -23 10 -27 10 -6 10 -11 1 -20 -9 -9 -15 -8 -27 3 -8 9 -12
18 -9 22 4 3 2 6 -3 6 -13 0 -34 -21 -34 -33 0 -5 9 -7 20 -4 30 8 26 -31 -4
-42 -13 -5 -26 -20 -30 -33 -7 -22 -7 -22 -16 -3 -8 18 -9 17 -9 -8 -1 -15 5
-30 13 -33 27 -10 -15 -41 -51 -39 -18 2 -33 -1 -33 -6 0 -5 15 -9 33 -9 31 0
34 -3 35 -30 0 -24 -2 -27 -13 -17 -7 6 -12 16 -12 21 1 5 -4 11 -10 13 -7 3
-13 -2 -13 -11 0 -9 -5 -16 -12 -16 -6 0 -8 3 -5 7 12 11 -15 33 -40 33 -13 0
-22 -4 -19 -9 3 -5 15 -7 26 -4 15 4 20 0 20 -14 0 -10 5 -24 11 -30 8 -8 3
-15 -18 -25 -23 -11 -28 -20 -30 -53 -1 -22 -5 -58 -9 -79 -6 -38 -6 -39 20
-32 14 3 26 3 26 -2 0 -4 18 -6 40 -4 32 3 40 1 40 -12 0 -9 5 -16 11 -16 5 0
7 -4 4 -10 -5 -9 16 -14 53 -13 6 1 12 -3 12 -8 0 -5 -12 -9 -26 -9 -18 0 -25
-4 -21 -14 8 -20 -4 -28 -20 -15 -10 9 -13 8 -13 0 0 -8 -17 -11 -50 -10 -34
2 -50 7 -50 16 0 7 -7 13 -16 13 -8 0 -12 5 -9 11 4 5 4 21 1 34 -12 49 -65
14 -57 -37 2 -13 -5 -18 -22 -18 -29 0 -40 9 -28 24 5 6 7 23 4 39 -4 22 -11
27 -34 27 -17 0 -32 -6 -35 -15 -10 -26 -24 -17 -24 15 l0 31 -27 -26 c-16
-14 -30 -20 -32 -14 -2 6 6 19 18 30 12 11 19 24 16 30 -8 12 -55 12 -55 -1 0
-5 -9 -1 -20 10 -11 11 -20 24 -20 29 0 16 -31 21 -53 9 -28 -14 -37 -27 -37
-55 0 -13 -5 -23 -11 -23 -12 0 -5 60 9 69 13 9 21 50 11 57 -11 7 -39 -20
-39 -38 0 -7 -6 -25 -14 -40 -8 -15 -12 -36 -9 -46 7 -27 -15 -38 -33 -16 -14
19 -14 31 1 67 6 13 2 17 -18 17 -37 0 -42 44 -9 77 14 15 27 39 28 55 3 33
-15 38 -23 7 -6 -21 -7 -21 -21 -3 -14 18 -14 18 -9 -3 3 -13 1 -23 -4 -23 -5
0 -9 -8 -9 -17 0 -15 -2 -16 -15 -2 -11 11 -16 43 -19 115 -2 54 -6 106 -9
114 -8 23 -17 86 -27 190 -5 52 -14 140 -20 195 -39 380 -39 594 -2 760 64
279 104 482 112 566 6 57 17 172 25 254 25 262 25 263 56 295 16 16 29 35 29
43 0 8 9 17 19 20 12 3 24 20 32 46 7 22 15 41 19 41 3 0 17 22 29 50 12 27
30 51 39 54 10 3 25 18 34 33 15 26 17 26 24 9 5 -14 -4 -40 -30 -88 -20 -37
-33 -68 -28 -68 17 0 41 36 99 153 33 65 62 115 66 111 4 -4 2 -13 -4 -21 -8
-9 -8 -13 -1 -13 9 0 23 27 27 50 0 3 6 14 12 25 9 16 13 17 27 6 12 -10 16
-10 16 -2 0 7 4 10 9 6 6 -3 6 -18 1 -35 -5 -19 -5 -28 1 -25 5 4 9 11 9 16 0
6 8 18 17 27 12 12 18 13 21 4 5 -16 32 -16 32 1 0 9 17 14 53 15 28 1 67 4
85 8 20 4 32 2 32 -4 0 -6 -15 -12 -32 -14 -27 -3 -30 -6 -15 -12 11 -5 28 -4
42 4 18 10 28 10 38 2 18 -15 30 -3 16 15 -6 7 -8 13 -3 14 58 6 94 5 94 -2 0
-5 -7 -9 -15 -9 -19 0 -19 -7 0 -26 8 -9 19 -12 25 -9 5 3 10 1 10 -4 0 -6 -7
-11 -15 -11 -8 0 -15 -4 -15 -10 0 -5 -5 -10 -10 -10 -6 0 -9 5 -8 11 2 6 -3
14 -9 16 -8 3 -13 -4 -13 -17 0 -16 -4 -20 -19 -15 -11 3 -22 1 -26 -5 -3 -6
4 -10 17 -11 13 0 38 -1 56 -2 20 -1 32 3 32 11 0 15 42 16 58 0 15 -15 40
-19 77 -12 l30 7 -25 10 -25 10 25 7 c14 4 30 4 35 1 6 -3 28 -6 50 -8 22 -1
51 -3 64 -5 15 -2 26 3 29 12 3 8 1 12 -3 8 -11 -10 -47 11 -39 23 4 7 10 7
17 0 8 -8 20 -3 43 14 18 14 37 25 42 25 5 0 15 7 22 15 13 15 35 11 25 -6 -4
-5 -1 -9 4 -9 6 0 11 5 11 10 0 6 5 10 10 10 6 0 10 -6 10 -14 0 -11 8 -12 36
-6 43 10 56 20 25 20 -16 0 -21 5 -19 17 2 12 19 21 51 28 26 6 48 15 47 20 0
6 8 11 20 13 11 2 20 7 20 12 0 4 21 6 48 5 54 -4 102 13 103 35 0 13 1 13 6
0 9 -21 33 -44 33 -31 0 6 7 11 16 11 12 0 15 6 11 21 -8 28 2 49 19 42 9 -3
12 -14 8 -32 l-6 -26 20 24 c11 14 17 33 14 45 -4 17 -2 19 9 9 16 -15 49 -17
49 -3 0 6 -7 10 -15 10 -8 0 -15 4 -15 9 0 12 94 1 99 -12 2 -5 7 -3 11 4 6 9
12 10 22 2 8 -7 31 -9 58 -6 34 5 40 8 25 14 -16 6 -14 8 11 8 24 1 33 -4 37
-19 3 -13 0 -20 -9 -20 -8 0 -14 -5 -14 -11 0 -6 6 -9 13 -6 19 7 78 25 117
35 25 7 29 10 13 11 -13 1 -23 6 -23 11 0 12 53 1 58 -12 5 -11 55 -10 67 1
12 11 104 19 102 10 -1 -4 3 -6 8 -5 6 0 9 6 9 13 -2 14 31 27 46 18 5 -3 10
-1 10 5 0 7 13 10 33 8 25 -2 31 1 29 13 -1 10 7 19 20 22 27 8 48 -4 23 -13
-11 -4 -14 -9 -8 -13 5 -3 20 3 33 15 21 19 23 20 32 4 7 -13 13 -14 23 -6 8
7 36 12 62 12 26 0 55 4 65 9 14 7 20 6 24 -6 3 -8 15 -15 26 -15 19 0 19 1
-1 26 -20 25 -20 27 -4 40 10 7 14 14 8 14 -5 0 3 7 20 16 33 17 90 12 99 -9
3 -7 8 -3 11 11 4 12 15 22 26 22 25 0 24 -21 -1 -43 -12 -10 -19 -21 -16 -25
2 -4 -11 -6 -31 -4 -34 4 -36 3 -29 -22 4 -15 2 -26 -4 -26 -11 0 -14 -33 -3
-43 3 -4 11 3 17 15 7 14 21 23 36 23 15 0 24 5 22 13 -2 13 21 42 34 42 4 0
5 -3 1 -6 -7 -7 46 -54 62 -54 14 0 14 17 1 25 -5 3 -10 13 -10 21 0 8 5 14
10 14 6 0 10 -9 10 -20 0 -11 4 -20 9 -20 11 0 44 45 56 75 4 12 9 15 12 8 5
-14 -25 -159 -39 -185 -5 -11 -5 -18 0 -18 14 0 28 21 43 65 12 35 30 64 70
113 5 6 9 18 8 25 -1 6 -1 19 0 27 3 31 19 -12 19 -52z m-220 16 c-2 -10 -12
-20 -23 -22 -19 -3 -19 -2 -2 8 12 8 16 18 11 33 -5 17 -3 19 6 11 6 -7 10
-20 8 -30z m309 -40 c-3 -3 -12 -4 -19 -1 -8 3 -5 6 6 6 11 1 17 -2 13 -5z
m-850 -40 c-3 -3 -12 -4 -19 -1 -8 3 -5 6 6 6 11 1 17 -2 13 -5z m-357 -63 c0
-11 -52 -21 -65 -13 -5 4 4 10 20 13 44 10 45 10 45 0z m1255 -83 c-3 -18 -7
-43 -8 -55 -2 -30 -6 -29 -50 13 -40 39 -46 54 -22 54 8 0 15 -4 15 -10 0 -17
26 -11 45 10 24 27 27 25 20 -12z m-2005 -78 c0 -5 -4 -10 -10 -10 -5 0 -10 5
-10 10 0 6 5 10 10 10 6 0 10 -4 10 -10z m-440 -80 c0 -5 -5 -10 -11 -10 -5 0
-7 5 -4 10 3 6 8 10 11 10 2 0 4 -4 4 -10z m80 -30 c0 -5 -8 -10 -17 -10 -15
0 -16 2 -3 10 19 12 20 12 20 0z m-110 -4 c0 -3 -4 -8 -10 -11 -5 -3 -10 -1
-10 4 0 6 5 11 10 11 6 0 10 -2 10 -4z m3336 -505 c0 -11 -4 -17 -8 -15 -4 3
-8 12 -8 20 0 8 4 14 8 14 4 0 8 -9 8 -19z m-4406 -785 c0 -33 -6 -83 -14
-111 -7 -27 -11 -55 -9 -61 2 -6 -3 -14 -12 -17 -9 -4 -15 -1 -15 8 0 11 -5
10 -20 -5 -11 -11 -20 -28 -20 -37 0 -10 -7 -40 -16 -68 -8 -28 -12 -64 -9
-82 4 -23 2 -33 -7 -33 -10 0 -9 -3 1 -9 12 -8 12 -12 2 -25 -8 -9 -10 -16 -5
-16 5 0 10 -21 11 -48 1 -26 9 -67 18 -91 18 -51 19 -61 5 -61 -5 0 -10 12
-10 26 0 14 -5 35 -12 47 -22 42 -39 160 -32 227 5 49 9 60 16 45 6 -15 7 -12
3 13 -2 18 0 32 6 32 6 0 8 4 5 9 -3 5 -2 22 3 37 5 16 16 65 26 109 20 97 46
175 58 175 4 0 5 6 1 13 -5 8 -2 8 9 -2 13 -10 17 -29 17 -75z m-67 -231 c-7
-21 -13 -19 -13 6 0 11 4 18 10 14 5 -3 7 -12 3 -20z m1397 -935 c0 -5 -7 -10
-15 -10 -8 0 -15 -4 -15 -10 0 -5 6 -10 14 -10 21 0 28 -15 20 -45 -5 -20 -12
-25 -36 -25 -23 0 -31 -6 -40 -30 -8 -24 -15 -29 -29 -25 -11 4 -19 2 -19 -4
0 -6 -10 -21 -21 -32 -16 -16 -23 -18 -29 -9 -5 9 -9 9 -14 1 -15 -23 -21 -9
-17 35 2 35 8 48 22 51 10 3 19 13 19 22 0 10 14 28 32 41 30 22 32 22 44 5
13 -17 14 -17 21 0 4 11 2 20 -5 23 -23 7 -12 21 21 25 17 2 35 5 40 5 4 1 7
-2 7 -8z m3410 -74 c8 -17 10 -37 5 -63 -5 -22 -10 -31 -12 -20 -3 9 -9 17
-14 17 -11 0 -11 -2 1 -37 l10 -28 -20 25 c-14 19 -18 34 -14 60 13 77 22 87
44 46z m33 -96 c3 -11 1 -18 -4 -14 -5 3 -9 12 -9 20 0 20 7 17 13 -6z m-3443
0 c0 -5 -4 -10 -10 -10 -5 0 -10 5 -10 10 0 6 5 10 10 10 6 0 10 -4 10 -10z
m1870 -5 c0 -9 7 -15 16 -13 10 2 19 -2 21 -8 2 -7 -6 -11 -22 -10 -14 0 -25
4 -25 8 0 3 -3 13 -6 22 -3 9 -1 16 5 16 6 0 11 -7 11 -15z m-513 -10 c8 -9
13 -19 9 -22 -7 -7 -36 16 -36 28 0 13 10 11 27 -6z m-1577 -4 c0 -6 -4 -13
-10 -16 -5 -3 -10 1 -10 9 0 9 5 16 10 16 6 0 10 -4 10 -9z m10 -51 c0 -5 -2
-10 -4 -10 -3 0 -8 5 -11 10 -3 6 -1 10 4 10 6 0 11 -4 11 -10z m1600 -11 c0
-6 -4 -7 -10 -4 -5 3 -10 11 -10 16 0 6 5 7 10 4 6 -3 10 -11 10 -16z m1958
-87 c0 -32 2 -64 4 -71 2 -8 -1 -15 -7 -17 -5 -2 -10 6 -11 19 -1 30 -7 51
-18 58 -4 4 -5 25 -1 48 10 61 32 37 33 -37z m-1288 44 c0 -11 -19 -15 -25 -6
-3 5 1 10 9 10 9 0 16 -2 16 -4z m105 -100 c8 -7 11 -16 8 -19 -5 -6 -33 17
-33 27 0 10 11 7 25 -8z m1165 -81 c0 -8 -9 -19 -19 -24 -15 -8 -20 -7 -24 8
-3 14 -1 18 9 14 8 -3 14 0 14 6 0 6 5 11 10 11 6 0 10 -7 10 -15z m-1993 -18
c-2 -7 -1 -22 4 -33 7 -19 4 -21 -22 -20 -16 1 -29 5 -29 9 0 4 0 11 0 16 0 5
9 13 21 16 13 4 18 12 15 21 -3 9 -1 12 5 9 5 -4 8 -12 6 -18z m1888 -45 c-2
-9 -4 -19 -4 -21 -1 -3 -6 0 -12 6 -13 13 -4 47 10 39 5 -4 8 -14 6 -24z m-5
-55 c0 -7 -12 -24 -26 -38 l-26 -24 7 33 c4 21 2 38 -5 47 -7 8 -9 22 -6 32 6
15 10 14 31 -10 14 -14 25 -32 25 -40z m-960 23 c0 -5 -4 -10 -10 -10 -5 0
-10 5 -10 10 0 6 5 10 10 10 6 0 10 -4 10 -10z m-2865 -30 c7 -12 -2 -12 -30
0 -19 8 -19 9 2 9 12 1 25 -3 28 -9z m5 -30 c0 -5 -7 -10 -16 -10 -8 0 -12 5
-9 10 3 6 10 10 16 10 5 0 9 -4 9 -10z m2850 -34 c0 -11 -19 -15 -25 -6 -3 5
1 10 9 10 9 0 16 -2 16 -4z m-2954 -43 c-10 -10 -19 5 -10 18 6 11 8 11 12 0
2 -7 1 -15 -2 -18z m3981 -25 c-3 -8 -6 -5 -6 6 -1 11 2 17 5 13 3 -3 4 -12 1
-19z m-3732 -8 c3 -5 -1 -10 -9 -10 -9 0 -16 5 -16 10 0 6 4 10 9 10 6 0 13
-4 16 -10z m898 -22 c13 -27 14 -34 2 -40 -14 -9 -85 17 -98 36 -5 8 -12 5
-22 -8 -14 -18 -15 -19 -15 -2 0 12 -5 16 -15 13 -8 -4 -17 -2 -20 3 -4 6 -3
10 2 10 35 2 129 13 132 16 10 9 20 2 34 -28z m-933 12 c0 -5 -4 -10 -10 -10
-5 0 -10 5 -10 10 0 6 5 10 10 10 6 0 10 -4 10 -10z m-187 -22 c4 -12 4 -24 2
-27 -7 -7 -34 32 -29 41 9 15 22 8 27 -14z m1909 16 c43 -6 45 -7 34 -30 -6
-13 -15 -24 -21 -24 -5 0 3 -7 19 -15 25 -13 38 -14 83 -4 41 9 59 9 78 1 81
-38 78 -36 59 -42 -16 -6 -16 -8 2 -26 12 -12 19 -32 18 -56 -1 -31 2 -38 17
-38 11 0 19 -4 19 -9 0 -5 10 -7 22 -3 16 4 19 2 13 -8 -5 -8 -4 -11 3 -7 15
10 42 -3 42 -20 0 -8 8 -13 18 -11 14 3 17 -4 14 -39 -1 -23 2 -44 8 -48 5 -3
10 0 10 7 0 7 11 26 24 41 24 28 25 28 23 5 0 -12 -6 -26 -12 -30 -6 -5 -5
-12 5 -19 12 -9 11 -10 -7 -6 -18 4 -23 1 -23 -17 0 -11 9 -27 20 -34 11 -7
20 -20 19 -30 0 -9 -3 -12 -5 -6 -3 7 -13 10 -22 7 -11 -2 -29 7 -45 23 -43
42 -47 23 -10 -47 2 -3 -4 -6 -13 -6 -8 0 -23 11 -31 24 l-16 24 -13 -31 c-10
-23 -11 -37 -3 -52 16 -30 4 -32 -15 -3 -9 14 -14 30 -11 35 3 6 1 10 -4 10
-6 0 -11 7 -11 15 0 8 5 15 12 15 24 0 -3 13 -39 19 -24 4 -38 12 -38 21 0 8
-7 20 -15 27 -27 21 18 29 51 9 26 -15 29 -15 29 -2 0 9 -9 16 -20 16 -14 0
-20 7 -20 24 0 13 -6 26 -13 29 -19 7 -68 -4 -61 -14 3 -5 0 -9 -5 -9 -6 0
-11 6 -11 14 0 15 27 29 40 21 9 -6 23 25 15 33 -3 3 -5 0 -5 -6 0 -18 -40
-14 -47 5 -12 32 -40 51 -67 46 -14 -3 -32 -1 -39 4 -6 6 -57 11 -111 12 -67
2 -106 7 -120 17 -24 16 -40 19 -31 4 3 -5 1 -10 -4 -10 -6 0 -11 5 -11 10 0
15 -68 12 -73 -2 -3 -10 -7 -10 -19 -1 -10 9 -56 13 -136 14 -67 0 -124 5
-128 10 -3 5 -14 7 -25 4 -13 -4 -19 -2 -19 8 0 17 37 30 46 16 3 -5 10 -7 15
-3 6 4 6 10 0 18 -16 19 -2 27 22 14 16 -8 22 -8 25 1 2 6 8 8 13 5 6 -3 17 0
25 7 12 10 17 10 23 0 9 -15 34 19 44 61 6 23 13 27 50 31 74 6 313 7 359 1z
m1493 -49 c5 -30 4 -36 -4 -25 -9 12 -11 11 -11 -7 0 -43 -17 -23 -18 23 -3
78 21 85 33 9z m-3200 36 c-3 -5 -1 -12 5 -16 13 -8 13 -52 0 -60 -6 -4 -10 8
-10 28 0 32 -1 33 -32 28 l-33 -5 30 -7 c33 -7 32 -10 -5 -14 -14 -1 -33 -6
-42 -10 -14 -5 -18 -2 -18 14 0 12 -1 24 -2 29 -2 4 22 10 52 13 30 3 56 6 58
7 2 1 1 -2 -3 -7z m3695 -26 c0 -14 -4 -25 -10 -25 -5 0 -10 -7 -10 -15 0 -8
-7 -15 -15 -15 -18 0 -19 17 -2 53 15 34 37 35 37 2z m35 -21 c-15 -30 -20
-17 -9 24 4 14 10 20 16 14 5 -5 2 -21 -7 -38z m-3974 9 c-12 -20 -14 -14 -5
12 4 9 9 14 11 11 3 -2 0 -13 -6 -23z m4026 -22 c-1 -11 -7 -17 -17 -16 -8 2
-17 4 -19 4 -7 2 21 31 30 31 4 0 7 -8 6 -19z m-2737 -5 c0 -3 -4 -8 -10 -11
-5 -3 -10 -1 -10 4 0 6 5 11 10 11 6 0 10 -2 10 -4z m1499 -51 c-1 -32 -7 -55
-13 -55 -13 1 -41 37 -50 68 -6 18 -4 22 13 22 11 0 23 5 26 10 15 25 25 6 24
-45z m-2838 18 c-12 -20 -14 -14 -5 12 4 9 9 14 11 11 3 -2 0 -13 -6 -23z
m206 21 c-3 -3 -12 -4 -19 -1 -8 3 -5 6 6 6 11 1 17 -2 13 -5z m1178 -14 c3
-5 -1 -10 -9 -10 -9 0 -16 5 -16 10 0 6 4 10 9 10 6 0 13 -4 16 -10z m-1105
-10 c5 8 10 10 10 4 0 -6 -7 -17 -15 -24 -8 -7 -15 -10 -15 -7 0 3 -3 14 -6
24 -5 15 -4 16 5 3 10 -13 12 -13 21 0z m680 0 c0 -5 15 -10 33 -10 17 -1 42
-6 55 -14 22 -12 20 -13 -37 -29 -77 -22 -113 -21 -138 1 -19 17 -40 58 -25
48 5 -3 22 -1 38 4 40 12 74 12 74 0z m3000 -5 c-7 -9 -15 -13 -17 -11 -7 7 7
26 19 26 6 0 6 -6 -2 -15z m-390 -5 c0 -5 -4 -10 -10 -10 -5 0 -10 5 -10 10 0
6 5 10 10 10 6 0 10 -4 10 -10z m-3966 -16 c3 -8 2 -12 -4 -9 -6 3 -10 10 -10
16 0 14 7 11 14 -7z m1564 -9 c-2 -1 -15 -5 -31 -9 -27 -6 -27 -6 -10 12 13
13 22 16 31 9 7 -5 11 -11 10 -12z m2441 -45 c-1 -30 -7 -51 -15 -54 -10 -4
-12 2 -8 22 2 15 6 38 8 52 6 31 5 30 11 30 3 0 5 -22 4 -50z m368 28 c-3 -8
-6 -5 -6 6 -1 11 2 17 5 13 3 -3 4 -12 1 -19z m-187 -25 c0 -11 -4 -11 -20 -3
-11 6 -20 15 -20 19 0 5 9 7 20 4 11 -3 20 -12 20 -20z m-21 -42 c-6 -2 -15 3
-20 10 -15 24 -10 29 11 11 12 -10 16 -18 9 -21z m82 -14 c-10 -9 -11 -8 -5 6
3 10 9 15 12 12 3 -3 0 -11 -7 -18z m-32 -119 c-8 -14 -14 -18 -17 -10 -4 13
17 46 25 38 3 -2 -1 -15 -8 -28z m-29 -2 c0 -3 -4 -8 -10 -11 -5 -3 -10 -1
-10 4 0 6 5 11 10 11 6 0 10 -2 10 -4z m-1793 -28 c23 1 45 -3 48 -8 3 -6 13
-10 21 -10 8 0 12 5 9 10 -9 14 1 12 35 -5 17 -9 30 -20 30 -25 0 -6 7 -10 15
-10 8 0 14 -5 13 -12 -2 -7 4 -13 12 -14 37 -3 41 -5 35 -14 -3 -5 7 -17 22
-27 15 -10 30 -20 33 -23 3 -3 17 -11 33 -19 30 -16 38 -55 10 -49 -10 2 -17
11 -17 21 1 9 -2 14 -7 11 -5 -3 -9 0 -9 6 0 6 -4 9 -9 6 -8 -5 -4 -35 13 -96
7 -25 7 -24 -11 3 -18 27 -33 35 -33 17 0 -5 4 -10 10 -10 14 0 23 -66 12 -85
-7 -14 -10 -9 -15 25 -6 44 -17 63 -24 43 -8 -22 -23 -14 -23 11 0 13 -7 27
-16 30 -13 5 -14 1 -9 -24 4 -20 3 -30 -5 -30 -21 0 -70 34 -71 50 -1 8 -2 27
-3 42 -1 31 -26 64 -26 35 0 -9 -5 -17 -10 -17 -6 0 -8 -10 -4 -24 3 -14 3
-30 -1 -36 -10 -17 -36 16 -42 55 -3 19 -11 35 -17 35 -20 0 -39 -17 -32 -29
4 -5 -2 -19 -12 -29 -10 -10 -22 -27 -26 -38 -7 -16 -11 -11 -22 26 -18 59
-25 128 -13 135 5 4 9 17 9 30 0 41 10 56 34 49 11 -4 40 -7 63 -6z m1703 -34
c0 -8 -5 -12 -10 -9 -6 4 -8 11 -5 16 9 14 15 11 15 -7z m224 1 c-4 -8 -10
-15 -15 -15 -4 0 -6 7 -3 15 4 8 10 15 15 15 4 0 6 -7 3 -15z m-2374 -55 c0
-5 -2 -10 -4 -10 -3 0 -8 5 -11 10 -3 6 -1 10 4 10 6 0 11 -4 11 -10z m-5 -29
c3 -5 1 -12 -4 -15 -5 -3 -11 1 -15 9 -6 16 9 21 19 6z m194 -11 c6 8 13 11
18 7 4 -5 2 -12 -5 -16 -10 -6 -10 -15 -2 -35 5 -15 10 -32 10 -37 0 -17 -29
-9 -40 11 -8 14 -8 20 0 20 6 0 8 5 5 10 -4 6 -11 7 -17 4 -8 -5 -9 -1 -5 10
4 10 7 23 7 29 0 7 4 6 10 -3 9 -13 11 -13 19 0z m-882 -32 c-3 -8 -6 -5 -6 6
-1 11 2 17 5 13 3 -3 4 -12 1 -19z m669 -13 c1 -14 -2 -22 -7 -19 -11 6 -12
44 -1 44 4 0 8 -11 8 -25z m126 3 c-6 -6 -8 -17 -5 -24 3 -8 -1 -14 -11 -14
-9 0 -16 8 -16 18 0 22 20 43 32 35 6 -3 6 -9 0 -15z m-182 -18 c0 -5 -2 -10
-4 -10 -3 0 -8 5 -11 10 -3 6 -1 10 4 10 6 0 11 -4 11 -10z m268 -49 c3 -8 -1
-12 -9 -9 -7 2 -15 10 -17 17 -3 8 1 12 9 9 7 -2 15 -10 17 -17z m302 -37 c0
-14 -4 -23 -10 -19 -5 3 -10 15 -10 26 0 10 5 19 10 19 6 0 10 -12 10 -26z
m-110 6 c0 -5 -2 -10 -4 -10 -3 0 -8 5 -11 10 -3 6 -1 10 4 10 6 0 11 -4 11
-10z m50 -11 c0 -6 -4 -7 -10 -4 -5 3 -10 11 -10 16 0 6 5 7 10 4 6 -3 10 -11
10 -16z m180 -19 c0 -5 -7 -15 -15 -24 -8 -8 -15 -21 -15 -28 0 -19 -23 -68
-32 -68 -11 0 -10 8 3 32 7 13 7 24 1 30 -7 7 -3 17 10 30 11 11 17 25 15 33
-4 9 1 11 14 8 10 -3 19 -9 19 -13z m-185 -61 c-8 -11 -35 -12 -35 0 0 5 3 24
7 42 l7 34 13 -33 c7 -18 11 -37 8 -43z m230 57 c18 -17 29 -62 18 -69 -16
-10 -30 7 -37 46 -7 40 -3 45 19 23z m58 -156 c-3 -11 -9 -20 -14 -20 -10 0
-12 24 -2 33 13 13 21 7 16 -13z m-1853 -481 c0 -11 7 -19 18 -20 15 -1 15 -2
-1 -6 -15 -4 -17 -11 -12 -31 4 -15 13 -34 21 -43 16 -18 19 -33 4 -24 -6 4
-8 -15 -6 -52 3 -39 2 -50 -4 -33 -7 22 -8 21 -10 -15 l-3 -40 -6 45 c-4 25
-9 50 -13 55 -4 6 -10 38 -13 70 -4 33 -13 81 -20 107 l-12 47 29 -20 c15 -11
28 -29 28 -40z m80 -60 c0 -5 -4 -9 -10 -9 -5 0 -9 -10 -9 -22 1 -18 2 -19 6
-5 6 24 23 11 23 -19 0 -13 6 -24 13 -24 19 0 37 -34 26 -51 -7 -11 -9 -11 -9
4 0 9 -6 17 -12 17 -7 0 -25 15 -40 34 -22 27 -26 41 -22 65 4 20 11 28 20 24
8 -3 14 -9 14 -14z m-140 -44 c0 -8 -7 -15 -15 -15 -13 0 -14 3 -3 15 16 18
18 18 18 0z m20 -44 c0 -17 -3 -18 -24 -8 -27 13 -25 27 5 27 12 0 19 -7 19
-19z m-37 -36 c-12 -9 -17 -25 -16 -56 1 -24 -3 -50 -10 -58 -7 -8 -11 -16
-10 -17 6 -10 -11 -34 -24 -34 -10 0 -12 -6 -8 -20 4 -11 2 -20 -4 -20 -6 0
-11 -7 -11 -15 0 -8 -6 -15 -12 -16 -9 0 -9 -2 1 -6 7 -3 9 -8 5 -12 -10 -7
-44 -94 -51 -133 -5 -27 -27 -39 -53 -29 -10 4 -16 24 -18 61 -3 45 1 66 22
104 14 27 30 54 35 60 5 6 7 19 6 29 -2 9 3 17 10 17 15 0 31 40 34 83 0 9 8
17 17 17 10 0 14 6 10 15 -4 11 2 15 20 15 14 0 22 4 19 10 -11 17 3 28 30 22
23 -4 24 -6 8 -17z m94 -127 c-3 -8 -6 -5 -6 6 -1 11 2 17 5 13 3 -3 4 -12 1
-19z m-17 -323 c0 -10 -25 -61 -34 -67 -5 -3 -9 -20 -9 -37 0 -16 -6 -32 -14
-35 -7 -3 -13 -19 -13 -36 0 -17 -7 -38 -15 -46 -8 -9 -15 -24 -15 -35 0 -25
-27 -79 -40 -79 -15 0 -12 26 5 40 8 7 15 25 15 41 0 16 7 32 16 37 11 6 15
17 12 30 -4 12 3 29 16 44 13 13 21 29 18 37 -5 14 39 110 51 111 4 0 7 -2 7
-5z m687 -360 c0 -8 -4 -12 -9 -9 -4 3 -8 9 -8 15 0 5 4 9 8 9 5 0 9 -7 9 -15z
m-833 -29 c-6 -16 -24 -23 -24 -8 0 10 22 33 27 28 2 -2 1 -11 -3 -20z m-42
-158 c-7 -7 -12 -8 -12 -2 0 6 3 14 7 17 3 4 9 5 12 2 2 -3 -1 -11 -7 -17z
m-251 -91 c-10 -9 -11 -8 -5 6 3 10 9 15 12 12 3 -3 0 -11 -7 -18z m239 4 c0
-11 5 -23 12 -27 8 -5 6 -11 -6 -20 -13 -9 -16 -20 -12 -42 5 -21 1 -35 -14
-53 -20 -23 -21 -23 -10 -1 6 12 8 38 4 57 -4 25 -3 35 6 35 9 0 10 11 6 35
-4 22 -3 35 4 35 5 0 10 -9 10 -19z m-151 -90 c5 -24 6 -39 1 -35 -8 10 -25
92 -16 84 2 -3 9 -25 15 -49z m151 -176 c0 -10 -20 -25 -33 -25 -1 0 -3 11 -3
24 -1 18 2 22 17 19 11 -3 19 -11 19 -18z m-35 -44 c3 -5 1 -12 -5 -16 -5 -3
-10 1 -10 9 0 18 6 21 15 7z m11 -63 c-16 -22 -16 -22 -16 -1 0 12 6 23 13 26
19 7 20 0 3 -25z m934 -368 c0 -11 7 -20 15 -20 8 0 15 -4 15 -10 0 -16 -14
-12 -38 11 -12 11 -20 24 -17 30 11 16 25 10 25 -11z m-170 -24 c0 -3 -4 -8
-10 -11 -5 -3 -10 -1 -10 4 0 6 5 11 10 11 6 0 10 -2 10 -4z m100 -6 c0 -5 -5
-10 -11 -10 -5 0 -7 5 -4 10 3 6 8 10 11 10 2 0 4 -4 4 -10z m-340 -30 c0 -5
-2 -10 -4 -10 -3 0 -8 5 -11 10 -3 6 -1 10 4 10 6 0 11 -4 11 -10z m116 -5
c26 -26 -2 -46 -35 -26 -12 8 -12 11 0 25 17 19 17 19 35 1z m139 5 c3 -5 1
-10 -4 -10 -6 0 -11 5 -11 10 0 6 2 10 4 10 3 0 8 -4 11 -10z m-251 -35 c4
-10 -1 -15 -16 -15 -17 0 -18 2 -8 15 7 8 14 15 15 15 2 0 5 -7 9 -15z m-155
-19 c-10 -9 -79 -14 -79 -5 0 5 19 9 42 9 23 0 39 -2 37 -4z m-49 -33 c0 -5
-4 -14 -9 -22 -8 -12 -12 -12 -25 2 -22 22 -20 27 9 27 14 0 25 -3 25 -7z
m637 -25 c-3 -8 -6 -5 -6 6 -1 11 2 17 5 13 3 -3 4 -12 1 -19z m-30 -130 c-3
-8 -6 -5 -6 6 -1 11 2 17 5 13 3 -3 4 -12 1 -19z"/>
<path d="M6762 10181 c2 -7 7 -12 11 -12 12 1 9 15 -3 20 -7 2 -11 -2 -8 -8z"/>
<path d="M7114 10168 c-3 -5 -14 -8 -24 -5 -12 3 -17 0 -13 -8 8 -24 -51 -75
-86 -75 -18 0 -30 -3 -28 -7 3 -5 -28 -7 -69 -7 -57 1 -74 -2 -74 -12 0 -26 5
-28 65 -32 32 -1 63 -8 67 -15 6 -9 8 -9 8 1 0 7 19 21 43 32 23 11 49 24 57
29 8 5 23 12 34 15 11 4 16 12 12 21 -3 9 0 15 9 15 8 0 15 4 15 8 0 5 9 13
20 18 19 9 19 9 -5 21 -16 7 -27 8 -31 1z"/>
<path d="M6970 10110 c0 -5 5 -10 11 -10 5 0 7 5 4 10 -3 6 -8 10 -11 10 -2 0
-4 -4 -4 -10z"/>
<path d="M5963 10060 c-31 -13 -29 -20 7 -20 20 0 30 5 30 15 0 17 -5 18 -37
5z"/>
<path d="M5326 9854 c-4 -10 -1 -14 6 -12 15 5 23 28 10 28 -5 0 -13 -7 -16
-16z"/>
<path d="M4695 9850 c4 -6 11 -8 16 -5 14 9 11 15 -7 15 -8 0 -12 -5 -9 -10z"/>
<path d="M7346 9834 c-8 -21 -8 -24 3 -24 5 0 11 9 14 20 6 24 -8 27 -17 4z"/>
<path d="M4786 9830 c-15 -5 -16 -9 -7 -14 7 -5 18 -3 24 3 14 14 6 20 -17 11z"/>
<path d="M5160 9800 c0 -5 5 -10 10 -10 6 0 10 5 10 10 0 6 -4 10 -10 10 -5 0
-10 -4 -10 -10z"/>
<path d="M4780 9786 c0 -2 7 -9 15 -16 13 -11 14 -10 9 4 -5 14 -24 23 -24 12z"/>
<path d="M4826 9775 c-3 -8 -1 -15 4 -15 6 0 10 7 10 15 0 8 -2 15 -4 15 -2 0
-6 -7 -10 -15z"/>
<path d="M4864 9762 c2 -4 19 -9 38 -10 25 -2 29 0 18 8 -18 12 -63 13 -56 2z"/>
<path d="M4600 9749 c0 -5 5 -7 10 -4 6 3 10 8 10 11 0 2 -4 4 -10 4 -5 0 -10
-5 -10 -11z"/>
<path d="M4698 9743 c7 -3 16 -2 19 1 4 3 -2 6 -13 5 -11 0 -14 -3 -6 -6z"/>
<path d="M4583 9698 c2 -7 1 -22 -4 -34 -10 -27 3 -50 18 -32 13 15 5 78 -9
78 -5 0 -8 -6 -5 -12z"/>
<path d="M4785 9690 c-3 -5 -1 -10 4 -10 6 0 11 5 11 10 0 6 -2 10 -4 10 -3 0
-8 -4 -11 -10z"/>
<path d="M4740 9347 c0 -5 -9 -5 -20 -2 -11 3 -20 2 -20 -3 0 -5 -25 -10 -56
-11 -30 0 -64 -6 -75 -11 -10 -6 -19 -7 -19 -3 0 4 -11 -4 -24 -18 -13 -14
-66 -45 -119 -69 -76 -35 -100 -51 -114 -77 -9 -18 -19 -30 -22 -28 -2 3 -10
-7 -17 -21 -12 -22 -11 -28 1 -41 8 -8 15 -18 15 -23 0 -4 14 -13 30 -19 17
-5 30 -7 30 -4 0 4 6 -1 13 -11 7 -9 31 -20 54 -23 69 -9 65 -40 -4 -34 -24 2
-31 -13 -12 -25 6 -3 58 -8 115 -10 104 -2 129 -8 119 -25 -4 -5 -1 -9 4 -9 6
0 11 4 11 10 0 5 7 7 15 4 25 -10 17 -19 -36 -37 -32 -12 -49 -23 -46 -31 4
-9 -2 -11 -20 -8 -18 3 -24 1 -19 -7 4 -7 0 -11 -11 -11 -15 0 -16 -2 -3 -11
12 -8 10 -9 -7 -4 -12 3 -24 1 -28 -5 -3 -5 -13 -10 -21 -10 -22 0 -51 -34
-59 -69 -5 -22 -12 -31 -27 -31 -17 0 -19 -5 -13 -29 5 -22 1 -35 -14 -50 -10
-10 -22 -17 -25 -13 -3 3 -6 0 -6 -6 0 -7 -9 -12 -20 -12 -13 0 -20 -7 -20
-19 0 -20 24 -51 40 -51 5 0 12 -9 15 -21 5 -15 10 -17 20 -9 10 8 14 7 17 -2
4 -10 8 -10 21 1 14 11 17 11 18 0 0 -8 4 -4 9 9 12 28 26 28 34 0 4 -18 8
-20 18 -10 10 10 10 15 -2 22 -13 8 -13 10 1 10 9 0 21 -6 27 -12 11 -14 59
-15 106 -3 18 5 36 3 47 -4 10 -6 28 -11 39 -11 14 0 20 -7 20 -24 0 -30 -23
-50 -50 -41 -11 4 -20 2 -20 -4 0 -6 -7 -11 -15 -11 -8 0 -15 9 -15 20 0 11
-5 20 -11 20 -6 0 -8 -8 -4 -19 5 -16 -1 -21 -27 -26 -18 -4 -37 -10 -41 -12
-15 -9 26 -43 51 -43 21 0 23 -2 11 -16 -11 -14 -10 -18 6 -30 11 -7 25 -18
32 -24 7 -5 34 -10 60 -10 35 0 44 -3 33 -10 -17 -11 -10 -13 38 -10 17 1 32
-3 32 -9 0 -5 -15 -11 -32 -13 -28 -3 -26 -4 14 -8 42 -5 47 -3 42 12 -4 14 0
18 20 18 30 0 33 -8 10 -24 -14 -11 -14 -14 4 -36 16 -20 22 -22 35 -12 9 8
16 9 19 3 1 -6 41 -11 88 -12 49 -1 96 -7 112 -15 40 -21 64 -17 88 14 12 15
25 26 28 26 4 -1 13 1 21 4 7 3 17 -1 21 -8 5 -7 16 -9 30 -5 16 5 19 10 11
18 -27 27 9 41 52 19 33 -15 46 -10 27 13 -10 12 -9 15 6 15 11 0 29 3 42 6
16 5 22 2 22 -9 0 -23 36 -27 59 -5 21 19 21 19 21 -7 0 -17 5 -25 18 -25 13
0 14 -2 4 -9 -10 -6 -6 -10 15 -14 36 -7 96 20 88 40 -3 10 3 17 17 21 21 5
21 6 2 13 -16 7 -17 8 -1 8 9 1 17 7 17 15 0 7 10 16 23 20 15 4 18 8 10 14
-8 5 3 12 30 20 35 11 42 17 44 39 0 14 7 29 14 34 7 4 14 14 15 23 1 8 8 32
15 53 6 20 12 76 13 123 1 47 6 89 11 93 6 6 5 10 -3 14 -10 4 -10 8 -1 19 9
11 8 14 -2 14 -8 0 10 14 40 30 30 17 57 28 59 25 3 -3 0 -5 -7 -5 -7 0 -9 -5
-6 -10 3 -6 16 -8 28 -4 18 4 31 -4 59 -35 40 -45 58 -51 58 -22 0 10 12 32
28 48 31 34 72 49 72 27 0 -8 9 -14 20 -14 11 0 20 5 20 11 0 26 20 -6 21 -34
2 -30 2 -30 9 8 4 22 8 34 9 27 0 -9 8 -11 21 -7 15 5 20 2 20 -13 0 -11 6
-23 13 -26 6 -3 -1 -4 -16 -2 -17 2 -26 -1 -24 -8 2 -6 14 -10 25 -8 17 3 22
-2 21 -20 -1 -17 -3 -18 -6 -5 -6 23 -23 22 -23 -3 0 -11 -4 -20 -9 -20 -10 0
-3 -111 9 -125 8 -9 17 -49 19 -83 1 -7 5 -11 9 -8 5 3 15 -10 22 -29 8 -19
20 -35 27 -35 7 0 13 -8 13 -17 0 -13 3 -14 8 -5 6 9 14 6 32 -13 15 -16 34
-25 53 -25 20 0 30 -6 34 -20 3 -11 9 -20 14 -20 5 0 9 -6 9 -14 0 -20 17 -24
88 -20 34 1 60 0 58 -4 -3 -4 15 -9 40 -10 24 -1 55 -9 68 -17 13 -9 48 -25
77 -35 41 -15 55 -17 61 -7 6 9 8 8 8 -3 0 -11 18 -20 61 -29 34 -7 64 -10 67
-7 3 3 0 6 -6 6 -7 0 -12 6 -12 14 0 8 -6 16 -12 19 -7 2 19 3 57 2 39 -1 82
1 96 5 16 5 31 4 38 -3 6 -6 14 -7 18 -3 4 4 1 12 -7 17 -11 8 -8 8 10 3 27
-8 74 -7 104 2 11 4 16 2 12 -4 -7 -12 74 6 88 19 6 5 24 9 40 10 17 0 40 4
50 8 36 14 -59 50 -125 47 -80 -3 -67 19 19 33 65 11 234 31 260 31 6 0 12 9
12 20 0 11 -4 20 -10 20 -5 0 -10 -5 -10 -11 0 -8 -15 -10 -52 -4 -71 10 -94
10 -150 -2 -30 -7 -48 -7 -48 -1 0 5 -13 7 -30 3 -19 -4 -30 -3 -30 4 0 6 11
11 24 11 13 0 29 6 36 14 6 8 17 13 24 10 6 -2 29 2 51 11 39 15 39 15 8 12
-24 -3 -30 0 -23 8 7 9 24 10 55 4 25 -5 52 -6 60 -3 7 3 20 2 27 -3 16 -10
128 -11 121 0 -2 4 5 7 16 7 12 0 21 5 21 10 0 6 22 10 48 10 26 0 53 5 60 12
9 9 12 9 12 -1 0 -11 3 -11 16 0 9 7 28 13 42 14 14 0 27 6 30 14 3 8 0 11 -5
8 -5 -3 -10 7 -10 23 l0 30 33 -25 c18 -14 35 -25 38 -25 13 0 5 40 -11 56
-13 13 -14 19 -5 22 6 2 12 8 12 14 0 6 -7 8 -15 4 -9 -3 -15 0 -15 9 0 8 5
15 12 15 6 0 4 6 -7 13 -10 8 -15 19 -11 26 4 6 0 14 -11 17 -10 3 -30 12 -46
20 -15 8 -33 12 -40 9 -6 -4 -4 0 5 8 16 13 16 15 -6 25 -18 8 -23 16 -19 32
5 20 2 22 -33 19 -21 -1 -44 -6 -50 -10 -5 -5 -21 -2 -35 5 -13 7 -30 11 -37
8 -7 -2 -12 6 -12 22 0 22 -5 26 -28 26 -15 0 -44 8 -63 18 -40 20 -46 55 -14
78 22 16 49 19 40 4 -3 -5 -1 -10 4 -10 15 0 14 27 -1 33 -7 2 3 4 22 5 19 0
73 2 118 4 46 1 86 0 88 -4 6 -10 88 4 96 16 5 7 17 5 38 -7 31 -19 31 -19 55
5 22 22 23 26 10 46 -8 11 -31 26 -49 32 -23 7 -33 16 -30 25 7 16 -32 39 -53
31 -8 -3 -24 -1 -35 5 -15 8 -22 8 -28 -1 -9 -15 -45 2 -54 25 -3 8 -15 15
-26 15 -11 0 -20 4 -20 8 0 4 -17 14 -37 22 -39 14 -45 16 -75 18 -10 1 -18
10 -19 20 0 10 -3 12 -6 5 -8 -20 -23 -15 -23 7 0 14 -7 20 -21 20 -11 0 -17
-4 -14 -10 10 -17 -110 -16 -131 1 -13 10 -242 15 -252 5 -3 -4 0 -11 8 -16 8
-6 12 -10 8 -10 -131 -3 -232 -10 -241 -19 -17 -13 -134 -6 -153 10 -21 17
-117 13 -153 -6 -17 -8 -37 -15 -45 -15 -8 0 -21 -10 -27 -22 l-11 -21 -12 22
c-7 12 -16 18 -20 14 -4 -4 -34 -9 -67 -10 -38 -1 -64 -7 -74 -16 -8 -9 -35
-19 -60 -23 -25 -3 -45 -11 -45 -16 0 -5 -4 -7 -9 -4 -5 3 -14 -1 -20 -8 -7
-8 -34 -17 -62 -21 -27 -4 -46 -11 -43 -16 3 -5 -4 -9 -15 -9 -11 0 -23 -4
-26 -10 -3 -5 -15 -10 -26 -10 -10 0 -19 -5 -19 -12 0 -6 -6 -3 -14 7 -13 18
-14 18 -27 -3 -8 -12 -19 -22 -26 -22 -7 0 -13 -7 -13 -15 0 -8 -6 -15 -14
-15 -19 0 -30 17 -15 22 7 2 9 13 4 27 -5 17 -9 20 -15 11 -4 -7 -13 -9 -19
-5 -9 5 -7 11 6 22 17 13 16 14 -12 10 -16 -2 -37 -6 -45 -9 -8 -3 -12 -3 -7
-1 18 11 4 19 -23 15 -16 -2 -30 0 -30 5 0 13 -45 33 -75 33 -13 0 -30 7 -39
15 -8 8 -21 15 -29 15 -8 0 -17 9 -20 20 -4 14 -14 20 -34 20 -16 0 -35 6 -41
12 -7 7 -28 11 -47 9 -20 -1 -35 2 -35 8 0 6 -9 11 -19 11 -11 0 -32 5 -48 11
-15 6 -41 13 -58 15 -16 2 -46 5 -65 8 -19 2 -40 0 -47 -6 -17 -13 -79 -6 -75
10 1 6 -2 12 -6 12 -4 0 -14 -6 -21 -12 -8 -7 -11 -8 -8 -2 4 7 -22 9 -81 8
-87 -3 -152 13 -152 36 0 6 -5 8 -11 4 -8 -4 -7 -9 2 -15 26 -17 -2 -9 -41 11
-22 11 -40 16 -40 10 0 -18 -32 -10 -37 9 -4 16 -13 20 -49 18 -24 -1 -44 -6
-44 -10z m750 -127 c0 -5 -4 -10 -9 -10 -6 0 -13 5 -16 10 -3 6 1 10 9 10 9 0
16 -4 16 -10z m1080 -50 c0 -5 -4 -10 -10 -10 -5 0 -10 5 -10 10 0 6 5 10 10
10 6 0 10 -4 10 -10z m1505 -149 c0 -8 -6 -16 -14 -19 -10 -3 -12 0 -8 11 3 9
1 18 -6 21 -7 3 -3 5 8 3 11 -1 20 -9 20 -16z m-3458 -187 c-3 -3 -12 -4 -19
-1 -8 3 -5 6 6 6 11 1 17 -2 13 -5z m1278 -64 c3 -5 -3 -10 -15 -10 -12 0 -18
5 -15 10 3 6 10 10 15 10 5 0 12 -4 15 -10z m-1245 -60 c0 -5 -2 -10 -4 -10
-3 0 -8 5 -11 10 -3 6 -1 10 4 10 6 0 11 -4 11 -10z m-36 -15 c-4 -8 -10 -13
-14 -10 -5 3 -11 1 -15 -5 -3 -5 -12 -10 -18 -10 -7 0 -1 9 13 20 30 24 41 25
34 5z m273 -23 c9 -80 15 -112 24 -117 18 -12 9 -23 -25 -29 -45 -9 -149 48
-154 83 -2 15 0 21 7 17 6 -4 11 0 11 8 0 9 7 16 15 16 8 0 15 5 15 12 0 6 3
9 6 6 3 -3 24 5 47 17 46 27 50 26 54 -13z m2573 -37 c7 -8 20 -15 29 -15 9 0
33 -14 54 -31 30 -25 35 -34 26 -45 -9 -11 -8 -14 2 -14 11 0 11 -2 -1 -10 -8
-5 -27 -10 -42 -10 -15 0 -30 -4 -33 -10 -3 -5 -19 -10 -35 -10 -15 0 -30 -7
-34 -15 -3 -8 -15 -15 -26 -15 -17 0 -19 4 -14 28 3 15 15 42 25 61 14 23 18
43 13 67 -5 26 -3 34 9 34 8 0 20 -7 27 -15z m-1140 -15 c0 -5 -7 -10 -16 -10
-8 0 -12 5 -9 10 3 6 10 10 16 10 5 0 9 -4 9 -10z m686 -45 c8 -58 1 -75 -31
-73 -47 4 -60 42 -30 88 30 45 52 39 61 -15z m-141 -85 c3 -5 2 -10 -4 -10 -5
0 -13 5 -16 10 -3 6 -2 10 4 10 5 0 13 -4 16 -10z m418 -77 c-7 -2 -19 -2 -25
0 -7 3 -2 5 12 5 14 0 19 -2 13 -5z m54 -119 c-3 -3 -12 -4 -19 -1 -8 3 -5 6
6 6 11 1 17 -2 13 -5z m-1858 -73 c-15 -5 -22 6 -14 19 6 9 10 9 16 -1 5 -8 4
-15 -2 -18z m-609 -46 c0 -8 -4 -15 -9 -15 -5 0 -11 7 -15 15 -3 9 0 15 9 15
8 0 15 -7 15 -15z"/>
<path d="M7870 9150 c0 -5 5 -10 11 -10 5 0 7 5 4 10 -3 6 -8 10 -11 10 -2 0
-4 -4 -4 -10z"/>
<path d="M5875 9120 c-3 -5 -1 -10 4 -10 6 0 11 5 11 10 0 6 -2 10 -4 10 -3 0
-8 -4 -11 -10z"/>
<path d="M6225 9120 c-3 -5 -1 -10 4 -10 6 0 11 5 11 10 0 6 -2 10 -4 10 -3 0
-8 -4 -11 -10z"/>
<path d="M7728 8953 c7 -3 16 -2 19 1 4 3 -2 6 -13 5 -11 0 -14 -3 -6 -6z"/>
<path d="M7768 8943 c27 -11 9 -22 -35 -21 -84 1 -103 -2 -103 -14 0 -9 24
-14 81 -15 47 -2 88 -8 97 -15 11 -9 13 -9 9 -1 -5 7 4 14 23 18 29 6 29 7 14
31 -13 19 -24 24 -58 23 -22 0 -35 -3 -28 -6z m29 -39 c-3 -3 -12 -4 -19 -1
-8 3 -5 6 6 6 11 1 17 -2 13 -5z"/>
<path d="M6140 8760 c0 -5 5 -10 10 -10 6 0 10 5 10 10 0 6 -4 10 -10 10 -5 0
-10 -4 -10 -10z"/>
<path d="M4295 8470 c-3 -5 -1 -10 4 -10 6 0 11 5 11 10 0 6 -2 10 -4 10 -3 0
-8 -4 -11 -10z"/>
<path d="M4460 8425 l-23 -24 28 -7 c23 -6 32 -2 47 16 20 25 23 40 8 40 -5 0
-10 -6 -10 -12 0 -24 -16 -39 -34 -32 -15 6 -15 7 1 19 10 8 15 16 12 19 -3 3
-16 -5 -29 -19z"/>
<path d="M4397 8433 c-13 -13 -7 -33 11 -32 10 0 12 3 5 6 -18 7 -16 21 5 26
14 4 14 5 1 6 -9 0 -19 -2 -22 -6z"/>
<path d="M5762 8260 c0 -14 2 -19 5 -12 2 6 2 18 0 25 -3 6 -5 1 -5 -13z"/>
<path d="M5705 8250 c3 -5 12 -7 20 -3 21 7 19 13 -6 13 -11 0 -18 -4 -14 -10z"/>
<path d="M7071 8146 c11 -9 69 -15 64 -6 -3 6 -20 10 -37 10 -17 0 -29 -2 -27
-4z"/>
<path d="M7098 8113 c7 -3 16 -2 19 1 4 3 -2 6 -13 5 -11 0 -14 -3 -6 -6z"/>
<path d="M5648 8063 c6 -2 18 -2 25 0 6 3 1 5 -13 5 -14 0 -19 -2 -12 -5z"/>
<path d="M5375 7832 c2 -12 11 -17 34 -16 37 2 40 -3 6 -16 -14 -5 -25 -16
-25 -24 0 -8 -6 -17 -12 -19 -7 -3 -3 -6 10 -6 31 -1 62 16 62 34 0 9 10 15
25 15 28 0 34 15 9 24 -8 3 -12 10 -9 16 4 6 -5 10 -20 10 -15 0 -24 -4 -20
-10 8 -13 -6 -13 -38 -1 -21 8 -25 7 -22 -7z"/>
<path d="M6850 7585 c-2 -5 -2 -14 -1 -19 1 -4 -3 -14 -10 -22 -9 -11 -7 -20
6 -40 27 -41 39 -16 21 42 -8 27 -15 45 -16 39z"/>
<path d="M6328 7423 c7 -3 16 -2 19 1 4 3 -2 6 -13 5 -11 0 -14 -3 -6 -6z"/>
<path d="M6800 7354 c0 -8 5 -12 10 -9 6 4 8 11 5 16 -9 14 -15 11 -15 -7z"/>
<path d="M4860 7340 c0 -5 5 -10 10 -10 6 0 10 5 10 10 0 6 -4 10 -10 10 -5 0
-10 -4 -10 -10z"/>
<path d="M7130 7295 c-10 -12 -10 -15 4 -15 9 0 16 7 16 15 0 8 -2 15 -4 15
-2 0 -9 -7 -16 -15z"/>
<path d="M6650 7290 c0 -5 5 -10 11 -10 5 0 7 5 4 10 -3 6 -8 10 -11 10 -2 0
-4 -4 -4 -10z"/>
<path d="M4745 7220 c4 -6 11 -8 16 -5 14 9 11 15 -7 15 -8 0 -12 -5 -9 -10z"/>
<path d="M6714 7209 c-3 -6 -1 -16 5 -22 8 -8 11 -5 11 11 0 24 -5 28 -16 11z"/>
<path d="M7258 7193 c7 -3 16 -2 19 1 4 3 -2 6 -13 5 -11 0 -14 -3 -6 -6z"/>
<path d="M7398 7163 c7 -3 16 -2 19 1 4 3 -2 6 -13 5 -11 0 -14 -3 -6 -6z"/>
<path d="M4626 7111 c-4 -7 -5 -15 -2 -18 9 -9 19 4 14 18 -4 11 -6 11 -12 0z"/>
<path d="M4591 7061 c-8 -5 -11 -16 -8 -25 10 -25 25 -19 25 9 0 14 -1 25 -2
25 0 0 -7 -4 -15 -9z"/>
<path d="M4626 7051 c-3 -5 4 -11 16 -14 29 -8 32 -4 8 11 -10 6 -21 8 -24 3z"/>
<path d="M4695 7040 c-3 -5 1 -10 9 -10 9 0 16 5 16 10 0 6 -4 10 -9 10 -6 0
-13 -4 -16 -10z"/>
<path d="M7515 7030 c-4 -6 -2 -17 4 -23 15 -15 25 -2 13 19 -7 12 -11 13 -17
4z"/>
<path d="M8420 7030 c-13 -8 -12 -10 3 -10 9 0 17 5 17 10 0 12 -1 12 -20 0z"/>
<path d="M8379 6988 c-4 -80 -2 -102 8 -105 13 -5 43 57 43 88 0 24 -15 24
-30 2 -11 -17 -11 -17 -6 -1 3 10 1 20 -4 23 -6 4 -10 0 -11 -7z"/>
<path d="M4592 6958 c-15 -15 -16 -48 -2 -48 6 0 10 7 10 15 0 8 5 15 10 15 6
0 10 7 10 15 0 18 -12 19 -28 3z"/>
<path d="M7920 6920 c0 -5 12 -10 26 -10 14 0 23 4 19 10 -3 6 -15 10 -26 10
-10 0 -19 -4 -19 -10z"/>
<path d="M4557 6887 c-7 -20 6 -37 21 -28 7 4 10 15 6 24 -7 20 -20 22 -27 4z"/>
<path d="M4316 6854 c-4 -9 -4 -19 -1 -22 2 -3 7 3 11 12 4 9 4 19 1 22 -2 3
-7 -3 -11 -12z"/>
<path d="M8360 6851 c0 -12 5 -21 10 -21 6 0 10 6 10 14 0 8 -4 18 -10 21 -5
3 -10 -3 -10 -14z"/>
<path d="M7820 6840 c0 -5 5 -10 11 -10 5 0 7 5 4 10 -3 6 -8 10 -11 10 -2 0
-4 -4 -4 -10z"/>
<path d="M8292 6824 c-12 -15 -20 -29 -17 -33 4 -3 12 2 19 11 7 10 15 15 18
12 3 -2 8 4 11 16 7 27 -3 25 -31 -6z"/>
<path d="M8001 6824 c0 -11 3 -14 6 -6 3 7 2 16 -1 19 -3 4 -6 -2 -5 -13z"/>
<path d="M8030 6820 c0 -19 3 -21 12 -12 9 9 9 15 0 24 -9 9 -12 7 -12 -12z"/>
<path d="M7708 6824 c-13 -12 -9 -19 22 -37 17 -10 30 -14 30 -8 0 5 -9 12
-19 16 -11 3 -21 13 -23 21 -2 9 -6 12 -10 8z"/>
<path d="M8190 6816 c0 -8 5 -18 10 -21 6 -4 8 -11 4 -16 -8 -13 5 -69 17 -69
13 0 11 47 -3 87 -12 34 -28 44 -28 19z"/>
<path d="M8327 6810 c-14 -17 -15 -20 -2 -20 9 0 18 7 22 15 9 24 -1 27 -20 5z"/>
<path d="M7867 6799 c7 -7 15 -10 18 -7 3 3 -2 9 -12 12 -14 6 -15 5 -6 -5z"/>
<path d="M8031 6774 c0 -11 3 -14 6 -6 3 7 2 16 -1 19 -3 4 -6 -2 -5 -13z"/>
<path d="M7662 6755 c0 -16 2 -22 5 -12 2 9 2 23 0 30 -3 6 -5 -1 -5 -18z"/>
<path d="M4510 6730 c0 -5 5 -10 10 -10 6 0 10 5 10 10 0 6 -4 10 -10 10 -5 0
-10 -4 -10 -10z"/>
<path d="M4615 6720 c3 -5 8 -10 11 -10 2 0 4 5 4 10 0 6 -5 10 -11 10 -5 0
-7 -4 -4 -10z"/>
<path d="M4693 6724 c4 -4 -1 -13 -11 -20 -24 -17 -9 -28 17 -12 25 16 26 24
4 32 -10 4 -14 4 -10 0z"/>
<path d="M4637 6669 c6 -22 23 -26 23 -5 0 8 -6 16 -14 19 -10 4 -12 0 -9 -14z"/>
<path d="M8200 6671 c0 -19 17 -38 25 -29 7 7 -7 48 -16 48 -5 0 -9 -9 -9 -19z"/>
<path d="M7580 6641 c0 -6 5 -13 10 -16 6 -3 10 1 10 9 0 9 -4 16 -10 16 -5 0
-10 -4 -10 -9z"/>
<path d="M7390 6623 c1 -11 26 -43 34 -43 3 0 6 11 6 25 0 18 -5 25 -20 25
-11 0 -20 -3 -20 -7z"/>
<path d="M7534 6617 c-3 -9 -4 -24 -2 -34 3 -16 5 -15 17 6 9 16 10 26 2 34
-7 7 -12 6 -17 -6z"/>
<path d="M8211 6519 c0 -9 -9 -20 -18 -23 -12 -5 -14 -9 -5 -18 17 -17 35 4
29 33 -2 13 -5 17 -6 8z"/>
<path d="M5101 7253 c0 -25 1 -26 9 -8 12 27 12 35 0 35 -5 0 -10 -12 -9 -27z"/>
<path d="M5130 7271 c0 -5 9 -7 20 -4 11 3 20 7 20 9 0 2 -9 4 -20 4 -11 0
-20 -4 -20 -9z"/>
<path d="M6810 6271 c0 -10 6 -21 13 -24 10 -4 13 2 9 19 -5 28 -22 32 -22 5z"/>
<path d="M6900 6255 c0 -8 5 -15 10 -15 6 0 10 7 10 15 0 8 -4 15 -10 15 -5 0
-10 -7 -10 -15z"/>
<path d="M6690 6149 c0 -5 5 -7 10 -4 6 3 10 8 10 11 0 2 -4 4 -10 4 -5 0 -10
-5 -10 -11z"/>
<path d="M6710 6069 c0 -28 1 -29 16 -14 9 8 13 22 10 30 -10 26 -26 16 -26
-16z"/>
<path d="M4796 5063 c-4 -9 -3 -20 2 -25 4 -4 9 4 10 17 2 29 -3 32 -12 8z"/>
<path d="M5310 3220 c0 -5 5 -10 10 -10 6 0 10 5 10 10 0 6 -4 10 -10 10 -5 0
-10 -4 -10 -10z"/>
<path d="M7506 12821 c22 -21 27 -21 18 3 -3 9 -13 16 -22 16 -13 0 -12 -3 4
-19z"/>
<path d="M7700 12760 c0 -5 5 -10 10 -10 6 0 10 5 10 10 0 6 -4 10 -10 10 -5
0 -10 -4 -10 -10z"/>
<path d="M7790 12740 c8 -5 20 -10 25 -10 6 0 3 5 -5 10 -8 5 -19 10 -25 10
-5 0 -3 -5 5 -10z"/>
<path d="M4677 12493 c-4 -3 -7 -11 -7 -17 0 -6 5 -5 12 2 6 6 9 14 7 17 -3 3
-9 2 -12 -2z"/>
<path d="M8350 12176 c0 -21 26 -43 37 -32 9 8 -8 44 -22 50 -11 4 -15 -2 -15
-18z"/>
<path d="M8500 12070 c0 -6 7 -10 15 -10 8 0 15 2 15 4 0 2 -7 6 -15 10 -8 3
-15 1 -15 -4z"/>
<path d="M4010 11939 c0 -5 5 -7 10 -4 6 3 10 8 10 11 0 2 -4 4 -10 4 -5 0
-10 -5 -10 -11z"/>
<path d="M8850 11745 c0 -8 4 -15 10 -15 5 0 7 7 4 15 -4 8 -8 15 -10 15 -2 0
-4 -7 -4 -15z"/>
<path d="M9150 11160 c0 -5 5 -10 11 -10 5 0 7 5 4 10 -3 6 -8 10 -11 10 -2 0
-4 -4 -4 -10z"/>
<path d="M9108 11133 c7 -3 16 -2 19 1 4 3 -2 6 -13 5 -11 0 -14 -3 -6 -6z"/>
<path d="M9135 11120 c-3 -5 -1 -10 4 -10 6 0 11 5 11 10 0 6 -2 10 -4 10 -3
0 -8 -4 -11 -10z"/>
<path d="M9155 9491 c-3 -5 -1 -12 5 -16 5 -3 10 1 10 9 0 18 -6 21 -15 7z"/>
<path d="M8983 8719 c-43 -16 -77 -81 -54 -104 39 -40 84 -169 131 -377 20
-90 21 -108 11 -245 -11 -165 -25 -214 -79 -288 -21 -27 -44 -62 -51 -77 -8
-16 -18 -28 -23 -28 -13 0 -9 -37 6 -49 20 -17 60 7 44 26 -8 10 -2 13 32 13
l42 0 -6 45 c-5 29 -4 45 3 45 6 0 11 8 11 17 0 9 7 24 15 33 9 10 18 46 22
84 6 70 28 110 44 84 5 -7 9 -24 10 -38 1 -14 7 9 14 50 7 43 9 79 4 84 -5 6
-9 -9 -9 -37 0 -35 -3 -45 -14 -41 -10 4 -12 14 -6 37 4 18 7 35 8 40 1 4 2
26 2 49 0 39 1 40 14 22 16 -21 13 -28 36 80 6 27 15 57 20 67 6 10 12 43 15
74 4 42 1 57 -9 61 -8 3 -17 27 -21 57 -4 29 -10 57 -13 62 -4 6 -7 30 -8 55
-2 70 -23 156 -44 175 -21 19 -118 35 -147 24z"/>
<path d="M9201 8474 c0 -11 3 -14 6 -6 3 7 2 16 -1 19 -3 4 -6 -2 -5 -13z"/>
<path d="M9117 7717 c-3 -8 -1 -20 4 -28 6 -10 9 -7 9 14 0 29 -5 35 -13 14z"/>
<path d="M9102 7575 c0 -16 2 -22 5 -12 2 9 2 23 0 30 -3 6 -5 -1 -5 -18z"/>
<path d="M3760 7370 c0 -25 4 -39 10 -35 6 3 10 19 10 35 0 16 -4 32 -10 35
-6 4 -10 -10 -10 -35z"/>
<path d="M8382 6005 c-6 -13 -7 -27 -3 -30 5 -2 11 8 14 23 7 35 3 38 -11 7z"/>
<path d="M8500 5988 c0 -18 36 -110 64 -167 13 -25 29 -64 35 -86 7 -22 20
-56 29 -75 18 -38 24 -220 9 -315 -7 -48 -7 -49 7 -20 25 52 39 190 32 302 -6
84 -13 117 -36 169 -32 70 -85 154 -107 167 -7 4 -13 15 -13 22 0 8 -4 15 -10
15 -5 0 -10 -6 -10 -12z"/>
<path d="M9858 4087 c-7 -8 -20 -12 -30 -9 -21 5 -88 -16 -88 -29 0 -5 -11 -9
-24 -9 -14 0 -28 -4 -31 -10 -3 -5 -18 -10 -32 -10 -15 0 -34 -7 -43 -15 -20
-18 -125 -46 -148 -39 -12 4 -13 3 -4 -3 16 -12 -24 -31 -84 -40 -51 -7 -83
-35 -65 -57 12 -15 55 -10 45 5 -3 5 0 9 5 9 6 0 11 -4 11 -10 0 -18 18 -11
23 9 3 14 17 21 51 26 25 4 50 14 55 23 5 9 16 13 30 9 14 -3 24 0 28 9 3 8
16 14 28 14 13 0 27 5 30 10 3 6 17 10 30 10 13 0 27 5 30 11 4 6 13 8 20 5 8
-3 15 -1 17 4 2 5 14 11 28 13 28 4 57 14 82 28 10 5 26 9 35 9 10 0 23 11 30
25 9 20 8 25 -3 25 -7 0 -19 -6 -26 -13z"/>
<path d="M8750 3660 c0 -6 12 -15 28 -21 15 -6 37 -22 50 -37 15 -17 22 -21
18 -9 -3 9 -1 17 5 17 6 0 8 4 5 8 -3 5 1 9 8 9 8 0 11 -8 9 -18 -3 -9 0 -20
6 -23 6 -4 11 0 11 8 0 9 5 16 11 16 13 0 -6 20 -43 44 -26 17 -26 17 -24 -8
3 -21 1 -23 -15 -13 -22 14 -24 23 -6 30 6 3 -5 6 -25 6 -21 1 -38 -4 -38 -9z"/>
<path d="M8790 3580 c0 -5 5 -10 10 -10 6 0 10 5 10 10 0 6 -4 10 -10 10 -5 0
-10 -4 -10 -10z"/>
<path d="M8910 3581 c0 -13 8 -17 48 -26 25 -5 32 -3 32 8 0 8 -7 18 -16 21
-24 9 -64 7 -64 -3z"/>
<path d="M3717 3573 c-4 -3 -7 -13 -7 -22 1 -13 3 -13 11 2 11 19 8 33 -4 20z"/>
<path d="M8825 3557 c-4 -10 -5 -21 -1 -24 10 -10 18 4 13 24 -4 17 -4 17 -12
0z"/>
<path d="M8883 3543 c4 -3 1 -13 -6 -21 -10 -13 -9 -15 7 -9 14 6 17 4 12 -8
-3 -8 -1 -15 4 -15 6 0 10 -5 10 -11 0 -5 -4 -8 -9 -4 -5 3 -13 1 -16 -5 -4
-6 -1 -9 5 -8 7 2 14 -5 15 -15 2 -12 -1 -17 -10 -13 -7 2 -16 -2 -19 -9 -3
-9 -12 -12 -22 -8 -15 5 -15 7 0 15 23 13 21 41 -3 33 -26 -8 -37 12 -18 33
14 15 14 17 -7 17 -13 0 -22 -5 -19 -10 4 -12 -33 -55 -47 -55 -5 0 -18 -13
-30 -30 -18 -25 -19 -30 -6 -30 9 0 15 5 14 11 -2 6 8 18 22 27 13 9 21 12 17
6 -3 -6 5 -16 19 -23 l26 -12 -24 -23 c-13 -13 -34 -49 -48 -80 -14 -32 -31
-56 -40 -56 -9 0 -4 -9 14 -23 26 -21 27 -24 12 -39 -9 -9 -16 -19 -16 -21 0
-10 48 -20 110 -22 79 -3 99 -7 110 -25 7 -11 14 -12 35 -2 24 11 27 10 22 -2
-4 -9 -2 -18 3 -21 6 -4 10 -2 10 3 0 7 42 32 55 32 2 0 1 -7 -2 -17 -4 -11
-3 -14 5 -9 7 4 12 14 12 22 0 19 41 34 75 28 15 -3 32 -1 39 4 6 6 36 20 66
33 30 13 67 32 82 42 14 11 31 16 37 13 18 -11 193 276 177 291 -3 4 -6 2 -6
-3 0 -6 -8 -19 -18 -30 -10 -10 -28 -39 -40 -64 -23 -48 -87 -107 -112 -102
-12 2 -12 1 -2 -6 11 -7 6 -15 -20 -33 -18 -13 -37 -29 -43 -36 -5 -7 -19 -14
-31 -16 -12 -1 -33 -10 -47 -20 -14 -9 -33 -14 -41 -11 -9 4 -16 1 -16 -6 0
-8 -8 -10 -22 -5 -49 14 -158 21 -158 9 0 -10 12 -17 75 -39 18 -7 17 -8 -10
-16 -23 -7 -43 -3 -82 13 -29 12 -53 24 -53 28 0 7 -98 3 -127 -6 -13 -3 -23
-2 -23 4 0 14 26 33 34 24 4 -4 6 0 4 8 -1 8 3 14 10 13 6 -2 12 3 12 10 0 8
9 13 23 12 12 -1 28 2 35 8 6 5 29 7 50 4 20 -3 46 -2 57 3 18 7 16 9 -15 18
-29 9 -20 10 50 6 68 -5 88 -10 103 -26 16 -19 17 -19 17 -2 0 17 1 17 13 0
10 -13 23 -17 52 -14 37 4 64 28 30 28 -9 0 -29 8 -43 18 -22 15 -48 19 -140
20 -101 2 -114 0 -119 -15 -6 -23 -88 -29 -109 -8 -12 12 -19 11 -44 -3 -49
-28 -38 -44 13 -18 34 19 36 4 1 -19 -14 -9 -31 -29 -38 -45 -11 -27 -12 -28
-24 -10 -9 15 -9 22 3 34 13 12 12 15 -2 20 -14 6 -14 8 2 26 10 11 22 17 27
14 6 -4 6 2 0 13 -9 16 -4 25 29 56 38 36 68 50 53 25 -5 -9 -3 -9 9 1 9 7 14
17 11 22 -6 11 14 11 78 0 40 -7 51 -5 65 11 20 23 11 35 -11 13 -9 -9 -21
-13 -27 -9 -7 4 -24 7 -38 8 -19 1 -26 7 -27 21 -1 11 -6 33 -13 48 -6 16 -11
33 -11 38 0 5 -5 9 -12 9 -6 0 -8 -3 -5 -7z m-60 -88 c0 -6 -7 -11 -16 -13
-12 -3 -15 1 -11 13 7 17 25 17 27 0z m387 -179 c0 -2 -7 -6 -15 -10 -8 -3
-15 -1 -15 4 0 6 7 10 15 10 8 0 15 -2 15 -4z m182 -18 c-7 -7 -12 -8 -12 -2
0 14 12 26 19 19 2 -3 -1 -11 -7 -17z"/>
<path d="M8690 3500 c0 -13 28 -25 38 -16 3 4 0 11 -8 16 -20 13 -30 12 -30 0z"/>
<path d="M9474 3480 c-5 -5 -22 -11 -36 -12 -15 -1 -25 -6 -22 -10 4 -7 -41
-17 -81 -17 -111 -2 -161 1 -163 10 -3 6 -9 6 -18 -2 -7 -6 -34 -9 -59 -7 -41
3 -57 -4 -37 -16 5 -3 62 -7 127 -10 66 -3 134 -9 152 -12 26 -5 33 -3 33 10
0 10 9 16 24 16 14 0 28 5 31 10 3 6 11 10 16 10 6 0 8 -4 5 -9 -3 -5 1 -14 9
-21 12 -10 14 -8 10 8 -2 10 5 25 16 33 19 14 25 29 11 29 -4 0 -12 -4 -18
-10z m-117 -66 c-3 -3 -12 -4 -19 -1 -8 3 -5 6 6 6 11 1 17 -2 13 -5z"/>
<path d="M8663 3445 c0 -8 4 -12 9 -9 5 3 6 10 3 15 -9 13 -12 11 -12 -6z"/>
<path d="M8763 3403 c4 -6 -4 -18 -18 -27 -14 -9 -25 -21 -25 -26 0 -19 19
-10 40 19 14 21 17 32 9 37 -7 4 -9 3 -6 -3z"/>
<path d="M8925 3350 c-3 -5 1 -10 10 -10 9 0 13 5 10 10 -3 6 -8 10 -10 10 -2
0 -7 -4 -10 -10z"/>
<path d="M3614 3323 c-3 -16 -8 -35 -10 -43 -4 -10 -2 -12 4 -5 11 12 26 75
18 75 -3 0 -8 -12 -12 -27z"/>
<path d="M9218 3339 c-28 -16 -22 -30 7 -19 21 8 27 6 32 -8 4 -9 11 -20 17
-24 16 -11 48 -10 42 1 -4 5 4 7 16 3 20 -5 21 -3 10 11 -7 8 -26 15 -42 15
-16 -1 -36 6 -45 16 -9 9 -17 16 -18 16 -1 0 -10 -5 -19 -11z"/>
<path d="M8883 3322 c-13 -2 -23 -10 -23 -18 0 -11 6 -13 23 -8 27 8 30 11 26
21 -2 4 -14 7 -26 5z"/>
<path d="M9886 3251 c-25 -32 -42 -61 -39 -65 11 -10 45 -7 38 5 -9 13 22 79
37 79 7 0 7 -4 -1 -13 -6 -8 -8 -17 -4 -20 14 -14 19 -6 21 33 2 22 1 40 -2
40 -3 0 -25 -26 -50 -59z"/>
<path d="M9035 3269 c-3 -4 19 -9 49 -11 36 -2 52 1 49 8 -5 12 -91 15 -98 3z"/>
<path d="M8958 3223 c7 -3 16 -2 19 1 4 3 -2 6 -13 5 -11 0 -14 -3 -6 -6z"/>
<path d="M8683 3195 c-3 -9 -3 -18 -1 -21 3 -3 8 4 11 16 6 23 -1 27 -10 5z"/>
<path d="M9300 3179 c0 -5 5 -7 10 -4 6 3 10 8 10 11 0 2 -4 4 -10 4 -5 0 -10
-5 -10 -11z"/>
<path d="M9806 3144 c-9 -22 -8 -24 9 -24 8 0 15 9 15 20 0 24 -15 27 -24 4z"/>
<path d="M5170 3146 c0 -2 7 -6 15 -10 8 -3 15 -1 15 4 0 6 -7 10 -15 10 -8 0
-15 -2 -15 -4z"/>
<path d="M5607 3131 c-2 -10 -1 -24 3 -30 4 -7 7 1 8 18 1 35 -3 40 -11 12z"/>
<path d="M5505 3120 c-3 -5 -1 -10 4 -10 6 0 11 5 11 10 0 6 -2 10 -4 10 -3 0
-8 -4 -11 -10z"/>
<path d="M5410 3105 c0 -8 7 -15 15 -15 8 0 15 4 15 9 0 5 -7 11 -15 15 -9 3
-15 0 -15 -9z"/>
<path d="M5228 3103 c6 -2 18 -2 25 0 6 3 1 5 -13 5 -14 0 -19 -2 -12 -5z"/>
<path d="M9807 3096 c-4 -10 -5 -21 -2 -24 9 -9 17 6 13 25 -3 17 -4 17 -11
-1z"/>
<path d="M5540 3060 c0 -5 7 -10 15 -10 8 0 15 5 15 10 0 6 -7 10 -15 10 -8 0
-15 -4 -15 -10z"/>
<path d="M9741 3042 c-8 -15 -8 -23 0 -28 17 -10 33 11 21 32 -9 16 -10 16
-21 -4z"/>
<path d="M3801 2932 c-13 -42 -44 -114 -68 -159 -23 -44 -43 -89 -43 -100 0
-10 8 -2 20 22 11 22 36 69 56 104 20 36 37 69 38 75 1 6 10 32 20 58 16 42
21 47 42 42 13 -3 24 -4 24 0 0 5 -54 36 -62 36 -2 0 -14 -35 -27 -78z"/>
<path d="M9737 2986 c-17 -13 -17 -14 1 -18 12 -4 18 1 19 13 2 22 3 22 -20 5z"/>
<path d="M9685 2979 c-4 -5 -4 -22 -1 -37 5 -18 4 -22 -3 -13 -10 15 -31 7
-31 -13 0 -8 -7 -19 -15 -26 -11 -9 -14 -22 -10 -42 6 -24 3 -28 -14 -28 -28
0 -48 -36 -50 -90 -1 -57 18 -41 24 19 4 44 9 55 26 57 5 1 13 2 18 3 5 0 12
18 15 39 12 66 16 73 37 67 14 -5 19 -2 19 12 0 10 3 28 6 41 6 22 -9 31 -21
11z"/>
<path d="M3950 2920 c0 -5 5 -10 11 -10 5 0 7 5 4 10 -3 6 -8 10 -11 10 -2 0
-4 -4 -4 -10z"/>
<path d="M9677 2881 c-3 -14 0 -21 9 -21 16 0 18 9 5 28 -6 10 -10 9 -14 -7z"/>
<path d="M3462 2660 c0 -95 2 -107 9 -68 5 27 5 75 0 115 -8 66 -8 65 -9 -47z"/>
<path d="M5518 2698 c-8 -13 -20 -38 -27 -55 -8 -18 -18 -33 -24 -33 -7 0 -7
-4 1 -12 14 -14 12 -17 44 60 28 65 30 77 6 40z"/>
<path d="M9507 2678 c-11 -22 -12 -35 -5 -39 6 -4 7 -8 0 -10 -5 -2 -6 -12 -1
-24 7 -19 8 -19 8 2 1 12 6 25 12 29 6 3 8 16 5 27 -3 12 0 27 6 34 6 8 7 13
0 13 -5 0 -17 -15 -25 -32z"/>
<path d="M3645 2619 c-4 -6 -5 -12 -2 -15 2 -3 7 2 10 11 7 17 1 20 -8 4z"/>
<path d="M9439 2565 c-1 -11 -1 -30 0 -42 1 -15 -4 -23 -13 -23 -25 0 -26 -15
-1 -16 19 -2 24 5 28 34 4 19 2 42 -3 51 -8 14 -10 13 -11 -4z"/>
<path d="M9495 2551 c-3 -5 -2 -12 3 -15 5 -3 9 1 9 9 0 17 -3 19 -12 6z"/>
<path d="M13394 2552 c3 -5 -2 -21 -10 -36 -20 -39 -17 -46 6 -16 21 27 26 60
9 60 -5 0 -8 -4 -5 -8z"/>
<path d="M9371 2453 c-10 -19 -6 -33 10 -33 12 0 18 26 9 40 -6 10 -10 8 -19
-7z"/>
<path d="M3431 2444 c0 -11 3 -14 6 -6 3 7 2 16 -1 19 -3 4 -6 -2 -5 -13z"/>
<path d="M13332 2440 c0 -14 2 -19 5 -12 2 6 2 18 0 25 -3 6 -5 1 -5 -13z"/>
<path d="M9370 2391 c0 -6 5 -13 10 -16 6 -3 10 1 10 9 0 9 -4 16 -10 16 -5 0
-10 -4 -10 -9z"/>
<path d="M9307 2345 c-3 -16 0 -24 7 -22 14 4 21 47 8 47 -5 0 -12 -11 -15
-25z"/>
<path d="M13273 2353 c-15 -5 -17 -23 -4 -23 5 0 11 7 15 15 3 8 4 15 3 14 -1
0 -8 -3 -14 -6z"/>
<path d="M13216 2278 c3 -5 -2 -20 -11 -34 -9 -14 -14 -28 -11 -32 7 -7 7 -6
28 39 13 29 13 36 2 36 -7 0 -11 -4 -8 -9z"/>
<path d="M9245 2240 c-4 -6 -3 -16 3 -22 6 -6 12 -6 17 2 4 6 3 16 -3 22 -6 6
-12 6 -17 -2z"/>
<path d="M3381 2183 c-7 -32 -16 -74 -21 -93 -14 -59 -21 -128 -11 -105 5 11
10 33 10 48 1 16 5 26 11 22 6 -3 10 -3 11 2 3 42 11 78 17 82 4 4 15 18 24
32 16 25 16 27 -6 48 l-23 21 -12 -57z"/>
<path d="M9190 2144 c-13 -33 -13 -34 6 -34 11 0 14 5 10 16 -4 9 -1 23 5 30
9 11 9 14 0 14 -6 0 -16 -12 -21 -26z"/>
<path d="M13147 2120 c-10 -18 -13 -40 -8 -56 5 -21 8 -17 17 30 5 31 9 56 8
56 -2 0 -9 -13 -17 -30z"/>
<path d="M9129 2055 c-3 -32 -4 -36 -19 -45 -19 -11 -6 -25 16 -16 10 4 14 13
11 26 -3 11 -1 20 4 20 5 0 9 7 9 15 0 8 -4 15 -10 15 -5 0 -11 -7 -11 -15z"/>
<path d="M13086 2042 c-8 -13 0 -46 12 -50 7 -2 12 0 12 5 0 4 3 18 6 31 5 16
2 22 -9 22 -9 0 -18 -4 -21 -8z"/>
<path d="M13070 1966 c0 -9 7 -12 21 -9 16 4 17 8 7 14 -19 13 -28 11 -28 -5z"/>
<path d="M9066 1953 c-3 -3 -6 -15 -6 -26 0 -11 -14 -32 -31 -46 -24 -21 -32
-36 -36 -74 -8 -68 12 -59 23 11 8 51 11 57 32 55 18 -2 22 2 22 25 0 15 5 33
11 39 6 6 7 13 1 17 -5 3 -12 3 -16 -1z"/>
<path d="M591 1873 c1 -62 6 -56 11 15 2 23 0 42 -4 42 -5 0 -7 -26 -7 -57z"/>
<path d="M13043 1913 c-7 -2 -13 -13 -13 -24 0 -11 -6 -28 -12 -39 -10 -15
-10 -22 -1 -31 9 -9 13 -3 18 24 4 20 13 38 21 41 8 3 14 12 14 21 0 15 -6 17
-27 8z"/>
<path d="M12964 1760 c3 -16 1 -32 -4 -35 -6 -3 -10 -14 -9 -23 0 -11 3 -12 6
-4 7 18 21 15 26 -5 2 -10 3 -2 2 18 -1 20 -5 41 -9 47 -3 6 2 12 11 14 14 3
13 5 -6 10 -21 6 -23 4 -17 -22z"/>
<path d="M578 1762 c-3 -10 -6 -58 -7 -107 -1 -49 -7 -95 -13 -102 -7 -9 -7
-17 1 -27 10 -11 10 -20 1 -36 -7 -12 -10 -30 -7 -41 3 -10 0 -20 -7 -23 -8
-3 -7 -7 3 -14 9 -6 11 -17 5 -33 -4 -13 -7 -34 -5 -46 1 -11 -3 -24 -9 -28
-5 -3 -7 -12 -3 -18 9 -14 11 -70 2 -77 -4 -3 -9 -15 -13 -27 -6 -17 -3 -23 8
-23 9 0 16 6 17 13 0 6 2 19 3 27 2 8 6 58 10 110 4 52 11 122 16 155 11 71
18 315 9 315 -4 0 -9 -8 -11 -18z"/>
<path d="M8955 1770 c-3 -5 -2 -10 4 -10 5 0 13 5 16 10 3 6 2 10 -4 10 -5 0
-13 -4 -16 -10z"/>
<path d="M8929 1738 c0 -7 -2 -30 -3 -50 -1 -21 1 -38 5 -38 7 0 19 51 19 81
0 21 -20 27 -21 7z"/>
<path d="M8887 1656 c-17 -18 -32 -74 -22 -84 10 -10 25 21 19 39 -2 9 3 24
12 33 9 10 14 19 11 22 -2 3 -12 -2 -20 -10z"/>
<path d="M12900 1625 c0 -19 -5 -37 -10 -40 -6 -4 -8 -10 -5 -15 9 -15 -14
-50 -29 -44 -13 5 -16 -4 -30 -83 -2 -13 -1 -23 3 -23 14 0 31 25 31 46 0 13
7 29 15 38 20 20 35 61 35 96 0 31 15 48 23 28 3 -7 6 -4 6 7 1 14 -6 21 -19
22 -16 1 -20 -4 -20 -32z"/>
<path d="M8819 1550 c-1 -8 -1 -18 0 -22 0 -5 -3 -8 -7 -8 -5 0 -14 -11 -20
-25 -10 -22 -9 -25 8 -25 14 0 20 7 20 23 0 13 4 27 10 33 6 6 6 15 0 24 -9
13 -10 13 -11 0z"/>
<path d="M12720 1539 c0 -5 5 -7 10 -4 6 3 10 8 10 11 0 2 -4 4 -10 4 -5 0
-10 -5 -10 -11z"/>
<path d="M8744 1425 c-8 -13 -13 -29 -9 -35 3 -5 -1 -13 -10 -16 -13 -6 -14
-8 -3 -15 21 -14 28 -10 28 15 0 14 7 32 16 40 9 9 11 16 4 16 -6 0 -8 5 -5
10 14 22 -6 8 -21 -15z"/>
<path d="M12955 1431 c-3 -5 -2 -12 3 -15 5 -3 9 1 9 9 0 17 -3 19 -12 6z"/>
<path d="M12765 1331 c-7 -68 -8 -70 -30 -61 -26 10 -36 4 -29 -15 3 -7 14
-11 25 -8 14 4 19 0 20 -13 0 -11 7 2 16 29 9 26 20 47 24 47 5 0 9 7 9 15 0
8 -4 15 -10 15 -5 0 -10 9 -10 20 0 13 6 20 14 18 8 -2 16 2 18 7 2 6 -7 11
-18 13 -20 3 -22 -3 -29 -67z"/>
<path d="M3090 1361 c0 -5 5 -13 10 -16 6 -3 10 -2 10 4 0 5 -4 13 -10 16 -5
3 -10 2 -10 -4z"/>
<path d="M8670 1273 c0 -53 14 -48 24 10 6 30 4 37 -9 37 -11 0 -15 -11 -15
-47z"/>
<path d="M8622 1224 c-12 -18 -22 -45 -22 -60 0 -16 -5 -24 -12 -21 -21 6 -51
-54 -52 -105 -2 -59 10 -53 19 10 8 58 14 68 40 67 11 0 20 5 21 10 2 27 18
92 26 108 17 33 4 27 -20 -9z"/>
<path d="M12700 1186 c0 -13 -3 -38 -6 -55 -4 -18 -2 -31 4 -31 12 0 35 87 27
101 -11 17 -25 9 -25 -15z"/>
<path d="M12866 1198 c3 -5 10 -6 15 -3 13 9 11 12 -6 12 -8 0 -12 -4 -9 -9z"/>
<path d="M12757 1175 c-4 -8 -2 -17 3 -20 6 -4 10 3 10 14 0 25 -6 27 -13 6z"/>
<path d="M505 1140 c-3 -5 -1 -10 4 -10 6 0 11 5 11 10 0 6 -2 10 -4 10 -3 0
-8 -4 -11 -10z"/>
<path d="M518 1073 c-9 -38 -15 -69 -13 -71 6 -6 45 90 45 113 0 46 -15 26
-32 -42z"/>
<path d="M12650 1130 c0 -5 7 -10 15 -10 8 0 15 5 15 10 0 6 -7 10 -15 10 -8
0 -15 -4 -15 -10z"/>
<path d="M12645 1060 c-3 -5 1 -10 9 -10 9 0 16 -6 16 -12 0 -14 20 11 20 25
0 11 -38 9 -45 -3z"/>
<path d="M7376 1033 c-6 -14 -5 -15 5 -6 7 7 10 15 7 18 -3 3 -9 -2 -12 -12z"/>
<path d="M12645 1012 c-4 -9 -8 -27 -9 -40 -1 -13 -7 -27 -14 -31 -7 -4 -10
-15 -6 -24 9 -25 24 -20 24 8 0 16 6 25 15 25 10 0 15 10 15 34 0 39 -14 55
-25 28z"/>
<path d="M8475 979 c-16 -30 -14 -65 4 -55 5 3 12 21 15 40 4 19 12 37 19 39
7 3 5 6 -5 6 -10 1 -25 -13 -33 -30z"/>
<path d="M12585 930 c3 -5 8 -10 11 -10 2 0 4 5 4 10 0 6 -5 10 -11 10 -5 0
-7 -4 -4 -10z"/>
<path d="M512 900 c0 -14 2 -19 5 -12 2 6 2 18 0 25 -3 6 -5 1 -5 -13z"/>
<path d="M8421 886 c-12 -18 -21 -38 -21 -45 0 -6 -4 -11 -9 -11 -5 0 -11 -7
-14 -14 -4 -10 -1 -13 9 -9 11 4 14 -4 14 -32 0 -23 4 -34 11 -29 6 3 8 16 5
28 -3 12 -1 38 4 57 5 19 10 39 11 44 0 6 5 18 10 28 17 30 1 18 -20 -17z"/>
<path d="M8461 891 c-8 -6 -9 -11 -3 -15 6 -3 14 -1 17 5 9 14 2 20 -14 10z"/>
<path d="M12583 856 c17 -14 24 -32 8 -21 -12 7 -25 -30 -26 -70 0 -26 -4 -30
-27 -30 -17 1 -28 -5 -28 -13 0 -9 7 -11 19 -7 14 4 20 -1 25 -20 4 -14 11
-25 17 -25 6 0 8 8 5 18 -7 20 17 104 38 133 19 28 10 49 -23 49 -24 -1 -24
-2 -8 -14z"/>
<path d="M511 770 c0 -15 -6 -31 -13 -38 -9 -9 -9 -15 -1 -23 14 -14 27 26 20
62 -4 23 -4 23 -6 -1z"/>
<path d="M8352 778 c-6 -6 -12 -27 -12 -45 0 -18 -3 -32 -7 -32 -18 3 -33 -2
-33 -9 0 -5 12 -8 28 -7 21 1 28 7 30 25 2 14 7 30 12 35 4 6 5 18 1 28 -5 14
-9 15 -19 5z"/>
<path d="M11871 754 c0 -11 3 -14 6 -6 3 7 2 16 -1 19 -3 4 -6 -2 -5 -13z"/>
<path d="M12509 673 c-6 -65 -17 -159 -23 -188 -2 -13 -11 -20 -24 -20 -26 -1
-30 -20 -4 -20 15 0 18 -8 13 -45 0 -5 -12 -10 -26 -10 -14 0 -25 -6 -25 -13
0 -24 12 -27 40 -10 24 14 29 25 35 72 4 31 10 61 15 66 4 6 13 32 19 60 9 37
9 51 1 53 -7 3 -6 10 5 22 16 17 15 19 -4 30 -12 6 -21 7 -22 3z"/>
<path d="M8277 639 c-7 -38 -6 -79 3 -79 11 0 20 84 10 94 -5 5 -11 -1 -13
-15z"/>
<path d="M8220 561 c0 -11 -7 -27 -16 -35 -13 -14 -14 -18 -1 -31 18 -18 27
-10 27 26 0 15 5 31 10 34 15 9 12 25 -5 25 -8 0 -15 -9 -15 -19z"/>
<path d="M12625 550 c3 -5 8 -10 11 -10 2 0 4 5 4 10 0 6 -5 10 -11 10 -5 0
-7 -4 -4 -10z"/>
<path d="M12635 490 c-3 -5 -1 -10 4 -10 6 0 11 5 11 10 0 6 -2 10 -4 10 -3 0
-8 -4 -11 -10z"/>
<path d="M8126 481 c-4 -5 -2 -12 3 -15 5 -4 12 -2 15 3 4 5 2 12 -3 15 -5 4
-12 2 -15 -3z"/>
<path d="M8123 393 c-28 -42 -44 -79 -48 -108 -6 -53 11 -61 21 -10 3 19 11
35 16 35 6 0 6 6 -1 14 -9 11 -8 18 4 30 9 9 20 14 25 11 11 -7 28 16 32 45 2
19 10 26 31 28 38 5 34 17 -6 18 -29 0 -36 -7 -74 -63z"/>
<path d="M11310 400 c0 -5 5 -10 11 -10 5 0 7 5 4 10 -3 6 -8 10 -11 10 -2 0
-4 -4 -4 -10z"/>
<path d="M11840 399 c0 -5 5 -7 10 -4 6 3 10 8 10 11 0 2 -4 4 -10 4 -5 0 -10
-5 -10 -11z"/>
<path d="M12370 389 c0 -5 5 -7 10 -4 6 3 10 8 10 11 0 2 -4 4 -10 4 -5 0 -10
-5 -10 -11z"/>
<path d="M8143 336 c3 -8 2 -17 -4 -20 -5 -2 -4 -3 2 -2 15 3 21 36 7 36 -6 0
-8 -6 -5 -14z"/>
<path d="M12430 330 c-18 -4 -24 -12 -22 -28 2 -12 -4 -50 -12 -84 -9 -35 -17
-83 -20 -106 -5 -49 -7 -52 -33 -56 -20 -3 -30 -33 -16 -47 15 -15 43 1 43 23
0 11 7 26 15 34 8 9 15 31 15 49 0 19 5 37 10 40 6 3 10 22 10 41 0 19 4 33 8
30 5 -3 9 0 9 7 0 7 6 32 12 56 7 23 11 44 9 45 -2 2 -14 0 -28 -4z"/>
<path d="M8040 249 c0 -5 5 -7 10 -4 6 3 10 8 10 11 0 2 -4 4 -10 4 -5 0 -10
-5 -10 -11z"/>
<path d="M12351 244 c0 -11 3 -14 6 -6 3 7 2 16 -1 19 -3 4 -6 -2 -5 -13z"/>
<path d="M8017 203 c-9 -50 -7 -114 3 -108 6 3 10 24 10 45 0 21 4 41 9 44 11
7 3 46 -9 46 -5 0 -11 -12 -13 -27z"/>
<path d="M9482 180 c0 -14 2 -19 5 -12 2 6 2 18 0 25 -3 6 -5 1 -5 -13z"/>
<path d="M7967 122 c-23 -26 -37 -67 -27 -83 8 -11 12 -10 24 6 8 12 11 26 6
34 -5 10 -1 20 13 31 12 10 16 19 10 23 -6 4 -17 -1 -26 -11z"/>
<path d="M12333 102 c0 -10 6 -19 12 -19 6 0 12 9 12 19 1 10 -4 18 -12 18 -8
0 -13 -8 -12 -18z"/>
<path d="M12490 109 c0 -5 5 -7 10 -4 6 3 10 8 10 11 0 2 -4 4 -10 4 -5 0 -10
-5 -10 -11z"/>
</g>
</svg>
