<?xml version="1.0" encoding="UTF-8"?>
<svg version="1.1" xmlns="http://www.w3.org/2000/svg" width="1500" height="1500">
<path d="M0 0 C1.31774414 -0.02473389 2.63548828 -0.04946777 3.99316406 -0.07495117 C18.13705847 0.19596071 28.15703507 6.85116068 38.5 16 C39.11230469 16.51820312 39.72460938 17.03640625 40.35546875 17.5703125 C56.47873565 32.25466084 61.74083955 54.42354278 65.5 75 C66.510625 75.268125 67.52125 75.53625 68.5625 75.8125 C78.69200547 78.79176631 78.69200547 78.79176631 81.1796875 82.51171875 C82.87494832 86.9906179 82.94104482 90.81828026 82.875 95.5625 C82.88660156 96.39974609 82.89820313 97.23699219 82.91015625 98.09960938 C82.88269279 103.88066755 81.99330966 107.41079381 77.875 111.6875 C74.82329239 113.37397 71.83592777 113.93404948 68.42578125 114.5703125 C66.50249079 114.81879233 66.50249079 114.81879233 65.5 116 C65.40480632 118.7998972 65.37446056 121.57506174 65.38647461 124.37524414 C65.38625557 125.69219521 65.38625557 125.69219521 65.3860321 127.03575134 C65.38673156 129.95224435 65.39452545 132.86867433 65.40234375 135.78515625 C65.40420782 137.80154892 65.40563177 139.81794204 65.40663147 141.83433533 C65.41045756 147.15265138 65.42028861 152.4709403 65.43133545 157.78924561 C65.44154762 163.21170688 65.44612867 168.63417252 65.45117188 174.05664062 C65.4619108 184.70443903 65.47898831 195.35221726 65.5 206 C66.58796875 206.30164063 67.6759375 206.60328125 68.796875 206.9140625 C74.16960245 208.48960916 78.60869701 209.97826323 81.5 215 C82.36653851 217.84393748 82.62133881 220.40584201 82.640625 223.37109375 C82.66962891 224.60375977 82.66962891 224.60375977 82.69921875 225.86132812 C82.73299127 227.57463392 82.75129599 229.28831649 82.75390625 231.00195312 C82.77839844 231.82501953 82.80289062 232.64808594 82.828125 233.49609375 C82.8374707 234.24044678 82.84681641 234.9847998 82.85644531 235.75170898 C83.8435647 239.20026076 85.77602253 240.73294024 88.5 243 C91.44606757 244.43332197 91.44606757 244.43332197 94.69921875 245.39453125 C95.89901367 245.78809814 97.09880859 246.18166504 98.33496094 246.5871582 C98.96366089 246.78669098 99.59236084 246.98622375 100.2401123 247.19180298 C103.54661748 248.2456958 106.83337358 249.35788808 110.12109375 250.46875 C110.76905914 250.68698929 111.41702454 250.90522858 112.08462524 251.13008118 C133.10386682 258.26403013 154.62717717 268.85004745 172.5 282 C174.0256585 283.09428441 175.55174043 284.18797859 177.078125 285.28125 C184.7471249 290.81460747 192.31922716 296.33390996 199.19921875 302.83984375 C201.16504138 304.68551424 203.16873396 306.4476486 205.2109375 308.20703125 C216.60738313 318.14432932 227.23708195 329.0534328 236.5 341 C237.32371094 341.97195313 238.14742187 342.94390625 238.99609375 343.9453125 C255.11279954 363.05561189 268.70355695 385.01212593 280.5 407 C281.03753906 407.9890332 281.57507812 408.97806641 282.12890625 409.99707031 C296.57870043 436.6831082 308.49045697 464.35654655 318.5 493 C318.90669922 494.15048828 319.31339844 495.30097656 319.73242188 496.48632812 C337.84536962 547.99943849 348.29073627 601.27584575 356.78125 655.09765625 C356.96131592 656.22300781 357.14138184 657.34835937 357.3269043 658.5078125 C357.63527531 660.44765069 357.93467573 662.38895291 358.22192383 664.33203125 C358.97140798 669.0898296 360.14921129 672.72643732 362.5 677 C362.5 677.66 362.5 678.32 362.5 679 C368.40782555 681.45212631 373.6260028 681.06501302 379.8671875 680.65820312 C384.0306915 680.52152244 386.66868991 680.67169291 390 683.32421875 C393.41218819 686.97632643 393.62726259 689.48249755 393.67700195 694.29418945 C393.68983719 695.37573807 393.70267242 696.45728668 393.71589661 697.5716095 C393.72697701 699.32473701 393.72697701 699.32473701 393.73828125 701.11328125 C393.746353 702.31558884 393.75442474 703.51789642 393.76274109 704.75663757 C393.77657972 707.30283161 393.78730286 709.84904417 393.79516602 712.39526367 C393.81238563 716.28665323 393.85627647 720.17719482 393.90039062 724.06835938 C393.91051697 726.54166042 393.91903325 729.01496868 393.92578125 731.48828125 C393.94328934 732.65096024 393.96079742 733.81363922 393.97883606 735.0115509 C393.96206359 741.26635393 393.90544816 745.35751773 389.5 750 C386.31065936 752.00138765 383.83941288 752.25044074 380.1060583 752.251849 C378.45041867 752.25974389 378.45041867 752.25974389 376.76133177 752.26779827 C375.54651649 752.26340179 374.33170122 752.25900531 373.08007336 752.25447559 C371.13888725 752.25928531 371.13888725 752.25928531 369.15848526 752.26419219 C365.54757339 752.27284761 361.93676488 752.26897115 358.3258513 752.26313647 C354.40453302 752.2589802 350.4832341 752.26636013 346.56192046 752.27228898 C339.68300369 752.28107125 332.80411668 752.28235592 325.92519569 752.27878571 C315.69605701 752.27349065 305.46694726 752.27956192 295.23781172 752.28786864 C275.90766929 752.30313358 256.57753993 752.30481113 237.24739274 752.30234561 C222.3228687 752.30051501 207.39834896 752.30226766 192.47382545 752.30657005 C190.33181704 752.30717245 188.18980863 752.30777364 186.04780022 752.30837366 C182.82023378 752.30928088 179.59266734 752.31018955 176.3651009 752.31110601 C146.34450609 752.31953942 116.3239129 752.32386857 86.30331707 752.31969929 C84.60464581 752.31946472 84.60464581 752.31946472 82.87165796 752.31922542 C77.1315968 752.3184196 71.39153565 752.31757383 65.6514745 752.31671212 C64.51142339 752.31654103 63.37137229 752.31636994 62.19677418 752.31619367 C59.89131192 752.31584702 57.58584966 752.31549849 55.2803874 752.31514808 C19.40411899 752.30979038 -16.47212485 752.31772111 -52.34838867 752.33618164 C-92.63021271 752.35688469 -132.91202152 752.36762757 -173.19385117 752.36360615 C-177.4866935 752.36321079 -181.77953583 752.36284925 -186.07237816 752.36250877 C-187.65795639 752.36237268 -187.65795639 752.36237268 -189.27556651 752.36223383 C-205.25280729 752.36106646 -221.23003272 752.3677268 -237.20726967 752.37832069 C-255.37266871 752.39035299 -273.5380339 752.39195448 -291.70343343 752.37953053 C-301.87556449 752.37288534 -312.04761467 752.37457107 -322.21973932 752.38811904 C-329.00899152 752.3963345 -335.79818283 752.39370398 -342.58743003 752.38214377 C-346.45937302 752.37585837 -350.33115766 752.37436071 -354.20309178 752.38600711 C-358.36970574 752.39842494 -362.53593803 752.38776028 -366.70254993 752.37473011 C-367.91034171 752.38203946 -369.11813349 752.3893488 -370.36252502 752.39687964 C-376.47833986 752.35695584 -381.17457765 752.14761346 -386.5 749 C-389.98129054 743.44522474 -389.99587538 737.96395962 -390.08203125 731.53515625 C-390.1047258 730.5430162 -390.12742035 729.55087616 -390.15080261 728.52867126 C-390.1952276 726.43860136 -390.23263802 724.34837188 -390.26342773 722.25805664 C-390.3122981 719.07564772 -390.38787294 715.89468067 -390.46679688 712.71289062 C-390.5068044 710.67450987 -390.54526709 708.63609808 -390.58203125 706.59765625 C-390.60481644 705.65471207 -390.62760162 704.71176788 -390.65107727 703.74024963 C-390.72977152 697.00461918 -390.40550857 690.9217798 -386.625 685.125 C-383.97845561 682.47845561 -381.94159645 681.14892651 -378.18164062 680.76049805 C-377.34826172 680.76090088 -376.51488281 680.76130371 -375.65625 680.76171875 C-374.73972656 680.74560547 -373.82320313 680.72949219 -372.87890625 680.71289062 C-370.95970299 680.69596414 -369.04036061 680.69075522 -367.12109375 680.69726562 C-361.65003867 680.62425523 -361.65003867 680.62425523 -356.95703125 678.08984375 C-354.91257447 673.75427992 -354.31393102 669.60378083 -353.6875 664.875 C-353.35424997 662.61568064 -353.01949593 660.35658283 -352.68359375 658.09765625 C-352.49909668 656.8255127 -352.31459961 655.55336914 -352.12451172 654.24267578 C-344.00105239 598.64112325 -332.46082687 543.98737777 -313.5 491 C-313.14905273 490.01737183 -313.14905273 490.01737183 -312.79101562 489.01489258 C-296.88074632 444.59872411 -276.45191202 400.24820811 -248.5 362 C-248.10232422 361.45359863 -247.70464844 360.90719727 -247.29492188 360.34423828 C-242.22508347 353.40975173 -236.95567218 346.63448706 -231.5 340 C-230.675 338.98808594 -229.85 337.97617187 -229 336.93359375 C-217.23176999 322.72658051 -204.17265914 309.21518424 -189.5 298 C-188.41583142 297.1289557 -187.33393768 296.25507506 -186.25390625 295.37890625 C-155.87739037 270.85557278 -120.7815196 254.10817656 -83.5 243 C-82.51 242.67 -81.52 242.34 -80.5 242 C-79.43424993 239.19015496 -79.35633319 236.42805764 -79.2890625 233.4453125 C-79.26070312 232.58292969 -79.23234375 231.72054687 -79.203125 230.83203125 C-79.15127299 229.03535904 -79.10693355 227.23845343 -79.0703125 225.44140625 C-78.8561697 219.45433059 -78.11940901 214.82090201 -73.875 210.25 C-70.84397854 208.65472555 -67.89063234 208.1619613 -64.5234375 207.625 C-62.12162771 207.11633442 -62.12162771 207.11633442 -60.5 204 C-60.30538801 201.23717383 -60.22702751 198.57551628 -60.24121094 195.8125 C-60.2377063 194.97807373 -60.23420166 194.14364746 -60.23059082 193.28393555 C-60.22178001 190.52253936 -60.22762036 187.76139885 -60.234375 185 C-60.23302816 183.08333283 -60.23108747 181.166666 -60.22857666 179.25 C-60.22562628 175.23173777 -60.2299203 171.21356441 -60.23925781 167.1953125 C-60.25065228 162.04012986 -60.24409235 156.88515546 -60.23211288 151.72998047 C-60.22489198 147.77179388 -60.22718328 143.81365681 -60.23236847 139.85546875 C-60.23370433 137.95442683 -60.23205948 136.05338045 -60.22740936 134.15234375 C-60.22234038 131.49727438 -60.2300596 128.84254406 -60.24121094 126.1875 C-60.23513824 125.00450317 -60.23513824 125.00450317 -60.22894287 123.79760742 C-60.25858929 119.99481836 -60.33825889 118.24261167 -62.5 115 C-65.22928542 114.10323479 -67.96561904 113.54308163 -70.7734375 112.94140625 C-73.94827366 111.84522356 -75.3861743 110.58195605 -77.5 108 C-78.92098885 103.73703344 -78.76461062 99.653983 -78.8125 95.1875 C-78.85600586 93.85235352 -78.85600586 93.85235352 -78.90039062 92.49023438 C-78.95439847 86.88588143 -78.560364 83.24157032 -74.5 79 C-71.5546875 77.86328125 -71.5546875 77.86328125 -68.375 77.3125 C-65.24538347 76.80006292 -65.24538347 76.80006292 -62.5 76 C-60.5777679 73.11665186 -60.16336456 71.98545903 -59.67578125 68.7109375 C-55.76273505 44.49179634 -46.88822085 26.54181078 -28.5 10 C-27.67628906 9.11570312 -26.85257813 8.23140625 -26.00390625 7.3203125 C-18.24101904 0.2511301 -10.03158724 0.09730374 0 0 Z M-36.8125 128 C-39.35183234 132.5143686 -39.63306218 135.68976859 -39.66113281 140.81054688 C-39.66609772 141.49866959 -39.67106262 142.1867923 -39.67617798 142.89576721 C-39.6907734 145.17010499 -39.69759594 147.4443731 -39.703125 149.71875 C-39.70887705 151.29911298 -39.71463477 152.87947593 -39.72039795 154.45983887 C-39.73089938 157.77189458 -39.73674817 161.08392607 -39.74023438 164.39599609 C-39.7457282 168.64323418 -39.76977849 172.89015315 -39.79820633 177.13729095 C-39.81681045 180.40062403 -39.82203703 183.66387972 -39.82357025 186.92726135 C-39.82660057 188.49339042 -39.83464185 190.059518 -39.84775543 191.62559509 C-39.8647758 193.81379701 -39.86294645 196.00121221 -39.85644531 198.18945312 C-39.86009094 199.43505005 -39.86373657 200.68064697 -39.86749268 201.96398926 C-39.7506509 204.97342361 -39.7506509 204.97342361 -38.13372803 206.90040588 C-34.35587074 209.44312387 -28.88370546 208.46560068 -24.5 208.4375 C-23.39398437 208.45748047 -22.28796875 208.47746094 -21.1484375 208.49804688 C-20.08882812 208.49740234 -19.02921875 208.49675781 -17.9375 208.49609375 C-16.96683594 208.49794678 -15.99617188 208.4997998 -14.99609375 208.50170898 C-12.42766621 208.22281108 -12.42766621 208.22281108 -10.86924744 206.39070129 C-9.04665913 203.2084684 -9.1122864 200.90782865 -9.09594727 197.24707031 C-9.08565239 196.24134476 -9.08565239 196.24134476 -9.07514954 195.21530151 C-9.05687684 193.00269266 -9.06072117 190.79079302 -9.06640625 188.578125 C-9.06184287 187.03358735 -9.05653683 185.48905173 -9.05052185 183.94451904 C-9.04158852 180.70641844 -9.04401416 177.46856439 -9.05395508 174.23046875 C-9.0654133 170.09678962 -9.04528374 165.96396876 -9.01603794 161.83040237 C-8.99761332 158.638882 -8.99798131 155.4475646 -9.00367546 152.25600433 C-9.00382808 150.73308869 -8.9978328 149.21015877 -8.98538399 147.68729401 C-8.88535893 136.25063434 -8.88535893 136.25063434 -13.5 126 C-16.88594765 122.85028126 -19.4673041 121.75294941 -24 121.5625 C-29.74974341 121.86206646 -33.23902952 123.3641464 -36.8125 128 Z M17.5 126 C14.66962412 130.54564503 14.12176161 134.02429095 14.11181641 139.3347168 C14.10655945 140.04278473 14.10130249 140.75085266 14.09588623 141.4803772 C14.08276085 143.80355359 14.09139438 146.12603631 14.1015625 148.44921875 C14.09954028 150.07013581 14.09662761 151.69105199 14.09286499 153.31196594 C14.08845236 156.70033475 14.09484086 160.08846558 14.10888672 163.47680664 C14.12601926 167.82153744 14.11610533 172.16571391 14.09816933 176.51042461 C14.08733769 179.85356336 14.09077422 183.19657023 14.0985527 186.53971291 C14.10055431 188.14210895 14.0980968 189.74451695 14.09111404 191.34689903 C14.08350501 193.58274555 14.095093 195.81768776 14.11181641 198.0534668 C14.11420319 199.32554489 14.11658997 200.59762299 14.11904907 201.9082489 C14.24565494 204.96637549 14.24565494 204.96637549 15.86726379 206.90989685 C18.24910439 208.50014267 20.12898887 208.3885889 22.97265625 208.3984375 C24.56883789 208.40423828 24.56883789 208.40423828 26.19726562 208.41015625 C27.30779297 208.39855469 28.41832031 208.38695312 29.5625 208.375 C30.67689453 208.38660156 31.79128906 208.39820313 32.93945312 208.41015625 C34.00228516 208.40628906 35.06511719 208.40242188 36.16015625 208.3984375 C37.13605713 208.39505371 38.11195801 208.39166992 39.11743164 208.38818359 C39.9036792 208.26008301 40.68992676 208.13198242 41.5 208 C43.94815182 204.32777227 43.75856827 202.52557659 43.7746582 198.14526367 C43.77976913 197.45220627 43.78488007 196.75914886 43.79014587 196.04508972 C43.80405167 193.75262831 43.80308395 191.46046734 43.80078125 189.16796875 C43.80466859 187.5723713 43.80900334 185.97677488 43.81376648 184.38117981 C43.82123149 181.03460336 43.82093609 177.6881324 43.81567383 174.34155273 C43.80988882 170.06095145 43.82678508 165.7807842 43.8500185 161.50025463 C43.86478186 158.20332836 43.86562384 154.90650586 43.86250877 151.60955238 C43.86302101 150.03195653 43.86824043 148.45435473 43.87832069 146.876791 C43.89071409 144.66521799 43.8838761 142.45448045 43.87231445 140.24291992 C43.87325859 138.35786995 43.87325859 138.35786995 43.8742218 136.43473816 C43.32326671 131.37788024 41.72279894 128.13108902 38 124.6875 C30.92380092 119.91106562 23.94517217 121.19771485 17.5 126 Z M-112.93359375 317.421875 C-113.94058566 318.52608786 -114.94146576 319.63589293 -115.9375 320.75 C-117.03105048 321.9585139 -118.12480461 323.16684356 -119.21875 324.375 C-119.77046875 324.98730469 -120.3221875 325.59960938 -120.890625 326.23046875 C-122.33532557 327.81893807 -123.79986159 329.38332661 -125.28125 330.9375 C-143.75617074 350.49918078 -158.61072489 373.46441461 -171.5 397 C-172.00885742 397.92731934 -172.51771484 398.85463867 -173.04199219 399.81005859 C-212.73349674 472.7386741 -232.83983555 557.89004093 -240.8125 640.125 C-240.9000354 641.01668884 -240.9875708 641.90837769 -241.07775879 642.8270874 C-244.09916741 660.42427546 -244.09916741 660.42427546 -240.63793945 676.34814453 C-238.60101832 678.18911649 -238.60101832 678.18911649 -235.9375 678.4375 C-233.07755084 677.92417579 -232.21170512 677.31080191 -230.5 675 C-229.4138234 671.74147019 -229.10925427 668.86963432 -228.7734375 665.44921875 C-228.63191437 664.05835657 -228.48962112 662.6675726 -228.34667969 661.27685547 C-228.23277893 660.16089996 -228.23277893 660.16089996 -228.11657715 659.0223999 C-219.86778646 579.29589972 -204.26915635 497.59264494 -171.5 424 C-170.76160889 422.33807617 -170.76160889 422.33807617 -170.00830078 420.64257812 C-159.4707361 397.0914987 -147.63833137 374.58605853 -133.5 353 C-132.82839844 351.95328125 -132.15679688 350.9065625 -131.46484375 349.828125 C-126.71726721 342.53036404 -121.5457509 335.5543265 -116.33447266 328.58398438 C-110.98082262 322.35662434 -110.98082262 322.35662434 -108.5 315 C-110.8359537 314.7648673 -110.8359537 314.7648673 -112.93359375 317.421875 Z M-37.5 321 C-51.85856029 347.19033483 -59.61754329 376.36264465 -67.5 405 C-67.81934509 406.16012604 -67.81934509 406.16012604 -68.1451416 407.34368896 C-86.89210153 475.81141087 -94.4659365 546.32231756 -98.5 617 C-98.57347656 618.25748047 -98.64695312 619.51496094 -98.72265625 620.81054688 C-99.10438255 627.5394881 -99.36783359 634.26156217 -99.5 641 C-99.5133136 641.66702942 -99.5266272 642.33405884 -99.54034424 643.02130127 C-99.62938125 647.66965189 -99.69191944 652.31761952 -99.72915649 656.9666748 C-99.74294412 658.51839874 -99.7612435 660.07008978 -99.78427124 661.6217041 C-99.81400001 663.78577065 -99.82377704 665.94903367 -99.828125 668.11328125 C-99.8374707 669.36923096 -99.84681641 670.62518066 -99.85644531 671.91918945 C-99.757298 674.96812875 -99.757298 674.96812875 -98.13183594 676.89916992 C-96.47758449 678.16599891 -96.47758449 678.16599891 -94.0625 678.5 C-91.31008889 678.19999284 -91.31008889 678.19999284 -89.25 675.875 C-85.8090914 670.22207873 -86.22889842 663.39036225 -85.921875 656.9296875 C-85.81518204 654.84567406 -85.70789364 652.76169105 -85.60009766 650.67773438 C-85.54364075 649.57260498 -85.48718384 648.46747559 -85.42901611 647.32885742 C-80.3370848 549.087395 -68.01871147 452.61385812 -44.31640625 357.1015625 C-44.05788376 356.05698883 -43.79936127 355.01241516 -43.53300476 353.93618774 C-42.29129951 348.92386576 -41.03872515 343.91477691 -39.7644043 338.91064453 C-39.31665991 337.1227801 -38.86913759 335.33486003 -38.421875 333.546875 C-38.21103775 332.73570221 -38.0002005 331.92452942 -37.78297424 331.08877563 C-36.85162477 327.32960257 -36.35403099 324.70223309 -37.5 321 Z M121.5 322 C122.12165328 325.29240868 123.28998925 327.42255087 125.23828125 330.1328125 C125.80498535 330.92937256 126.37168945 331.72593262 126.95556641 332.54663086 C127.56835449 333.39749268 128.18114258 334.24835449 128.8125 335.125 C130.09902846 336.9404346 131.38415982 338.75685999 132.66796875 340.57421875 C133.31427246 341.4873584 133.96057617 342.40049805 134.62646484 343.34130859 C179.77788178 407.41466414 205.54400933 483.35699016 235.49609375 654.24609375 C235.56508377 654.92061081 235.63407379 655.59512787 235.70515442 656.29008484 C236.0046762 659.27109972 236.28101366 662.25206375 236.52661133 665.23803711 C236.61579834 666.22940674 236.70498535 667.22077637 236.796875 668.2421875 C236.86229492 669.0760498 236.92771484 669.90991211 236.99511719 670.76904297 C237.60916669 673.48238162 238.63625217 674.95418794 240.5 677 C243.57035216 678.21198112 245.12253819 678.10065648 248.3125 677.25 C250.67056012 675.27588184 250.67056012 675.27588184 250.75537109 672.98266602 C250.60169463 664.19355426 250.00999066 655.44726615 249.3125 646.6875 C249.24720093 645.8645343 249.18190186 645.0415686 249.11462402 644.19366455 C244.61080778 588.3642727 233.23666868 534.10557672 215.5 481 C215.09168945 479.7737793 214.68337891 478.54755859 214.26269531 477.28417969 C209.5232418 463.20555732 204.15343913 449.42886324 198.375 435.75 C198.09103363 435.07547791 197.80706726 434.40095581 197.51449585 433.70599365 C193.23983329 423.59351212 188.49690397 413.773793 183.5 404 C183.07106445 403.14905762 182.64212891 402.29811523 182.20019531 401.42138672 C169.96149246 377.19684678 153.94680259 354.24665596 135.57421875 334.2578125 C132.96427401 331.4168557 130.43681729 328.50866865 127.91015625 325.59375 C126.81584855 324.3569701 125.66771869 323.16771869 124.5 322 C123.51 322 122.52 322 121.5 322 Z M46.5 331 C47.66212247 337.37846764 49.13432299 343.63872272 50.75 349.9140625 C72.11571139 432.98109021 83.81833456 516.96598063 90.296875 602.39453125 C90.37485384 603.42045631 90.45283268 604.44638138 90.53317451 605.50339508 C91.32486422 615.92314121 92.11032874 626.34324577 92.8677845 636.76554203 C93.15494156 640.70058641 93.44799248 644.63517895 93.74211884 648.56970787 C93.87903112 650.42168415 94.0131486 652.27386939 94.14432526 654.12626076 C94.32581751 656.6868745 94.51672557 659.24662748 94.7097168 661.80639648 C94.76013846 662.55259562 94.81056013 663.29879475 94.86250973 664.06760597 C95.2693097 669.28041221 95.68788372 674.18788372 99.5 678 C102.45746492 678.58345476 102.45746492 678.58345476 105.5 678 C108.54871258 674.15096144 108.87264389 671.18447532 108.79296875 666.359375 C108.77667671 665.33538605 108.77667671 665.33538605 108.76005554 664.29071045 C108.499671 652.92934448 107.61678241 641.58255616 106.8125 630.25 C106.72385681 628.98556061 106.63521362 627.72112122 106.54388428 626.41836548 C99.93539168 532.70119369 87.93284944 438.65416464 50.5 331 C49.18 331 47.86 331 46.5 331 Z " fill="#03467D" transform="translate(748.5,79)"/>
<path d="M0 0 C1.4651984 -0.00343942 2.9303942 -0.00819019 4.39558464 -0.01412097 C8.40791969 -0.02658201 12.42004098 -0.02050269 16.4323768 -0.01128729 C20.80270304 -0.0045614 25.17299321 -0.01525162 29.54331172 -0.02368313 C37.19814383 -0.036045 44.85291465 -0.03726454 52.50775337 -0.0311327 C63.89047829 -0.02203901 75.27314656 -0.03007563 86.65586714 -0.04142394 C106.98415608 -0.06109069 127.31241953 -0.06343843 147.64071572 -0.05822874 C165.42653122 -0.05367279 183.21233661 -0.05426925 200.99815178 -0.06006908 C203.38325234 -0.06082594 205.76835291 -0.06158192 208.15345348 -0.06233703 C211.74745448 -0.06348221 215.34145547 -0.06463208 218.93545647 -0.06579627 C252.34694063 -0.07650084 285.75842142 -0.08122669 319.16990662 -0.07332611 C321.05908678 -0.07288035 321.05908678 -0.07288035 322.98643219 -0.07242559 C333.21438465 -0.0699766 343.44233706 -0.06736504 353.67028947 -0.06474145 C393.58922804 -0.05463331 433.50812456 -0.06300537 473.42705727 -0.086236 C518.26525114 -0.11228709 563.1034197 -0.12516276 607.94162142 -0.11804825 C612.718786 -0.11733217 617.49595057 -0.11665778 622.27311516 -0.1160078 C623.44939683 -0.115838 624.62567849 -0.11566819 625.83760506 -0.11549323 C643.61830051 -0.11318721 661.39897251 -0.12118143 679.1796627 -0.13429928 C699.38779338 -0.14918131 719.59586894 -0.15009262 739.8039984 -0.13222837 C751.12061648 -0.12263704 762.43710616 -0.12415789 773.75371578 -0.14146306 C781.30429399 -0.15190715 788.85477381 -0.14791656 796.40534224 -0.13198302 C800.71282373 -0.12330295 805.02005256 -0.12104343 809.32752161 -0.13625234 C813.24300531 -0.14994743 817.1580181 -0.14536958 821.07347379 -0.12596715 C822.48404917 -0.1222191 823.89466208 -0.12522833 825.30520371 -0.13568023 C838.27583945 -0.22519823 838.27583945 -0.22519823 843.23418617 4.38031673 C844.93086824 6.0769988 844.3538761 8.19163692 844.35860634 10.45471859 C844.35501106 11.18048092 844.35141579 11.90624325 844.34771156 12.65399837 C844.34785759 13.4149229 844.34800362 14.17584743 844.34815407 14.95983028 C844.34745479 17.48673972 844.33966172 20.01357635 844.33184242 22.54047298 C844.3299783 24.28782263 844.32855437 26.0351728 844.3275547 27.78252316 C844.3237291 32.39063608 844.31389846 36.99871768 844.30285072 41.6068182 C844.29263751 46.30540194 844.28805728 51.00399073 844.2830143 55.70258236 C844.27227623 64.92850761 844.2551993 74.15440957 844.23418617 83.38031673 C761.83833195 83.43171522 679.44247579 83.47941639 597.04660988 83.50734615 C595.21851085 83.50796741 595.21851085 83.50796741 593.35348052 83.50860122 C566.86960355 83.51757913 540.38572641 83.52588979 513.90184902 83.53351272 C500.9148904 83.53725486 487.92793183 83.5411445 474.94097328 83.54511166 C473.64858815 83.54550393 472.35620301 83.54589621 471.02465469 83.54630037 C429.10553195 83.55909325 387.18642131 83.58163375 345.2673059 83.6092084 C302.20388284 83.63748444 259.14046648 83.65596801 216.07703429 83.6620617 C210.00002561 83.66292622 203.92301695 83.66390313 197.8460083 83.66494846 C196.05187622 83.66525187 196.05187622 83.66525187 194.22149906 83.6655614 C174.93773768 83.66911189 155.65399698 83.68304044 136.37024404 83.70081284 C117.00176631 83.71844319 97.63330914 83.72522856 78.26482365 83.72082087 C66.74589042 83.71853243 55.22703226 83.72468193 43.70811252 83.74270936 C36.0235377 83.75391843 28.33901231 83.75433647 20.65443414 83.74581218 C16.26941216 83.74126189 11.88453263 83.74156242 7.49952564 83.75496628 C3.51475315 83.76705477 -0.46976498 83.76547677 -4.45453331 83.75273666 C-5.89137237 83.75058409 -7.32822979 83.75352251 -8.76504533 83.76202247 C-10.70947472 83.77280113 -12.65398499 83.76338994 -14.59841603 83.75291222 C-16.21632506 83.75361414 -16.21632506 83.75361414 -17.86691911 83.75433023 C-21.19276638 83.3252316 -23.0795109 82.35671147 -25.76581383 80.38031673 C-27.23435383 77.44323673 -26.89600932 74.48687969 -26.87933922 71.26850033 C-26.87948524 70.53669048 -26.87963127 69.80488064 -26.87978172 69.05089474 C-26.87908386 66.62681797 -26.87129737 64.20281761 -26.86347008 61.77875423 C-26.86160545 60.10009459 -26.86018176 58.4214344 -26.85918236 56.74277401 C-26.85536071 52.32044636 -26.84553342 47.89815145 -26.83447838 43.47583675 C-26.82425669 38.96483459 -26.81968311 34.45382714 -26.81464195 29.94281673 C-26.80391085 21.08863567 -26.78683864 12.23447892 -26.76581383 3.38031673 C-17.75336507 0.62902383 -9.37712802 -0.04916442 0 0 Z " fill="#03467D" transform="translate(339.76581382751465,1336.619683265686)"/>
<path d="M0 0 C1.22438098 -0.00275974 2.44876196 -0.00551949 3.7102454 -0.00836286 C5.08409231 -0.00637464 6.45793909 -0.00429516 7.83178574 -0.00213462 C9.2855184 -0.00347985 10.73925071 -0.00526292 12.19298235 -0.00744686 C16.22008216 -0.01220427 20.24715953 -0.01066639 24.27426049 -0.00816908 C28.64333928 -0.00654374 33.01241311 -0.01067038 37.38149035 -0.01407826 C45.04979381 -0.01924631 52.71809096 -0.02064704 60.38639599 -0.01962215 C71.78958747 -0.01810178 83.19277192 -0.02224888 94.59596204 -0.02749677 C116.14568552 -0.03718658 137.69540662 -0.03998164 159.24513202 -0.04055383 C175.88591575 -0.04101279 192.52669854 -0.0430681 209.16748196 -0.04625446 C213.95189245 -0.04715196 218.73630295 -0.04804178 223.52071345 -0.04892933 C225.30469849 -0.04926091 225.30469849 -0.04926091 227.12472363 -0.04959918 C260.59691452 -0.05575686 294.06910507 -0.0596994 327.54129654 -0.0592559 C328.80426691 -0.05924032 330.06723727 -0.05922474 331.36847947 -0.05920869 C337.77018677 -0.05912558 344.17189406 -0.05902654 350.57360136 -0.05892398 C351.84507104 -0.05890404 353.11654073 -0.05888409 354.4265398 -0.05886354 C356.99776553 -0.05882311 359.56899126 -0.05878131 362.14021699 -0.05873815 C402.13811853 -0.05812549 442.1360116 -0.06562883 482.13391072 -0.07931072 C527.04129336 -0.09466552 571.94867042 -0.10327726 616.85605586 -0.10234749 C621.64329555 -0.10227286 626.43053524 -0.10222415 631.21777493 -0.10219318 C632.39656763 -0.10218152 633.57536034 -0.10216987 634.78987404 -0.10215786 C653.77664707 -0.10212706 672.76341275 -0.10851864 691.7501836 -0.11712544 C710.82950656 -0.12559535 729.90881875 -0.12659711 748.98814254 -0.12001612 C760.32806412 -0.11631574 771.66795302 -0.11816734 783.00787114 -0.12795846 C790.5807138 -0.13394535 798.15353272 -0.13267739 805.72637427 -0.12548796 C810.04259753 -0.12159547 814.35875742 -0.12086238 818.67497628 -0.12894531 C822.6043027 -0.13623932 826.53351315 -0.13426983 830.46283446 -0.12502145 C831.87288387 -0.12330499 833.28294242 -0.1249126 834.69298249 -0.13032265 C836.61579631 -0.13720396 838.53864412 -0.13037386 840.4614563 -0.12304783 C842.05482907 -0.12318016 842.05482907 -0.12318016 843.68039119 -0.12331517 C848.59751644 0.21653899 853.44544626 1.24479926 858.29479939 2.12649983 C858.29479939 27.53649983 858.29479939 52.94649983 858.29479939 79.12649983 C848.16979274 83.62650279 848.16979274 83.62650279 842.70048124 83.62674582 C841.45596502 83.63650367 840.21144879 83.64626152 838.92921996 83.65631506 C837.56897202 83.64692157 836.20872658 83.63716015 834.84848362 83.62707108 C833.38136087 83.6309442 831.91424189 83.63656983 830.44713175 83.64378068 C826.41541691 83.65851737 822.38409092 83.64837708 818.35238836 83.63416869 C813.96634708 83.62311799 809.58035994 83.63527635 805.19432288 83.64447618 C797.50726498 83.65738706 789.82032231 83.65541231 782.13326412 83.64369649 C770.70264697 83.62632277 759.27212055 83.63180987 747.84149871 83.6418634 C727.42861196 83.65906425 707.01577887 83.65350915 686.60289321 83.63850621 C668.7419178 83.62546311 650.88096101 83.6202568 633.01998097 83.62282437 C631.24400764 83.62306499 631.24400764 83.62306499 629.43215607 83.62331048 C624.62623416 83.62397404 619.82031225 83.62467645 615.01439036 83.62543582 C569.92017555 83.6324619 524.82599356 83.61696104 479.73178711 83.59081236 C439.64552179 83.56769084 399.55929253 83.56231112 359.47302204 83.57254475 C349.20655401 83.57514665 338.94008598 83.57773162 328.6736179 83.58014268 C327.40979461 83.58044012 326.14597132 83.58073757 324.84385036 83.58104403 C291.37002732 83.58865353 257.89620724 83.58225174 224.42238551 83.57144666 C220.82200827 83.57029882 217.22163102 83.56915564 213.62125376 83.56801983 C211.23275405 83.56726459 208.84425433 83.56649894 206.45575462 83.56572282 C188.6007921 83.56005776 170.74583891 83.56139895 152.89087635 83.56595105 C132.59774167 83.57105116 112.30464195 83.56523992 92.011516 83.54505675 C80.64584717 83.53404436 69.28024706 83.5313013 57.91457609 83.54034528 C50.33246869 83.54554612 42.75042034 83.5399157 35.16832536 83.52529194 C30.84199746 83.51725055 26.51580894 83.51402874 22.18948159 83.5238645 C18.25806117 83.53270121 14.32690964 83.52787307 10.39551397 83.51188507 C8.97801773 83.50855542 7.56049869 83.51030736 6.14301736 83.51761355 C4.22460147 83.52677539 2.30612068 83.51576746 0.38772088 83.50369799 C-0.67639303 83.50327097 -1.74050694 83.50284396 -2.83686672 83.502404 C-6.16913663 83.06569956 -8.01783727 82.11900784 -10.70520061 80.12649983 C-13.1379404 76.47739016 -12.97425405 74.69825366 -13.0115971 70.34769124 C-13.01992061 69.66278111 -13.02824413 68.97787099 -13.03681988 68.27220601 C-13.0609201 66.00743366 -13.0696919 63.74294932 -13.07629436 61.47806233 C-13.08526084 59.90248976 -13.09438269 58.32691806 -13.10365337 56.75134724 C-13.12014606 53.44766612 -13.12784395 50.14408637 -13.13073772 46.84036702 C-13.13612132 42.61099357 -13.17379788 38.38257537 -13.21948189 34.15347165 C-13.24925376 30.89861021 -13.25646129 27.64397873 -13.25746387 24.38899297 C-13.26166614 22.83007243 -13.27410091 21.27115121 -13.29498142 19.71236485 C-13.32190082 17.52889887 -13.31707156 15.34764578 -13.30456585 13.16409749 C-13.3096365 11.92294179 -13.31470714 10.68178609 -13.31993145 9.40301961 C-12.53796101 5.23511155 -10.93593982 3.77678927 -7.70520061 1.12649983 C-5.03068601 -0.21075747 -2.99668665 0.00082281 0 0 Z " fill="#04477E" transform="translate(328.705200612545,854.8735001683235)"/>
<path d="M0 0 C1.03312065 -0.0015081 2.0662413 -0.0030162 3.13066864 -0.00457001 C4.31685287 -0.0158493 5.50303711 -0.0271286 6.72516632 -0.03874969 C8.02812149 -0.03065277 9.33107666 -0.02255585 10.67351532 -0.01421356 C12.05824266 -0.01963312 13.44296424 -0.02675485 14.82767487 -0.0354538 C18.59011878 -0.05371029 22.35212463 -0.04661035 26.11457634 -0.03393745 C30.04898905 -0.02382168 33.98336386 -0.03319916 37.91777802 -0.03948212 C44.52539058 -0.0467627 51.13282441 -0.03716015 57.74040985 -0.01811981 C65.38349942 0.00364986 73.02616221 -0.00340123 80.66924143 -0.02542543 C87.2272935 -0.04356783 93.78521698 -0.04614349 100.34328604 -0.03567076 C104.2619511 -0.02942938 108.18041546 -0.02861769 112.09906769 -0.04181671 C115.78296228 -0.05335791 119.46630581 -0.04538205 123.15014076 -0.02223969 C125.14982212 -0.01441331 127.14955 -0.02632327 129.14920807 -0.03874969 C130.3353923 -0.0274704 131.52157654 -0.0161911 132.74370575 -0.00457001 C133.7768264 -0.0030619 134.80994705 -0.0015538 135.87437439 0 C138.43718719 0.50336456 138.43718719 0.50336456 140.31256104 2.30073547 C141.97183773 5.55050082 141.17251428 8.02727287 140.43718719 11.50336456 C136.06306645 12.84483803 131.8025999 13.83830626 127.28411102 14.5414505 C112.75243723 16.65211323 112.75243723 16.65211323 101.61687469 25.52680206 C94.89456758 36.79000538 96.29091267 50.92495893 96.30779266 63.54999542 C96.3064354 65.26133511 96.30465364 66.97267451 96.3024826 68.68401337 C96.29794113 73.31319296 96.29968586 77.94235014 96.30286169 82.5715301 C96.30540927 87.44891971 96.30304046 92.32630751 96.30147552 97.2036972 C96.29965787 105.41060476 96.30204649 113.6175033 96.3068161 121.82440948 C96.31222708 131.24214564 96.31051762 140.65986004 96.3049897 150.07759565 C96.3004099 158.21233647 96.29983244 166.34707084 96.30242836 174.48181254 C96.30396864 179.31768909 96.30424866 184.15355553 96.30089188 188.98943138 C96.27718841 214.48813279 96.27718841 214.48813279 96.87126923 239.97821808 C96.90841978 241.02768836 96.94557034 242.07715864 96.98384666 243.15843105 C97.93060476 265.79574213 103.49940791 288.53410009 119.33953094 305.60102081 C141.20088125 325.42686364 168.20635773 327.53675989 196.43718719 326.50336456 C218.91009129 324.99692313 241.53640464 317.7369467 257.55828094 301.33148956 C275.62110168 280.34622414 278.80612627 252.19695618 279.14031219 225.60102081 C279.17408436 223.60403523 279.20796342 221.60705146 279.24193573 219.61006927 C279.69636627 189.59352217 279.43262422 159.56549457 279.23345995 129.54774535 C279.18939497 122.72005698 279.161298 115.89236407 279.13624167 109.06458324 C279.11095095 102.37464926 279.07435074 95.68483697 279.02915597 88.99500805 C279.00266029 85.04373293 278.98050686 81.09256376 278.97013855 77.14121056 C278.96011572 73.45427224 278.93586182 69.76768473 278.90120506 66.08089828 C278.88611223 64.11361149 278.88522815 62.14623109 278.8850174 60.17888641 C278.74551219 48.15682308 277.6777785 34.92359061 269.43718719 25.50336456 C260.1120493 17.55632587 248.46610672 14.70077908 236.58171844 12.99555206 C234.43718719 12.50336456 234.43718719 12.50336456 232.43718719 10.50336456 C231.87180043 4.2841101 231.87180043 4.2841101 233.66773319 1.80409718 C235.94265021 0.13179671 237.25128211 0.12857173 240.06095123 0.12914276 C241.48466537 0.11862129 241.48466537 0.11862129 242.93714142 0.10788727 C244.49648659 0.11935287 244.49648659 0.11935287 246.08733368 0.13105011 C247.18350006 0.12739944 248.27966644 0.12374878 249.40904999 0.11998749 C253.04228327 0.11186382 256.67507307 0.12550848 260.30828094 0.14008331 C262.82789866 0.14060174 265.34751678 0.14008472 267.86713409 0.13857269 C273.15235158 0.1386625 278.43741275 0.14877125 283.72258759 0.16718292 C289.83072788 0.18833986 295.93868016 0.19186284 302.04684967 0.18562096 C307.92389618 0.17992295 313.80088609 0.1856833 319.67792702 0.19679451 C322.17822312 0.20064867 324.6785249 0.20179384 327.17882347 0.20020866 C330.6718745 0.19983848 334.16463824 0.21244603 337.65764618 0.22870636 C339.213955 0.22499023 339.213955 0.22499023 340.80170441 0.22119904 C341.75366699 0.22828384 342.70562958 0.23536865 343.68643951 0.24266815 C344.92501536 0.24574746 344.92501536 0.24574746 346.18861294 0.24888897 C348.71973855 0.53534146 350.31341068 1.10083971 352.43718719 2.50336456 C353.37468719 5.37836456 353.37468719 5.37836456 353.43718719 8.50336456 C351.97190535 11.08633035 351.03753191 12.27599657 348.23577118 13.3371048 C347.3934494 13.49380646 346.55112762 13.65050812 345.68328094 13.81195831 C344.74548798 14.00209503 343.80769501 14.19223175 342.84148407 14.38813019 C341.8624411 14.57053253 340.88339813 14.75293488 339.87468719 14.94086456 C330.05067082 16.78328334 320.01910187 19.1656605 313.67937469 27.51117706 C305.61852741 40.43895101 306.08214458 56.53230978 305.80828094 71.27680206 C305.78007672 72.58894747 305.78007672 72.58894747 305.75130272 73.92760086 C305.37594998 91.61021538 305.37851474 109.29426769 305.40984344 126.97992706 C305.41106311 127.66925921 305.41228278 128.35859137 305.41353941 129.06881237 C305.43876867 142.67431872 305.4806295 156.27977391 305.53313446 169.8852005 C305.55795423 176.33950797 305.57513868 182.79379512 305.58469385 189.24814355 C305.59005088 192.61860928 305.60034988 195.98887463 305.61808205 199.35931015 C305.72625217 220.04652958 305.56747443 240.9899303 301.24968719 261.31586456 C301.03755585 262.34083038 300.8254245 263.3657962 300.60686493 264.42182159 C294.79361504 291.05880771 281.55051637 316.47880231 258.20281219 331.82367706 C219.34760949 355.42217588 170.14850158 358.88859844 126.46331024 348.50263214 C105.8151163 343.2823251 87.66297647 334.70325964 72.43718719 319.50336456 C71.67921844 318.75699738 70.92124969 318.01063019 70.14031219 317.24164581 C42.66036039 288.57721333 40.32172035 245.84860153 40.26360321 208.28974152 C40.25728187 206.50258987 40.25051439 204.71543975 40.24333954 202.92829132 C40.22878361 199.10836679 40.21701396 195.28844786 40.20739174 191.46850777 C40.19181044 185.41964832 40.16786528 179.37083913 40.1424942 173.32201385 C40.07162149 156.13143853 40.01147256 138.94083595 39.96038055 121.75019073 C39.9320247 112.23408659 39.89662598 102.71803405 39.8537268 93.20198411 C39.82707298 87.19713136 39.80909643 81.19233678 39.79768956 75.1874367 C39.78852384 71.44588899 39.77114508 67.70441193 39.75151062 63.96290588 C39.74407834 62.23725185 39.73995669 60.51157964 39.7395153 58.78590965 C40.15805446 39.07561468 40.15805446 39.07561468 31.24968719 22.25336456 C21.69058349 16.30547781 12.2732853 14.39606919 1.13640594 13.94477081 C-1.93546439 13.44242443 -3.35747387 12.67778753 -5.56281281 10.50336456 C-6.0539492 7.20573449 -5.98879338 5.28865901 -4.39131165 2.34370422 C-2.56281281 0.50336456 -2.56281281 0.50336456 0 0 Z " fill="#06497E" transform="translate(368.5628128051758,961.4966354370117)"/>
<path d="M0 0 C0.74442856 0.24102448 1.48885712 0.48204895 2.25584412 0.7303772 C3.65555102 1.18409856 5.05347394 1.64337957 6.44911194 2.10946655 C12.40806641 4.0319027 17.87030498 5.50616925 23.98217773 3.67260742 C28.6596597 0.97406013 30.78382374 -2.35240449 33.35717773 -6.95239258 C35.23217773 -10.20239258 35.23217773 -10.20239258 37.23217773 -11.20239258 C43.08141112 -11.66661745 43.08141112 -11.66661745 45.23217773 -11.20239258 C49.0639459 -7.58025142 49.01499766 -3.10138012 49.49072266 1.86132812 C49.58869644 2.77725739 49.68667023 3.69318665 49.78761292 4.63687134 C50.10827683 7.66456366 50.41065692 10.69378134 50.71264648 13.72338867 C50.93155178 15.8309309 51.15148108 17.938367 51.37239075 20.04570007 C51.83297582 24.46411862 52.28525972 28.88327786 52.73095703 33.30322266 C53.30146843 38.96019312 53.88606654 44.6155864 54.47609997 50.27055073 C55.03898235 55.67099685 55.59484618 61.07215855 56.15014648 66.47338867 C56.25632986 67.50059839 56.36251324 68.52780811 56.47191429 69.5861454 C56.77240093 72.50562187 57.06790561 75.4255582 57.36181641 78.34570312 C57.45061066 79.20257217 57.53940491 80.05944122 57.63088989 80.942276 C58.90700267 93.78537002 58.90700267 93.78537002 56.23217773 97.79760742 C52.61386658 98.75338773 50.14769042 99.07439033 46.54467773 97.98510742 C42.92581273 94.56185675 41.83896172 90.44330895 40.23217773 85.79760742 C30.63325551 58.36365069 16.61402139 34.0795844 -10.58618164 20.91772461 C-29.70404807 12.18474769 -51.88081306 8.41816924 -72.01782227 15.86010742 C-83.45485539 21.06014515 -91.20661121 30.45117785 -96.14282227 41.79760742 C-100.47081922 54.76341341 -98.00918256 67.66050552 -92.40063477 79.74291992 C-81.30214136 100.89079542 -58.6481078 112.77582598 -39.09594727 124.86791992 C-29.56687535 130.76672855 -20.14390904 136.8316173 -10.72045898 142.8972168 C-8.79847988 144.13425048 -6.8756705 145.36999541 -4.9519043 146.60424805 C26.74440289 166.94742089 60.25998737 188.99780663 69.15161133 228.10473633 C73.71930852 251.41628645 68.3417524 276.30394404 55.41381836 296.12036133 C51.87127177 301.14872807 47.59757797 305.4873878 43.23217773 309.79760742 C42.41749023 310.61100586 41.60280273 311.4244043 40.76342773 312.26245117 C28.96380015 323.46826632 14.26871485 330.84474816 -1.20532227 335.54760742 C-1.84824219 335.74636475 -2.49116211 335.94512207 -3.15356445 336.14990234 C-35.63068392 345.46730516 -67.13247097 338.41411916 -98.06469727 327.95092773 C-98.84954498 327.68694687 -99.6343927 327.422966 -100.44302368 327.15098572 C-101.92051374 326.65239028 -103.3962278 326.14848666 -104.86972046 325.63819885 C-110.50696464 323.73448109 -115.57472446 322.16569789 -121.45532227 323.86010742 C-126.26233236 326.67175484 -127.9656877 330.12916752 -130.33032227 335.04760742 C-131.76782227 337.79760742 -131.76782227 337.79760742 -134.76782227 339.79760742 C-138.10514405 340.2236485 -139.98944364 340.30701319 -142.83862305 338.44238281 C-145.82081262 334.3540432 -146.04457471 330.04779756 -146.69750977 325.10620117 C-146.85337555 324.02871613 -147.00924133 322.95123108 -147.16983032 321.84109497 C-147.67690642 318.30783919 -148.16013282 314.77177014 -148.64282227 311.23510742 C-148.98712868 308.79797935 -149.33284299 306.36104979 -149.67993164 303.92431641 C-150.38364587 298.96374517 -151.07744536 294.0019396 -151.76293945 289.03881836 C-152.69158761 282.32213999 -153.65142798 275.61027712 -154.61938477 268.89916992 C-155.03807304 265.97712474 -155.4556586 263.05492582 -155.87237549 260.13259888 C-156.13434095 258.29594966 -156.39714749 256.45942019 -156.66082764 254.62301636 C-157.02451614 252.07903719 -157.38157302 249.53421802 -157.73657227 246.98901367 C-157.84240631 246.25595001 -157.94824036 245.52288635 -158.05728149 244.76760864 C-158.65598213 240.41382191 -159.03513514 236.19001259 -158.76782227 231.79760742 C-156.40923599 229.43902114 -155.69150278 229.42814243 -152.45532227 229.29760742 C-151.69606445 229.24604492 -150.93680664 229.19448242 -150.15454102 229.14135742 C-146.45204518 230.15939228 -144.74907396 232.68994874 -142.76782227 235.79760742 C-141.16327165 238.89721918 -139.8060695 242.08072838 -138.45532227 245.29760742 C-125.73632479 274.45150313 -106.62681911 299.30836204 -76.76782227 311.79760742 C-57.65512586 318.99700876 -35.313384 321.1571554 -16.07250977 313.28588867 C-0.86725898 306.33760813 7.18366201 296.15947986 13.23217773 280.69995117 C18.22238229 266.21666218 17.368391 251.05363035 10.77148438 237.20458984 C-0.07330418 216.03272196 -20.70345819 203.34548428 -40.38256836 191.26831055 C-44.26256346 188.87597785 -48.10665224 186.42738403 -51.95532227 183.98510742 C-58.30047232 179.97022925 -64.66577999 175.98865021 -71.03979492 172.01977539 C-89.81369121 160.32337448 -89.81369121 160.32337448 -97.76782227 154.79760742 C-98.65727539 154.18143555 -99.54672852 153.56526367 -100.46313477 152.93041992 C-122.9284063 136.9935179 -140.7546317 117.68580067 -146.08032227 89.73510742 C-149.24153344 66.69474135 -143.17804961 42.79742341 -129.67016602 23.85620117 C-115.29210914 5.62370929 -94.54808842 -7.20313648 -71.45776367 -10.88891602 C-45.68150455 -13.89279301 -24.09604224 -7.88378456 0 0 Z " fill="#07497F" transform="translate(1039.767822265625,974.202392578125)"/>
<path d="M0 0 C1.2662471 0.00566483 2.5324942 0.01132965 3.83711243 0.01716614 C5.24299842 0.0336878 6.64888216 0.05040268 8.05476379 0.06729126 C9.53301416 0.07771596 11.01127102 0.08725145 12.48953247 0.09596252 C16.50586586 0.12215759 20.5219947 0.16082346 24.53820205 0.20168638 C28.73420485 0.24227173 32.93028638 0.27144664 37.12637329 0.30181885 C45.07369729 0.36108393 53.02089662 0.43064824 60.96810275 0.50388968 C70.01509769 0.58676701 79.06217159 0.65819809 88.10927045 0.72865558 C106.7211826 0.87385953 125.33294648 1.03347728 143.94465637 1.20254517 C145.46615795 4.24554832 145.1836503 6.85663016 144.94465637 10.20254517 C141.92697492 12.2143328 140.31329242 12.67710459 136.82356262 13.31582642 C135.8106012 13.50950806 134.79763977 13.7031897 133.75398254 13.90274048 C132.68252991 14.10480103 131.61107727 14.30686157 130.50715637 14.51504517 C121.74419728 16.24069806 113.98509804 18.26560574 105.94465637 22.20254517 C104.45965637 22.69754517 104.45965637 22.69754517 102.94465637 23.20254517 C101.35383094 25.81970958 100.36379795 28.62151528 99.38215637 31.51504517 C99.13336731 32.23305298 98.88457825 32.95106079 98.62825012 33.69082642 C96.78304952 40.47062064 96.80030283 47.17320196 96.8109436 54.15135193 C96.80754527 55.79132795 96.80754527 55.79132795 96.80407828 57.4644348 C96.79775503 61.12299865 96.79856657 64.78152529 96.7993927 68.44009399 C96.79640018 71.06526233 96.79299743 73.69043022 96.78921509 76.31559753 C96.78092195 82.70350378 96.77816085 89.0914008 96.77760271 95.47931198 C96.77712693 100.67356881 96.77506908 105.86782261 96.77190208 111.06207848 C96.76309927 125.80052396 96.75848214 140.53896217 96.75923256 155.27741031 C96.75929249 156.46830494 96.75929249 156.46830494 96.75935364 157.68325806 C96.75941496 158.87561277 96.75941496 158.87561277 96.75947752 160.09205546 C96.75988391 172.97265458 96.75031504 185.85322445 96.73621527 198.73381511 C96.72183985 211.97105235 96.71494572 225.20827534 96.71580905 238.44552058 C96.71614061 245.87259099 96.71341149 253.29963074 96.702631 260.72669411 C96.69255573 267.71246195 96.69287327 274.69816411 96.70014763 281.68393517 C96.70119302 284.24532033 96.69883329 286.80670953 96.69278717 289.36808777 C96.68505803 292.86973025 96.68971837 296.37114972 96.69741821 299.87278748 C96.69227465 300.88165837 96.68713109 301.89052926 96.68183166 302.92997199 C96.72654155 312.15762803 97.2586169 322.3745045 104.00715637 329.32754517 C111.95528585 334.4008193 120.71444485 336.18717771 129.88215637 337.82754517 C132.10073334 338.23022772 134.31824989 338.63881032 136.53450012 339.05410767 C137.50250549 339.22764771 138.47051086 339.40118774 139.46784973 339.57998657 C141.94465637 340.20254517 141.94465637 340.20254517 144.94465637 342.20254517 C145.30793762 344.07754517 145.30793762 344.07754517 145.25715637 346.20254517 C145.25328918 346.90379517 145.249422 347.60504517 145.24543762 348.32754517 C144.94465637 350.20254517 144.94465637 350.20254517 142.94465637 352.20254517 C140.36154175 352.45422745 140.36154175 352.45422745 137.02302551 352.45651245 C135.7610434 352.4621521 134.49906128 352.46779175 133.19883728 352.47360229 C131.79249516 352.46971333 130.3861536 352.46561697 128.97981262 352.46133423 C127.50494717 352.46404303 126.03008308 352.46760333 124.55522156 352.47195435 C120.5429034 352.4810939 116.53068778 352.47752768 112.51836777 352.47119617 C108.32590705 352.46614426 104.13345531 352.47082537 99.94099426 352.47396851 C92.89955565 352.47761052 85.85815894 352.4728029 78.81672668 352.46328735 C70.66762846 352.45240234 62.51863029 352.45592776 54.36953449 352.46694016 C47.38182625 352.47600636 40.39414819 352.4773016 33.40643597 352.47206283 C29.22906541 352.46893944 25.05174195 352.46854385 20.87437439 352.4751358 C16.94770227 352.48089896 13.02115958 352.4769314 9.0945015 352.46534729 C7.65049073 352.46269516 6.20646913 352.46347517 4.76246262 352.46787262 C2.79707469 352.47330752 0.83166305 352.46529548 -1.13371277 352.45651245 C-2.78627831 352.45538137 -2.78627831 352.45538137 -4.472229 352.45422745 C-7.05534363 352.20254517 -7.05534363 352.20254517 -9.05534363 350.20254517 C-9.35612488 348.32754517 -9.35612488 348.32754517 -9.36784363 346.20254517 C-9.38460144 345.50129517 -9.40135925 344.80004517 -9.41862488 344.07754517 C-9.29874207 343.45879517 -9.17885925 342.84004517 -9.05534363 342.20254517 C-5.28718917 339.69044219 -1.75085416 339.4640879 2.63215637 338.89004517 C14.18810295 337.20712959 26.17980816 335.43970061 34.94465637 327.20254517 C40.36320741 319.07471861 40.24114391 308.28220486 40.20535278 298.83760071 C40.20917833 297.74777148 40.21300388 296.65794224 40.21694535 295.53508788 C40.22719889 291.91206446 40.22329777 288.2892018 40.21931458 284.66616821 C40.22366529 282.05675104 40.22884963 279.44733515 40.23480225 276.83792114 C40.24750652 270.50268608 40.24934827 264.16749348 40.24700198 257.83224782 C40.24521377 252.67864009 40.24697922 247.52504518 40.25122643 242.37143898 C40.25182161 241.63595004 40.2524168 240.9004611 40.25303003 240.14268461 C40.25424187 238.64818272 40.25545601 237.15368084 40.2566724 235.65917895 C40.26753161 221.66522713 40.26539321 207.67129944 40.25928756 193.67734627 C40.25412054 180.89991698 40.26537104 168.12256398 40.28438578 155.34514978 C40.3037992 142.19816246 40.312014 129.05121117 40.30826253 115.90420943 C40.3063557 108.53406723 40.30878718 101.16398993 40.32297707 93.79385948 C40.33619183 86.86052499 40.33358341 79.92734511 40.32056618 72.99401093 C40.31820722 70.45687877 40.32091054 67.91973579 40.3291893 65.38261604 C41.44000119 43.28727981 41.44000119 43.28727981 33.42121887 23.51895142 C24.29354895 15.38131976 8.46080949 14.01679488 -3.26237488 12.69473267 C-6.05534363 12.20254517 -6.05534363 12.20254517 -9.05534363 10.20254517 C-9.45378113 8.32754517 -9.45378113 8.32754517 -9.43034363 6.20254517 C-9.438078 5.50129517 -9.44581238 4.80004517 -9.45378113 4.07754517 C-8.45042644 -0.64412395 -3.85070981 -0.03216967 0 0 Z " fill="#084A7F" transform="translate(738.0553436279297,961.7974548339844)"/>
</svg>
